<svg xmlns="http://www.w3.org/2000/svg" width="64" height="64" viewBox="0 0 64 64"><g transform="translate(-22720 18744)"><rect width="64" height="64" transform="translate(22720 -18744)" fill="none"/><g transform="translate(22646.098 -18742)"><path d="M201.775,149.786a7.3,7.3,0,0,0,5.361-12.253.893.893,0,0,0-1.311,1.212,5.514,5.514,0,1,1-4.05-1.773,5.554,5.554,0,0,1,1.2.133.892.892,0,1,0,.388-1.742,7.3,7.3,0,1,0-1.591,14.424Z" transform="translate(-95.654 -119.1)" fill="#fff"/><path d="M143.573,49.514a5.766,5.766,0,0,0-3.111.916A4.185,4.185,0,0,0,136,48.671v-1.9a3.6,3.6,0,0,0,2.516-2.758l.5-2.573a2.09,2.09,0,0,0,1.644-1.591l.661-3h5.23a2.479,2.479,0,0,0,2.476-2.476V32.135a.892.892,0,1,0-1.785,0v2.242a.692.692,0,0,1-.691.691h-4.837l.688-3.123a35.228,35.228,0,0,0,.314-13.539l.641.58a11.814,11.814,0,0,1,3.885,8.749v.6a.892.892,0,1,0,1.785,0v-.6a13.6,13.6,0,0,0-4.473-10.073l-2.486-2.247A35.269,35.269,0,0,0,134.075.65a1.981,1.981,0,0,0-2.935,0,35.268,35.268,0,0,0-7.992,14.763l-2.486,2.247a13.6,13.6,0,0,0-4.473,10.073v.6a.892.892,0,1,0,1.785,0v-.6a11.814,11.814,0,0,1,3.885-8.749l.641-.58a35.226,35.226,0,0,0,.314,13.539l.688,3.123h-4.837a.692.692,0,0,1-.691-.691V32.134a.892.892,0,0,0-1.785,0v2.242a2.479,2.479,0,0,0,2.476,2.476h5.23l.661,3a2.09,2.09,0,0,0,1.519,1.564l.509,2.6a3.6,3.6,0,0,0,2.635,2.791v1.862a4.185,4.185,0,0,0-4.467,1.758,5.744,5.744,0,1,0-.8,10.087.893.893,0,0,0-.719-1.634,3.959,3.959,0,1,1,.885-6.713,1.272,1.272,0,0,0,1.951-.448,2.406,2.406,0,0,1,2.17-1.381,2.373,2.373,0,0,1,.971.205,1.273,1.273,0,0,0,1.8-1.159V46.922h3.206v2.464A1.273,1.273,0,0,0,136,50.545a2.372,2.372,0,0,1,.971-.205,2.406,2.406,0,0,1,2.17,1.381,1.273,1.273,0,0,0,1.952.448,3.959,3.959,0,0,1,6.425,3.363,3.981,3.981,0,0,1-3.56,3.666,3.932,3.932,0,0,1-1.981-.315.892.892,0,0,0-.718,1.634A5.762,5.762,0,0,0,143.58,61c.184,0,.369-.009.553-.026a5.781,5.781,0,0,0,5.17-5.323,5.7,5.7,0,0,0-1.535-4.316,5.765,5.765,0,0,0-4.2-1.821ZM128.267,7.6h8.681q.546.946,1.027,1.923H127.24Q127.722,8.549,128.267,7.6Zm4.195-5.753a.2.2,0,0,1,.291,0,33.367,33.367,0,0,1,3.09,3.969h-6.47A33.358,33.358,0,0,1,132.462,1.849ZM124.557,31.56a33.528,33.528,0,0,1,1.867-20.25h12.367a33.528,33.528,0,0,1,1.867,20.25l-1.743,7.909a.288.288,0,0,1-.283.228h-3.454l.142-5.33a2.01,2.01,0,0,0-2.01-2.064H131.9a2.01,2.01,0,0,0-2.01,2.064l.142,5.331h-3.454a.288.288,0,0,1-.283-.228Zm8.979,2.759-.168,6.326a.224.224,0,0,1-.225.219h-1.07a.224.224,0,0,1-.225-.219l-.168-6.326a.225.225,0,0,1,.225-.231h1.406a.226.226,0,0,1,.226.231Zm-5.2,9.356-.429-2.193h2.338a2,2,0,0,0,1.827,1.167h1.07a2,2,0,0,0,1.827-1.167h2.219l-.429,2.193a1.813,1.813,0,0,1-1.776,1.462h-4.871A1.813,1.813,0,0,1,128.336,43.675Z" transform="translate(-26.427)" fill="#fff"/><path d="M87.827,429.028a.892.892,0,0,0-1.172.468,9.289,9.289,0,0,0-.375,6.287.892.892,0,1,0,1.713-.5,7.5,7.5,0,0,1,.3-5.082A.892.892,0,0,0,87.827,429.028Z" transform="translate(0 -377.912)" fill="#fff"/><path d="M407.672,429.5a.892.892,0,0,0-1.641.7,7.6,7.6,0,0,1,.6,3.483,7.448,7.448,0,0,1-.286,1.6.892.892,0,1,0,1.713.5,9.242,9.242,0,0,0,.354-1.983A9.39,9.39,0,0,0,407.672,429.5Z" transform="translate(-281.973 -377.913)" fill="#fff"/><path d="M201.138,450.73a.892.892,0,1,0,0,1.785,2.95,2.95,0,0,1,2.947,2.947.892.892,0,1,0,1.785,0A4.737,4.737,0,0,0,201.138,450.73Z" transform="translate(-100.738 -397.096)" fill="#fff"/><path d="M269.866,450.73a4.737,4.737,0,0,0-4.732,4.732.892.892,0,0,0,1.785,0,2.95,2.95,0,0,1,2.947-2.947.892.892,0,1,0,0-1.785Z" transform="translate(-157.905 -397.096)" fill="#fff"/></g></g></svg>