<svg xmlns="http://www.w3.org/2000/svg" width="64" height="64" viewBox="0 0 64 64"><g transform="translate(-23006 18744)"><rect width="64" height="64" transform="translate(23006 -18744)" fill="none"/><g transform="translate(23012 -18737.584)"><path d="M49.139,16.078a.786.786,0,0,0-.519-.538l-17.3-5.5a.786.786,0,0,0-.83.231l-4.911,5.613-4.911-5.613a.786.786,0,0,0-.83-.231l-17.3,5.5a.786.786,0,0,0-.354,1.267l5.05,5.771-5.05,5.771a.786.786,0,0,0,.354,1.267L7.5,31.194V43.8a.786.786,0,0,0,.517.739l17.3,6.289h.017a.741.741,0,0,0,.5,0h.017l8.223-2.987.024.105a.786.786,0,0,0,1.322.38l1.112-1.112,3.431,3.431a.786.786,0,0,0,1.112,0L43.3,48.426a.786.786,0,0,0,0-1.112L41.228,45.24l1.921-.7a.786.786,0,0,0,.516-.739V31.194l4.953-1.577a.786.786,0,0,0,.354-1.267l-5.048-5.771,5.05-5.771A.786.786,0,0,0,49.139,16.078ZM25.584,27.257l-14.7-4.678L24.8,18.151v3.641a.786.786,0,0,0,1.572,0V18.151l13.915,4.428ZM19.829,11.691l4.373,5L8.541,21.673l-4.373-5ZM8.541,23.483,24.2,28.466l-4.373,5L4.168,28.482Zm31.98,25.5L37.09,45.551a.786.786,0,0,0-1.112,0l-.663.662-1.059-4.626L38.87,42.66l-.666.667a.786.786,0,0,0,0,1.112l3.43,3.43Zm1.572-5.728-2.1.759-.128-.128,1.112-1.112A.786.786,0,0,0,40.6,41.45l-7.215-1.679a.786.786,0,0,0-.943.943L33.723,46.3l-7.353,2.67V43.018a.786.786,0,0,0-1.572,0v5.953L9.075,43.254V31.7l10.77,3.426a.776.776,0,0,0,.236.033.786.786,0,0,0,.592-.268L24.8,30.172v6.557a.786.786,0,0,0,1.572,0V30.174L30.5,34.891a.786.786,0,0,0,.592.266.776.776,0,0,0,.236-.037L42.093,31.7ZM31.34,33.466l-4.373-5,15.661-4.983,4.373,5ZM42.627,21.673,26.966,16.69l4.373-5L47,16.674Z" transform="translate(0 -1.711)" fill="#fff"/><path d="M35.786,5.931a.786.786,0,0,0,.655-.35l.406-.608a3.139,3.139,0,0,1,2.616-1.4H40.5A.786.786,0,0,0,40.5,2H39.462a4.708,4.708,0,0,0-3.924,2.1l-.406.608a.786.786,0,0,0,.654,1.222Z" transform="translate(-7.057 0)" fill="#fff"/><path d="M22.629,3.556l1.4.281a2.366,2.366,0,0,1,1.9,2.313v.567a.786.786,0,1,0,1.572,0V6.15A3.941,3.941,0,0,0,24.343,2.3l-1.4-.282a.786.786,0,1,0-.314,1.541Z" transform="translate(-4.277)" fill="#fff"/><path d="M49.3,7.734A2.363,2.363,0,0,1,51.19,6.686h0l-.138.386a2.358,2.358,0,0,0,1.593,3.138,2.387,2.387,0,0,0,.616.079,2.35,2.35,0,0,0,1.175-.315A2.388,2.388,0,0,0,55.551,8.48a2.358,2.358,0,0,0-1.839-2.932l-.4-.079a3.137,3.137,0,0,1,2.41-1.795.786.786,0,0,0-.225-1.557,4.709,4.709,0,0,0-3.762,3.059l-.275-.052a.766.766,0,0,0-.174-.013l-.149.006A3.935,3.935,0,0,0,48,6.865a.786.786,0,0,0,1.308.871Zm3.223-.112.236-.654.66.124a.78.78,0,0,1,.52.355.829.829,0,0,1,.079.688.792.792,0,1,1-1.5-.513Z" transform="translate(-9.811 -0.024)" fill="#fff"/><path d="M2.963,3.674a3.138,3.138,0,0,1,2.41,1.8l-.4.079A2.366,2.366,0,0,0,3.412,6.61a2.4,2.4,0,0,0-.263,1.931,2.358,2.358,0,0,0,2.272,1.748,2.406,2.406,0,0,0,.622-.083,2.358,2.358,0,0,0,1.6-3.115l-.146-.406h0A2.362,2.362,0,0,1,9.379,7.733a.786.786,0,1,0,1.308-.871A3.931,3.931,0,0,0,7.55,5.114L7.4,5.108a.717.717,0,0,0-.174.013l-.275.052A4.709,4.709,0,0,0,3.188,2.115a.788.788,0,1,0-.225,1.559Zm3.2,3.968a.791.791,0,0,1-1.132.969.833.833,0,0,1-.384-.544.786.786,0,0,1,.613-.976l.66-.124Z" transform="translate(-0.062 -0.023)" fill="#fff"/><ellipse cx="1" cy="0.5" rx="1" ry="0.5" transform="translate(24.584 37.584)" fill="#fff"/><ellipse cx="1" cy="0.5" rx="1" ry="0.5" transform="translate(24.584 22.584)" fill="#fff"/><ellipse cx="0.5" cy="1" rx="0.5" ry="1" transform="translate(26.584 6.584)" fill="#fff"/><circle cx="1" cy="1" r="1" transform="translate(34.584 1.584)" fill="#fff"/><circle cx="1" cy="1" r="1" transform="translate(47.584 1.584)" fill="#fff"/><ellipse cx="0.5" cy="1" rx="0.5" ry="1" transform="translate(15.584 1.584)" fill="#fff"/><ellipse cx="1" cy="0.5" rx="1" ry="0.5" transform="translate(10.584 8.584)" fill="#fff"/></g></g></svg>