<svg xmlns="http://www.w3.org/2000/svg" width="150.068" height="111.533" viewBox="0 0 150.068 111.533"><defs><style>.a{fill:#05ad5d;}.b{fill:#03cc6c;}.c{fill:#2b2b2b;}</style></defs><path class="a" d="M105.135,74.751l11.9,13.3a2.321,2.321,0,0,0,2.306.714l14.683-3.57V67l-28.385,6.2a.952.952,0,0,0-.506,1.547Z" transform="translate(-19.127 -57.002)"/><path class="b" d="M124.49,67V85.194l13.716-3.318a.7.7,0,0,0,.327-1.19Z" transform="translate(-9.578 -57.002)"/><path class="a" d="M85.9,103.469c-.61-1.1-1.294-1.488-2.038-1.339a9.7,9.7,0,0,1-2.053.134h-.238c-1.86.625-3.615,1.294-5.222,2.008s-3.08,1.4-4.537,2.083-2.9,1.4-4.285,2.1c-.818.4-1.666.8-2.544,1.175,1.309-2.559,2.559-5.222,3.719-7.929,1.413-3.318,2.8-6.8,4.106-10.325a4.6,4.6,0,0,0,.461-3.451,2.038,2.038,0,0,0-2.217-1.1,15.65,15.65,0,0,0-5.668,1.354,62.019,62.019,0,0,0-6.531,3.109c-2.142,1.175-4.151,2.321-5.951,3.392s-3.05,1.889-3.942,2.38a6.561,6.561,0,0,0-1.488,1.488,1.1,1.1,0,0,0,.134,1.488,1.488,1.488,0,0,0,1.116.253h.655a38.9,38.9,0,0,0,7.052-2.44c2.142-.982,4.061-1.919,5.713-2.782s2.975-1.592,4.136-2.187c.342-.193.61-.312.833-.417a30.033,30.033,0,0,1-1.577,4.894c-.848,2.083-1.83,4.21-2.886,6.293s-2.217,4.21-3.422,6.263S56.907,113.9,55.88,115.7a1.19,1.19,0,0,0,0,1.488,4.745,4.745,0,0,0,.863,1,5.252,5.252,0,0,0,1.235.788,3.273,3.273,0,0,0,1.4.342h.179l.164-.089a62.633,62.633,0,0,0,6.5-3.853c2.053-1.354,4.091-2.693,6.144-4s4.091-2.544,6.248-3.734a49.228,49.228,0,0,1,6.947-3.05l.818-.3Z" transform="translate(-47.246 -47.355)"/><path class="c" d="M109.379,87.884c.208-.893.461-1.964.774-3.2s.625-2.618.907-4.032.521-2.737.729-4V70.836a8.926,8.926,0,0,0-6.2-8.465,6.873,6.873,0,0,0-4.463.446A10.265,10.265,0,0,0,97.4,65.792a25.542,25.542,0,0,0-2.827,4.463A31.837,31.837,0,0,0,92.509,75.3a23.92,23.92,0,0,0-1.041,5.013,36.447,36.447,0,0,0-.491,4.612c-.1,1.964-.164,4.106-.208,6.367s0,4.463,0,6.754a37.091,37.091,0,0,0,.149,4.2l-.759.1a7.974,7.974,0,0,0-1.964.64,20.089,20.089,0,0,0-1.889,1c-.669.387-1.488.893-2.5,1.488l-.164.119c-.506.417-1.279,1.131-2.336,2.113s-2.217,2.187-3.437,3.541-2.38,2.782-3.57,4.374a28.266,28.266,0,0,0-2.975,4.894,14.475,14.475,0,0,0-1.384,5.1,7.022,7.022,0,0,0,1.384,4.894l.193.223a6.1,6.1,0,0,0,6.427,1.175,20.351,20.351,0,0,0,6.293-3.689,51.311,51.311,0,0,0,5.951-5.787l2.782-3.273c.179.982.327,1.9.446,2.752.238,1.741.476,3.377.684,4.939s.431,3.139.669,4.671.6,3.273,1.012,5.1l.1.3c.58,1.235,1.012,2.083,1.309,2.6a2.1,2.1,0,0,0,1.488,1.16h.238a2.053,2.053,0,0,0,1.488-.655l.476-.461v-.655c0-1.488-.268-3.749-.58-6.5s-.655-5.549-1-8.405-.64-5.475-.878-7.929c-.208-2.008-.327-3.541-.357-4.582a36.733,36.733,0,0,0,3.437-4.954c1.19-2.068,2.291-4.18,3.243-6.263s1.785-4.091,2.484-5.951,1.265-3.407,1.7-4.627C109.007,89.461,109.156,88.866,109.379,87.884ZM79.625,124.556a8.377,8.377,0,0,1-1.086.774,8.181,8.181,0,0,1-1.354.669h-.134a.7.7,0,0,1-.149-.3,3.854,3.854,0,0,1-.1-.937v-.7q.841-2.114,1.889-4.136a23.417,23.417,0,0,1,3.868-5.028c1.488-1.488,2.767-2.8,3.808-3.719a27.5,27.5,0,0,1,2.618-2.068,5.415,5.415,0,0,1,1.488-.788,2.365,2.365,0,0,1,.446-.089,3.258,3.258,0,0,1,.58,2.589,10.414,10.414,0,0,1-1.874,3.927,27.6,27.6,0,0,1-3.57,3.957c-1.4,1.309-2.6,2.5-3.585,3.541l-1.607,1.265c-.491.387-.922.729-1.309,1.041Zm21.557-30.988c-1.026,2.127-1.964,4.047-2.8,5.534a17.509,17.509,0,0,1-1.294,2.112c-.089-.506-.164-1.086-.223-1.711-.1-.982-.149-1.993-.164-2.827.208-2.083.357-3.883.431-5.341s.119-2.767.149-3.987.1-2.306.208-3.392a33.726,33.726,0,0,1,.55-3.615,27.556,27.556,0,0,1,1-3.645,23.3,23.3,0,0,1,1.666-3.883,12.809,12.809,0,0,1,2.068-2.916,1.7,1.7,0,0,1,1.235-.669h.253c.208,0,.6.6.8,2.053a31.434,31.434,0,0,1,0,7.007,56.722,56.722,0,0,1-1.488,8.361A37.813,37.813,0,0,1,101.182,93.567Z" transform="translate(-36.194 -59.351)"/><path class="c" d="M139.041,93.574a13.775,13.775,0,0,0-3.526-2.5,31.791,31.791,0,0,0-4.463-1.845,36.285,36.285,0,0,0-4.865-1.265,32.383,32.383,0,0,0-4.567-.6h-.982l-.431.878a2.366,2.366,0,0,1-.491.55h-.387a27.508,27.508,0,0,0-7.543.506h0a16.23,16.23,0,0,0-5.609,2.351,14.282,14.282,0,0,0-3.794,3.749,5.388,5.388,0,0,0-.119-1.4,19.1,19.1,0,0,0-.327-2.767c-.149-.982-.342-2.217-.625-3.823l-.134-.788-.714-.312L98.2,85.3a2.232,2.232,0,0,0-2.321.089,1.979,1.979,0,0,0-.744,1.9c.417,4.091.893,8.733,1.488,13.895a159.182,159.182,0,0,1,.565,18.343,2.217,2.217,0,0,0,1.636,2.127,4.106,4.106,0,0,0,1.354.223,3.39,3.39,0,0,0,.669,0,5.787,5.787,0,0,0,1.726-.476,2.157,2.157,0,0,0,1.309-2.425,11.9,11.9,0,0,1-.134-2.529l.1-3.749c0-1.265.1-2.455.208-3.556s.164-1.86.238-2.47c.387-1.16.908-2.455,1.488-3.838a17.227,17.227,0,0,1,2.4-3.868,16.261,16.261,0,0,1,3.541-3.2,11.9,11.9,0,0,1,4.642-1.785,6.933,6.933,0,0,0,3.288-1.146l.193.253c.089.1.164.223.253.342a58.16,58.16,0,0,0-.655,6.709,95.472,95.472,0,0,0,.119,9.982,17.241,17.241,0,0,0,.61,3.228,15.248,15.248,0,0,0,1.488,3.66,10.235,10.235,0,0,0,2.975,3.109,7.974,7.974,0,0,0,4.7,1.369,5.787,5.787,0,0,0,3.972-2.008,19.755,19.755,0,0,0,3.154-4.27,37.962,37.962,0,0,0,2.544-5.579,36.393,36.393,0,0,0,1.681-5.951,20.738,20.738,0,0,0,.342-5.564A6.6,6.6,0,0,0,139.041,93.574Zm-9.268,19.489a2.827,2.827,0,0,1-1.071.759,1.487,1.487,0,0,1-.788,0,2.381,2.381,0,0,1-.774-.417,6.988,6.988,0,0,1-.58-.6,9.983,9.983,0,0,1-.565-2.217,29.558,29.558,0,0,1-.387-4.552,39.86,39.86,0,0,1,.342-5.876,37.355,37.355,0,0,1,1-5.013l2.142.6c.848.223,1.488.446,2.127.64a7.438,7.438,0,0,1,1.16.521l1.324.848a3.57,3.57,0,0,1,.952,1.86,9.967,9.967,0,0,1,0,3.734,18.194,18.194,0,0,1-1.488,4.82,17.852,17.852,0,0,1-3.392,4.894Z" transform="translate(-23.905 -48.215)"/><path class="c" d="M158.2,93.545h0a7.3,7.3,0,0,0-1.146-2.053,5.282,5.282,0,0,0-1.488-1.279c-.387-.223-.729-.387-1.086-.58a7.647,7.647,0,0,0-5.222-.431,14.876,14.876,0,0,0-4.686,2.246,24.054,24.054,0,0,0-4.2,3.764,40.174,40.174,0,0,0-3.466,4.374c-.476.684-.908,1.369-1.294,2.023-.253-2.47-.506-4.582-.729-6.323a41.954,41.954,0,0,0-1.265-6.605l-.1-.357-.253-.253a14.7,14.7,0,0,0-1.413-1.235,4.984,4.984,0,0,0-3.377-.655l-1.755.1.4,1.711c.193.878.387,1.8.55,2.737s.312,1.83.4,2.633l.268,2.083a7.246,7.246,0,0,0,.089.863v.223c.268,1.7.491,4.136.669,7.245s.327,6.65.461,10.414.268,7.587.372,11.544.164,7.572.193,10.86.074,6.04.1,8.227,0,3.362,0,3.57v5.951a26.12,26.12,0,0,0,.164,2.737,1.919,1.919,0,0,0,1.324,1.874l1.131.149h0c.327,0,.625.089.893.1h.193a2.38,2.38,0,0,0,2.291-1.83,13.123,13.123,0,0,0,.372-3.437V147.4c0-2.871-.1-6.59-.208-11.113-.089-4.121-.134-9.238-.149-15.264a16.276,16.276,0,0,0,5.4-1.22,26.779,26.779,0,0,0,7.676-4.746,30.007,30.007,0,0,0,6.308-7.781,22.746,22.746,0,0,0,2.9-10.518A8.686,8.686,0,0,0,158.2,93.545Zm-12.273,4.463a23.8,23.8,0,0,1,3.422-2.351,2.112,2.112,0,0,1,2.4.238s.3.342.3,1.8a13.3,13.3,0,0,1-1.146,4.894h0a20.352,20.352,0,0,1-3.749,5.772,18.626,18.626,0,0,1-7.022,4.731,8.435,8.435,0,0,1-2.306.714,3.451,3.451,0,0,1-1.22,0h-.074a11.545,11.545,0,0,1,1.026-3.288,40.313,40.313,0,0,1,2.752-5.237c1.086-1.681,2.187-3.243,3.258-4.612a23.717,23.717,0,0,1,2.365-2.708Z" transform="translate(-8.49 -47.679)"/><circle class="a" cx="3.511" cy="3.511" r="3.511" transform="translate(114.185)"/></svg>