<svg xmlns="http://www.w3.org/2000/svg" width="64" height="64" viewBox="0 0 64 64"><g transform="translate(-22441 18744)"><rect width="64" height="64" transform="translate(22441 -18744)" fill="none"/><g transform="translate(22358.74 -18743)"><path d="M167.611,90.175a.894.894,0,1,0,1.573-.849,13.326,13.326,0,1,0,1.6,5.983.894.894,0,0,0-1.786.049,11.54,11.54,0,1,1-1.386-5.183Z" transform="translate(-43.929 -72.523)" fill="#fff"/><path d="M273.475,215.637a2.728,2.728,0,0,0,3.791,0,2.684,2.684,0,0,0,0-3.791,2.681,2.681,0,1,0-3.791,3.791Zm1.264-2.527a.924.924,0,0,1,1.264,0,.894.894,0,0,1,0,1.264.894.894,0,0,1-1.264-1.264Z" transform="translate(-157.188 -185.931)" fill="#fff"/><path d="M198.973,137.344a2.681,2.681,0,1,0-3.791,0A2.728,2.728,0,0,0,198.973,137.344Zm-2.527-1.264a.894.894,0,0,1,1.264-1.264.906.906,0,0,1-.632,1.525,1.041,1.041,0,0,1-.632-.262Z" transform="translate(-88.224 -116.965)" fill="#fff"/><path d="M201.764,152.164a.891.891,0,0,0,.632-.262l11.319-11.319a.894.894,0,0,0-1.264-1.264l-11.319,11.319A.915.915,0,0,0,201.764,152.164Z" transform="translate(-93.94 -122.491)" fill="#fff"/><path d="M145.035,7.47a.894.894,0,0,0-1.787,0v3.446a16.672,16.672,0,0,0-4.257-2.924V2.1A2.1,2.1,0,0,0,136.9,0H126.93a2.1,2.1,0,0,0-2.1,2.1V7.814a16.731,16.731,0,0,0-4.639,3.1V7.47a.894.894,0,1,0-1.787,0v5.415a16.816,16.816,0,0,0-3.279,12.96.894.894,0,1,0,1.764-.286,14.929,14.929,0,1,1,1.6,4.709.894.894,0,1,0-1.572.849,16.832,16.832,0,0,0,7.912,7.346v4.745a.309.309,0,0,1-.309.308h-5.414a2.1,2.1,0,0,0-1.51,3.549l12.8,13.293a2.1,2.1,0,0,0,3.019,0l5.319-5.523a.894.894,0,0,0-1.287-1.24l-5.319,5.523a.309.309,0,0,1-.445,0l-12.8-13.293a.309.309,0,0,1,.222-.523h5.414a2.1,2.1,0,0,0,2.1-2.1V39.14A16.9,16.9,0,0,0,137.2,39v4.2a2.1,2.1,0,0,0,2.1,2.1h5.414a.309.309,0,0,1,.222.523l-4.609,4.787a.894.894,0,1,0,1.287,1.24l4.609-4.787a2.1,2.1,0,0,0-1.51-3.549H139.3a.309.309,0,0,1-.309-.308V38.27a16.8,16.8,0,0,0,6.044-25.377Zm-18.413-.338V2.1a.309.309,0,0,1,.309-.309H136.9a.309.309,0,0,1,.308.309V7.26a16.917,16.917,0,0,0-10.582-.127Z" transform="translate(-18.193)" fill="#fff"/><path d="M403.635,0a.894.894,0,0,0-.894.894V14.908a.894.894,0,0,0,1.787,0V.894A.894.894,0,0,0,403.635,0Z" transform="translate(-271.729)" fill="#fff"/><path d="M95.153,0a.894.894,0,0,0-.894.894V14.908a.894.894,0,0,0,1.787,0V.894A.894.894,0,0,0,95.153,0Z" fill="#fff"/></g></g></svg>