<svg xmlns="http://www.w3.org/2000/svg" width="64" height="64" viewBox="0 0 64 64"><g transform="translate(-23289 18744)"><rect width="64" height="64" transform="translate(23289 -18744)" fill="none"/><g transform="translate(23295 -18762.002)"><g transform="translate(37.894 62.652)"><path d="M373.4,383.62a1.025,1.025,0,0,0-1.427.259,11.617,11.617,0,0,1-1.053,1.3,12.526,12.526,0,0,1-1,.942,1.025,1.025,0,1,0,1.329,1.562,14.374,14.374,0,0,0,1.173-1.106,13.654,13.654,0,0,0,1.239-1.534A1.025,1.025,0,0,0,373.4,383.62Z" transform="translate(-369.556 -383.437)" fill="#fff"/></g><g transform="translate(35.263 66.842)"><g transform="translate(0 0)"><path d="M345.9,424.893a1.025,1.025,0,0,0-1.364-.493l-.032.014a1.025,1.025,0,1,0,.828,1.876l.075-.034A1.026,1.026,0,0,0,345.9,424.893Z" transform="translate(-343.896 -424.302)" fill="#fff"/></g></g><g transform="translate(0 26.001)"><g transform="translate(0 0)"><path d="M49.437,26H3.063A3.067,3.067,0,0,0,0,29.064V57.8a3.067,3.067,0,0,0,3.063,3.063H24.657a17.138,17.138,0,0,0,4.794,8.373c2.641,2.565,5.668,3.931,6.837,3.931s4.2-1.366,6.837-3.931a17.139,17.139,0,0,0,4.794-8.373h1.516A3.067,3.067,0,0,0,52.5,57.8V29.064A3.067,3.067,0,0,0,49.437,26ZM46.348,56.662A15.136,15.136,0,0,1,41.762,67.7a12.841,12.841,0,0,1-5.473,3.415A12.839,12.839,0,0,1,30.815,67.7a15.137,15.137,0,0,1-4.586-11.041v-5.05a45.894,45.894,0,0,0,10.06-4.255,47.484,47.484,0,0,0,10.059,4.254Zm4.1,1.139a1.014,1.014,0,0,1-1.013,1.012h-1.16a18.921,18.921,0,0,0,.122-2.151V50.835a1.025,1.025,0,0,0-.757-.989,45.234,45.234,0,0,1-10.835-4.556,1.026,1.026,0,0,0-1.036,0,44,44,0,0,1-10.835,4.556,1.026,1.026,0,0,0-.757.989v5.827a18.9,18.9,0,0,0,.122,2.151H3.063A1.014,1.014,0,0,1,2.051,57.8V40.356h48.4Zm0-19.5H2.051V34.2h48.4Zm0-6.152H2.051V29.064a1.014,1.014,0,0,1,1.013-1.013H49.437a1.014,1.014,0,0,1,1.013,1.013Z" transform="translate(0 -26.001)" fill="#fff"/></g></g><g transform="translate(4.102 47.534)"><g transform="translate(0 0)"><path d="M48.2,236a4.618,4.618,0,0,0-1.794.363,4.614,4.614,0,1,0,0,8.5A4.614,4.614,0,1,0,48.2,236Zm-3.588,7.178a2.563,2.563,0,1,1,2.563-2.563A2.566,2.566,0,0,1,44.615,243.181Zm3.843-.013a4.6,4.6,0,0,0,0-5.1,2.563,2.563,0,0,1,0,5.1Z" transform="translate(-40.001 -236.003)" fill="#fff"/></g></g><g transform="translate(4.101 42.92)"><path d="M46.3,191H41.024a1.025,1.025,0,0,0,0,2.051H46.3a1.025,1.025,0,0,0,0-2.051Z" transform="translate(-39.999 -191.001)" fill="#fff"/></g><g transform="translate(12.358 42.92)"><path d="M121.6,191h-.049a1.025,1.025,0,0,0,0,2.051h.049a1.025,1.025,0,1,0,0-2.051Z" transform="translate(-120.522 -191.001)" fill="#fff"/></g><g transform="translate(30.359 54.004)"><g transform="translate(0 0)"><path d="M307.634,299.4a1.026,1.026,0,0,0-1.45,0l-5.483,5.483-2.873-2.874a1.025,1.025,0,0,0-1.45,1.45l3.6,3.6a1.025,1.025,0,0,0,1.45,0l6.208-6.208A1.025,1.025,0,0,0,307.634,299.4Z" transform="translate(-296.077 -299.098)" fill="#fff"/></g></g></g></g></svg>