<svg xmlns="http://www.w3.org/2000/svg" xmlns:xlink="http://www.w3.org/1999/xlink" width="114" height="77" viewBox="0 0 114 77"><defs><filter id="a" x="0" y="0" width="114" height="77" filterUnits="userSpaceOnUse"><feOffset dy="3" input="SourceAlpha"/><feGaussianBlur stdDeviation="3" result="b"/><feFlood flood-color="#8a8a8a" flood-opacity="0.239"/><feComposite operator="in" in2="b"/><feComposite in="SourceGraphic"/></filter></defs><g transform="translate(8.556 5.88)"><g transform="matrix(1, 0, 0, 1, -8.56, -5.88)" filter="url(#a)"><rect width="96" height="59" rx="5" transform="translate(9 6)" fill="#fff"/></g><g transform="translate(13.723 13.573)"><path d="M185.412,56.458,170.62,54.14l1.961,8.814Z" transform="translate(-123.029 -39.039)" fill="#d12053"/><path d="M185.419,22.416,174.273,6.93,170.63,20.1Z" transform="translate(-123.036 -4.997)" fill="#e2136e"/><path d="M139.2,14.926,127.52,0l15.294,1.827Z" transform="translate(-91.951)" fill="#d12053"/><path d="M133.555,15.351,127.07,9.24h1.707Z" transform="translate(-91.626 -6.663)" fill="#9e1638"/><path d="M216.364,35.46,213.619,42.9l-4.449-6.153Z" transform="translate(-150.826 -25.569)" fill="#d12053"/><path d="M183.84,69.4l10.77-4.326.452-1.375Z" transform="translate(-132.561 -45.932)" fill="#e2136e"/><path d="M152.96,71.574l4.614-16.184,2.34,10.53Z" transform="translate(-110.295 -39.94)" fill="#9e1638"/><path d="M65.967,35.67l-1.132,3.074,4.084-.067ZM0,36.9c.2.017.4.053.611.053S1,36.92,1.222,36.9v6.547a3.058,3.058,0,0,1,2.65-1.819c2.159,0,3.085,2.137,3.085,4.1,0,2.351-1.255,4.6-3.456,4.6a2.416,2.416,0,0,1-2.167-1.247C.965,49.41.639,49.8.29,50.149H.011Zm1.194,9.629c0,1.908.809,3.238,2.139,3.238,1.727,0,2.282-2.321,2.282-3.966,0-1.911-.63-3.414-2.125-3.431-1.746-.014-2.3,2.053-2.3,4.162Z" transform="translate(0 -25.72)" fill="#e2136e"/><path d="M34.689,44.31l-1.3,1.674c1.222,1.785,2.488,3.534,3.715,5.342l1.238,1.953v.1c-.3-.02-.58-.059-.837-.059s-.58.039-.854.059c-.338-.625-.672-1.2-1.054-1.768l-3.347-4.951c-.075-.078-.257-.139-.257-.059v6.778c-.245-.02-.46-.059-.672-.059s-.457.039-.672.059v-13.3c.215.017.446.059.672.059s.427-.042.672-.059v6c0,.117.229.039.379-.117a10.348,10.348,0,0,0,.814-.954l3.763-4.937c.2.017.4.059.611.059s.379-.042.6-.059Zm10.122,7.567c0,.692-.045,1.043.856.814v.388a2.474,2.474,0,0,1-.46.176c-.795.159-1.453.017-1.576-1.024l-.137.153A2.837,2.837,0,0,1,41.23,53.5,2.053,2.053,0,0,1,39.2,51.339c0-2.017,1.395-2.282,2.826-2.547,1.211-.229,1.623-.335,1.623-1.185,0-1.311-.642-2.07-1.788-2.07a1.911,1.911,0,0,0-1.819,1.219h-.167v-.982a3.961,3.961,0,0,1,2.474-.971c1.6,0,2.477.971,2.477,2.971Zm-1.222-2.92-.538.123c-1.04.229-2.6.4-2.6,2.019,0,1.116.558,1.674,1.5,1.674a1.905,1.905,0,0,0,1.238-.681c.112-.128.418-.43.418-.558Zm3.947,2.686a2.228,2.228,0,0,0,1.757,1.317,1.582,1.582,0,0,0,1.5-1.612c0-2.388-3.612-.837-3.612-3.927a2.408,2.408,0,0,1,2.491-2.614,3.228,3.228,0,0,1,1.729.457,9.146,9.146,0,0,0-.363,1.255H50.9a1.626,1.626,0,0,0-1.3-1.169,1.355,1.355,0,0,0-1.395,1.473c0,2.262,3.612,1.057,3.612,3.888A2.7,2.7,0,0,1,49,53.5a3.551,3.551,0,0,1-1.908-.558,9.6,9.6,0,0,0,.321-1.3Zm6.34-11.567c.2.017.4.053.614.053s.385-.036.614-.053v6.441A2.718,2.718,0,0,1,57.567,44.8c1.774,0,2.463,1.216,2.463,3.448v5.124c-.232-.02-.41-.053-.614-.053s-.413.036-.614.053v-4.72c0-1.953-.393-2.937-1.7-2.937-1.378,0-2,.993-2,2.831v4.826c-.229-.02-.41-.053-.614-.053s-.407.036-.614.053Z" transform="translate(-22.101 -28.893)" fill="#231f20"/></g></g></svg>