<svg xmlns="http://www.w3.org/2000/svg" width="221.169" height="250.362" viewBox="0 0 221.169 250.362"><g transform="translate(-683.62 -1801.33)"><g transform="translate(672 1723.987)"><ellipse cx="110.585" cy="63.846" rx="110.585" ry="63.846" transform="translate(11.62 200.013)" fill="#f5f5f5"/></g><g transform="translate(556 1679)"><path d="M298.2,308.631a14.876,14.876,0,0,0-6.657-11.7c-1.944-1.139-3.693-1.2-4.927-.381h0l-4.556,2.563,9.549,16.464,4.516-2.56-.006-.011C297.384,312.33,298.185,310.821,298.2,308.631Z" fill="#37474f"/><path d="M286.81,299.614a14.879,14.879,0,0,1,6.656,11.7c-.027,4.292-3.052,6.013-6.755,3.843a14.874,14.874,0,0,1-6.656-11.7C280.082,299.164,283.106,297.444,286.81,299.614Z" fill="#455a64"/><path d="M284.494,306.057c.01-1.678,1.035-2.442,2.289-1.708a5.455,5.455,0,0,1,2.25,4.368c-.01,1.678-1.035,2.443-2.289,1.708A5.454,5.454,0,0,1,284.494,306.057Z" fill="#263238"/><path d="M293.466,311.314a12.447,12.447,0,0,0-.914-4.5L280.986,300.1a5.766,5.766,0,0,0-.931,3.36c0,.053.005.107.005.16l13.4,7.78C293.462,311.369,293.466,311.343,293.466,311.314Z" opacity="0.15"/><path d="M250.317,345.219a14.415,14.415,0,0,1-7.116-1.276l-63.045-36.315c-3.811-1.915-8.085-6.9-8.351-11.614l-1.94-44.911,3.511-.2,1.94,44.911c.181,3.206,3.536,7.221,6.415,8.668L244.776,340.8a12.1,12.1,0,0,0,10.584-.611L297.4,315.967c1.005-.661,1.583-1.451,1.545-2.112s-.669-1.339-1.733-1.874L229.722,272.8c-3.8-1.914-8.065-6.9-8.331-11.619l-.942-24.907,3.511-.2.942,24.907c.181,3.213,3.525,7.229,6.393,8.672l67.492,39.181c2.255,1.135,3.556,2.844,3.67,4.815s-1.026,3.875-3.125,5.255L257.29,343.127A14.447,14.447,0,0,1,250.317,345.219Z" fill="#455a64"/><path d="M238.98,344.21a14.879,14.879,0,0,0-6.657-11.7c-1.944-1.139-3.693-1.194-4.927-.38h0l-4.556,2.562,9.549,16.465,4.516-2.56-.006-.012C238.165,347.909,238.966,346.4,238.98,344.21Z" fill="#37474f"/><path d="M227.594,335.194a14.881,14.881,0,0,1,6.656,11.7c-.027,4.292-3.052,6.013-6.755,3.843a14.874,14.874,0,0,1-6.656-11.7C220.866,334.745,223.89,333.025,227.594,335.194Z" fill="#455a64"/><path d="M225.274,341.636c.011-1.678,1.036-2.442,2.29-1.708a5.459,5.459,0,0,1,2.251,4.368c-.011,1.678-1.036,2.443-2.29,1.708A5.457,5.457,0,0,1,225.274,341.636Z" fill="#263238"/><path d="M192.421,317.362a14.881,14.881,0,0,0-6.635-11.713c-1.942-1.142-3.691-1.2-4.927-.389h0l-4.56,2.554,9.519,16.482,4.52-2.552-.006-.011C191.6,321.06,192.4,319.552,192.421,317.362Z" fill="#37474f"/><path d="M181.052,308.326a14.878,14.878,0,0,1,6.634,11.713c-.035,4.292-3.062,6.007-6.762,3.83a14.876,14.876,0,0,1-6.635-11.713C174.325,307.864,177.352,306.149,181.052,308.326Z" fill="#455a64"/><path d="M178.72,314.763c.014-1.677,1.04-2.44,2.293-1.7a5.458,5.458,0,0,1,2.243,4.372c-.014,1.678-1.041,2.44-2.293,1.7A5.462,5.462,0,0,1,178.72,314.763Z" fill="#263238"/><path d="M162.383,196.677a11.7,11.7,0,0,1,4.49-12.457l41.91-23.688c3.812-2.5,7.979-.763,9.321,3.591l2.906,9.432-2.875,1.676-3.114-9.528A3.165,3.165,0,0,0,210,163.946l-40.81,23.075a7.694,7.694,0,0,0-2.936,8.043l2.462,9.048-3.429,2Z" fill="#455a64"/><path d="M227.179,242.124l-56.3,32.5,82.282,47.505,56.3-32.514Z" fill="#00783c"/><path d="M165.29,206.108l55.72-32.553,6.169,68.569-56.3,32.5Z" fill="#27debf"/><path d="M165.29,206.108l55.72-32.553,6.169,68.569-56.3,32.5Z" fill="#00b55b"/><path d="M221.01,173.555l6.169,68.569,82.281,47.495,12.991-57.506Zm28.766,65.921a4.714,4.714,0,0,1-5.9-3.055l-13.6-35.29a4.436,4.436,0,1,1,8.219-3.167l13.6,35.29A4.714,4.714,0,0,1,249.776,239.476Zm25.691,12.088a4.714,4.714,0,0,1-5.9-3.055l-13.6-35.29a4.436,4.436,0,1,1,8.219-3.166l13.6,35.289A4.712,4.712,0,0,1,275.467,251.564Zm25.692,12.088a4.714,4.714,0,0,1-5.9-3.055l-13.6-35.29a4.437,4.437,0,1,1,8.22-3.167l13.6,35.29A4.714,4.714,0,0,1,301.159,263.652Z" fill="#27debf"/><path d="M221.01,173.555l6.169,68.569,82.281,47.495,12.991-57.506Zm28.766,65.921a4.714,4.714,0,0,1-5.9-3.055l-13.6-35.29a4.436,4.436,0,1,1,8.219-3.167l13.6,35.29A4.714,4.714,0,0,1,249.776,239.476Zm25.691,12.088a4.714,4.714,0,0,1-5.9-3.055l-13.6-35.29a4.436,4.436,0,1,1,8.219-3.166l13.6,35.289A4.712,4.712,0,0,1,275.467,251.564Zm25.692,12.088a4.714,4.714,0,0,1-5.9-3.055l-13.6-35.29a4.437,4.437,0,1,1,8.22-3.167l13.6,35.29A4.714,4.714,0,0,1,301.159,263.652Z" fill="#03cc6c"/><path d="M165.289,206.108l5.592,68.52,82.282,47.505,12.991-57.506Zm32.48,67.448a4.713,4.713,0,0,1-5.9-3.054l-13.6-35.29a4.436,4.436,0,1,1,8.219-3.167l13.6,35.29A4.712,4.712,0,0,1,197.769,273.556Zm25.691,12.088a4.712,4.712,0,0,1-5.9-3.054l-13.6-35.29a4.436,4.436,0,1,1,8.219-3.167l13.6,35.29A4.712,4.712,0,0,1,223.46,285.644Zm25.692,12.088a4.713,4.713,0,0,1-5.9-3.055l-13.6-35.289a4.436,4.436,0,1,1,8.219-3.167l13.6,35.29A4.713,4.713,0,0,1,249.152,297.732Z" fill="#049e51"/><path d="M266.154,264.627l56.3-32.5L309.461,289.63l-56.3,32.5Z" fill="#27debf"/><path d="M266.154,264.627l56.3-32.5L309.461,289.63l-56.3,32.5Z" fill="#00773b"/></g><g transform="translate(556 1679)"><path d="M286.428,140.476l-6.5,3.814.022-19.687-3.939-2.274-17.838,10.3-.03,24.288-10.4,5.9,23.286,15.092,19.342-35.156Z" fill="#37474f"/><path d="M262.111,134.9l-.03,24.287-10.4,5.9,19.348,12.818,19.342-35.156-10.448,6.14.03-24.287Z" fill="#455a64"/><path d="M258.172,132.629l3.938,2.274-.03,24.287-3.938-2.274Z" fill="#263238"/></g></g></svg>