<svg xmlns="http://www.w3.org/2000/svg" xmlns:xlink="http://www.w3.org/1999/xlink" width="115" height="77" viewBox="0 0 115 77"><defs><filter id="a" x="0" y="0" width="115" height="77" filterUnits="userSpaceOnUse"><feOffset dy="3" input="SourceAlpha"/><feGaussianBlur stdDeviation="3" result="b"/><feFlood flood-color="#8a8a8a" flood-opacity="0.239"/><feComposite operator="in" in2="b"/><feComposite in="SourceGraphic"/></filter></defs><g transform="translate(8.631 5.88)"><g transform="matrix(1, 0, 0, 1, -8.63, -5.88)" filter="url(#a)"><rect width="97" height="59" rx="5" transform="translate(9 6)" fill="#fff"/></g><g transform="translate(24.225 10.635)"><g transform="translate(0 0)"><g transform="translate(2.453 31.751)"><path d="M-140.9-16.524v.1h.09a.094.094,0,0,0,.049-.012.043.043,0,0,0,.018-.037.041.041,0,0,0-.018-.036.086.086,0,0,0-.049-.012Zm.091-.068a.167.167,0,0,1,.108.031.1.1,0,0,1,.038.085.1.1,0,0,1-.03.075.148.148,0,0,1-.086.036l.119.137h-.093l-.111-.136h-.036v.136h-.078v-.365Zm-.024.491a.288.288,0,0,0,.118-.025.311.311,0,0,0,.1-.065.3.3,0,0,0,.065-.1.312.312,0,0,0,.024-.119.312.312,0,0,0-.024-.119.315.315,0,0,0-.065-.1.311.311,0,0,0-.1-.065.3.3,0,0,0-.118-.023.316.316,0,0,0-.12.023.308.308,0,0,0-.1.065.3.3,0,0,0-.064.1.3.3,0,0,0-.024.119.3.3,0,0,0,.024.119.288.288,0,0,0,.064.1.308.308,0,0,0,.1.065.3.3,0,0,0,.12.025m0-.7a.394.394,0,0,1,.156.031.4.4,0,0,1,.127.084.386.386,0,0,1,.085.125.376.376,0,0,1,.031.153.376.376,0,0,1-.031.153.407.407,0,0,1-.085.125.431.431,0,0,1-.127.084.394.394,0,0,1-.156.031.4.4,0,0,1-.158-.031.412.412,0,0,1-.128-.084.407.407,0,0,1-.085-.125.375.375,0,0,1-.031-.153.375.375,0,0,1,.031-.153.386.386,0,0,1,.085-.125A.381.381,0,0,1-141-16.77a.4.4,0,0,1,.158-.031m-36.918-1.405a1.188,1.188,0,0,1,1.2-1.267,1.187,1.187,0,0,1,1.192,1.267,1.187,1.187,0,0,1-1.192,1.267,1.188,1.188,0,0,1-1.2-1.267m3.2,0v-1.979h-.86v.48a1.5,1.5,0,0,0-1.25-.58,1.983,1.983,0,0,0-1.979,2.078,1.983,1.983,0,0,0,1.979,2.078,1.5,1.5,0,0,0,1.25-.58v.48h.86Zm29.075,0a1.188,1.188,0,0,1,1.2-1.267,1.186,1.186,0,0,1,1.192,1.267,1.186,1.186,0,0,1-1.192,1.267,1.188,1.188,0,0,1-1.2-1.267m3.2,0v-3.568h-.861V-19.7a1.5,1.5,0,0,0-1.25-.58,1.983,1.983,0,0,0-1.979,2.078,1.983,1.983,0,0,0,1.979,2.078,1.5,1.5,0,0,0,1.25-.58v.48h.861Zm-21.6-1.308a.983.983,0,0,1,1,.96h-2.053a1.019,1.019,0,0,1,1.052-.96m.017-.77a1.934,1.934,0,0,0-1.971,2.078,1.952,1.952,0,0,0,2.029,2.078,2.4,2.4,0,0,0,1.622-.554l-.422-.638a1.892,1.892,0,0,1-1.151.414,1.1,1.1,0,0,1-1.184-.969h2.938c.009-.107.017-.215.017-.331a1.9,1.9,0,0,0-1.879-2.078m10.389,2.078a1.188,1.188,0,0,1,1.2-1.267,1.186,1.186,0,0,1,1.192,1.267,1.186,1.186,0,0,1-1.192,1.267,1.188,1.188,0,0,1-1.2-1.267m3.2,0v-1.979h-.86v.48a1.5,1.5,0,0,0-1.25-.58,1.983,1.983,0,0,0-1.979,2.078,1.983,1.983,0,0,0,1.979,2.078,1.5,1.5,0,0,0,1.25-.58v.48h.86Zm-8.063,0a2,2,0,0,0,2.111,2.078,2.072,2.072,0,0,0,1.423-.472l-.413-.7a1.739,1.739,0,0,1-1.036.356,1.182,1.182,0,0,1-1.192-1.267,1.182,1.182,0,0,1,1.192-1.267,1.739,1.739,0,0,1,1.036.356l.413-.7a2.072,2.072,0,0,0-1.423-.472,2,2,0,0,0-2.111,2.078m11.093-2.078a1.168,1.168,0,0,0-1.043.58v-.48h-.853v3.957h.861v-2.218c0-.655.281-1.019.844-1.019a1.4,1.4,0,0,1,.538.1l.265-.811a1.832,1.832,0,0,0-.613-.108m-23.065.414a2.96,2.96,0,0,0-1.614-.414c-1,0-1.648.48-1.648,1.267,0,.645.48,1.043,1.365,1.167l.407.058c.472.066.695.19.695.414,0,.306-.315.48-.9.48a2.107,2.107,0,0,1-1.316-.414l-.406.67a2.855,2.855,0,0,0,1.713.514c1.143,0,1.805-.538,1.805-1.292,0-.7-.521-1.059-1.382-1.184l-.406-.059c-.372-.049-.671-.123-.671-.389,0-.29.281-.463.753-.463a2.553,2.553,0,0,1,1.234.339Zm11.1-.414a1.165,1.165,0,0,0-1.042.58v-.48h-.853v3.957h.86v-2.218c0-.655.281-1.019.844-1.019a1.4,1.4,0,0,1,.538.1l.265-.811a1.832,1.832,0,0,0-.613-.108m-7.343.1h-1.407v-1.2h-.87v1.2h-.8v.786h.8v1.805c0,.918.356,1.465,1.374,1.465a2.02,2.02,0,0,0,1.076-.306l-.248-.737a1.593,1.593,0,0,1-.762.224c-.43,0-.57-.265-.57-.662V-19.4h1.407ZM-179.4-16.228v-2.484a1.473,1.473,0,0,0-1.557-1.573,1.532,1.532,0,0,0-1.391.7,1.452,1.452,0,0,0-1.308-.7,1.309,1.309,0,0,0-1.159.587v-.488h-.861v3.957h.869v-2.194a.926.926,0,0,1,.969-1.052c.571,0,.86.372.86,1.043v2.2h.87v-2.194a.933.933,0,0,1,.968-1.052c.587,0,.869.372.869,1.043v2.2Z" transform="translate(185.679 21.774)" fill="#231f20"/></g><g transform="translate(46.502 23.559)"><path d="M-3.951-1.819V-2.4H-4.1l-.174.4-.173-.4H-4.6v.578h.107v-.436l.163.376h.111l.163-.377v.437Zm-.956,0V-2.3h.193v-.1h-.493v.1h.193v.479Z" transform="translate(5.207 2.397)" fill="#f79410"/></g><path d="M3356.044,2171.007H3343v-23.436h13.04Z" transform="translate(-3325.418 -2144.383)" fill="#ff5f00"/><g transform="translate(0 0)"><path d="M-57.971-46.9a14.879,14.879,0,0,1,5.692-11.718,14.839,14.839,0,0,0-9.21-3.187,14.9,14.9,0,0,0-14.9,14.9A14.9,14.9,0,0,0-61.489-32a14.839,14.839,0,0,0,9.21-3.187A14.879,14.879,0,0,1-57.971-46.9" transform="translate(76.392 61.809)" fill="#eb001b"/></g><g transform="translate(24.099 0)"><path d="M-75.887-46.9A14.9,14.9,0,0,1-90.79-32,14.844,14.844,0,0,1-100-35.187,14.877,14.877,0,0,0-94.308-46.9,14.877,14.877,0,0,0-100-58.622a14.843,14.843,0,0,1,9.211-3.187,14.9,14.9,0,0,1,14.9,14.9" transform="translate(100.001 61.809)" fill="#f79e1b"/></g></g></g></g></svg>