<svg xmlns="http://www.w3.org/2000/svg" xmlns:xlink="http://www.w3.org/1999/xlink" width="116" height="77" viewBox="0 0 116 77"><defs><filter id="a" x="0" y="0" width="116" height="77" filterUnits="userSpaceOnUse"><feOffset dy="3" input="SourceAlpha"/><feGaussianBlur stdDeviation="3" result="b"/><feFlood flood-color="#8a8a8a" flood-opacity="0.239"/><feComposite operator="in" in2="b"/><feComposite in="SourceGraphic"/></filter></defs><g transform="translate(9.21 5.88)"><g transform="matrix(1, 0, 0, 1, -9.21, -5.88)" filter="url(#a)"><rect width="98" height="59" rx="5" transform="translate(9 6)" fill="#fff"/></g><g transform="translate(13.576 18.236)"><path d="M439.2,132.737h-5.691l3.56-22.01h5.691Z" transform="translate(-408.755 -110.328)" fill="#00579f"/><path d="M582.25,105.985a14.024,14.024,0,0,0-5.1-.937c-5.62,0-9.578,3-9.6,7.282-.047,3.161,2.834,4.917,4.988,5.971,2.2,1.077,2.95,1.78,2.95,2.74-.022,1.474-1.779,2.154-3.418,2.154a11.327,11.327,0,0,1-5.34-1.171l-.749-.352-.8,4.941a17.32,17.32,0,0,0,6.347,1.171c5.971,0,9.859-2.951,9.905-7.517.023-2.506-1.5-4.425-4.777-5.994-1.99-1.007-3.209-1.686-3.209-2.717.023-.937,1.031-1.9,3.278-1.9a9.669,9.669,0,0,1,4.239.843l.515.234.774-4.753Z" transform="translate(-531.177 -105.048)" fill="#00579f"/><path d="M799.327,124.939c.469-1.264,2.272-6.158,2.272-6.158-.024.047.468-1.288.749-2.107l.4,1.9s1.078,5.268,1.312,6.369Zm7.025-14.212h-4.4a2.808,2.808,0,0,0-2.975,1.826l-8.453,20.183h5.971l1.194-3.3h7.307c.163.773.679,3.3.679,3.3h5.269l-4.591-22.009h0Z" transform="translate(-740.69 -110.328)" fill="#00579f"/><path d="M179.886,110.727l-5.573,15.008-.609-3.044a16.846,16.846,0,0,0-7.868-9.226l5.105,19.247h6.018l8.945-21.986Z" transform="translate(-159.887 -110.328)" fill="#00579f"/><path d="M90.416,110.727H81.259l-.094.445C88.308,113,93.039,117.4,94.982,122.692l-1.99-10.115a2.355,2.355,0,0,0-2.576-1.85Z" transform="translate(-81.166 -110.328)" fill="#faa61a"/></g></g></svg>