<svg xmlns="http://www.w3.org/2000/svg" width="49.114" height="35.649" viewBox="0 0 49.114 35.649"><g transform="translate(-309.394 -787)"><path d="M105.166,75.68l13.47,14.895a2.644,2.644,0,0,0,2.61.8l16.618-4V67l-32.125,6.948a1.073,1.073,0,0,0-.779.707A1.058,1.058,0,0,0,105.166,75.68Z" transform="translate(204.488 731.196)" fill="#00b55b"/><path d="M124.49,67V87.376l15.524-3.715a.788.788,0,0,0,.59-.556.778.778,0,0,0-.219-.776Z" transform="translate(217.876 731.196)" fill="#02c865"/><ellipse cx="3.974" cy="3.932" rx="3.974" ry="3.932" transform="translate(341.54 787)" fill="#00b55b"/></g></svg>