<svg xmlns="http://www.w3.org/2000/svg" width="63" height="38" viewBox="0 0 63 38"><g fill="#fff" stroke="#ececec" stroke-width="1"><rect width="63" height="38" rx="3" stroke="none"/><rect x="0.5" y="0.5" width="62" height="37" rx="2.5" fill="none"/></g><g transform="translate(8.945 8.848)"><path d="M180.262,55.651,170.62,54.14l1.278,5.746Z" transform="translate(-139.597 -44.296)" fill="#d12053"/><path d="M180.27,17.025,173,6.93l-2.375,8.586Z" transform="translate(-139.605 -5.67)" fill="#e2136e"/><path d="M135.133,9.729,127.52,0l9.969,1.191Z" transform="translate(-104.334)" fill="#d12053"/><path d="M131.3,13.224,127.07,9.24h1.113Z" transform="translate(-103.965 -7.56)" fill="#9e1638"/><path d="M213.859,35.46l-1.789,4.853-2.9-4.011Z" transform="translate(-171.138 -29.012)" fill="#d12053"/><path d="M183.84,67.417l7.02-2.82.295-.9Z" transform="translate(-150.413 -52.118)" fill="#e2136e"/><path d="M152.96,65.94l3.007-10.549,1.526,6.864Z" transform="translate(-125.148 -45.319)" fill="#9e1638"/><path d="M43,35.67l-.738,2,2.662-.044Zm-43,.8c.129.011.26.035.4.035s.251-.024.4-.035v4.267a1.994,1.994,0,0,1,1.727-1.186c1.407,0,2.011,1.393,2.011,2.673,0,1.533-.818,3-2.253,3a1.575,1.575,0,0,1-1.413-.813c-.24.211-.453.464-.68.693H.007ZM.778,42.75c0,1.244.527,2.111,1.395,2.111,1.125,0,1.487-1.513,1.487-2.586,0-1.246-.411-2.226-1.386-2.236-1.138-.009-1.5,1.338-1.5,2.713Z" transform="translate(0 -29.184)" fill="#e2136e"/><path d="M33.283,42.834l-.847,1.091c.8,1.164,1.622,2.3,2.422,3.482l.807,1.273v.064c-.2-.013-.378-.038-.545-.038s-.378.025-.556.038c-.22-.407-.438-.784-.687-1.153l-2.182-3.227c-.049-.051-.167-.091-.167-.038v4.418c-.16-.013-.3-.038-.438-.038s-.3.025-.438.038V40.074c.14.011.291.038.438.038s.278-.027.438-.038v3.913c0,.076.149.025.247-.076a6.747,6.747,0,0,0,.531-.622l2.453-3.218c.129.011.258.038.4.038s.247-.027.389-.038Zm6.6,4.933c0,.451-.029.68.558.531v.253a1.612,1.612,0,0,1-.3.115c-.518.1-.947.011-1.027-.667l-.089.1a1.849,1.849,0,0,1-1.476.727,1.338,1.338,0,0,1-1.324-1.409c0-1.315.909-1.487,1.842-1.66.789-.149,1.058-.218,1.058-.773,0-.855-.418-1.349-1.166-1.349a1.246,1.246,0,0,0-1.185.795h-.109v-.64a2.582,2.582,0,0,1,1.613-.633c1.045,0,1.615.633,1.615,1.936Zm-.8-1.9-.351.08c-.678.149-1.695.264-1.695,1.316,0,.727.364,1.091.975,1.091a1.242,1.242,0,0,0,.807-.444c.073-.084.273-.28.273-.364Zm2.573,1.751a1.452,1.452,0,0,0,1.146.858,1.031,1.031,0,0,0,.978-1.051c0-1.556-2.355-.545-2.355-2.56a1.57,1.57,0,0,1,1.624-1.7,2.1,2.1,0,0,1,1.127.3,5.962,5.962,0,0,0-.236.818h-.091A1.06,1.06,0,0,0,43,43.512a.883.883,0,0,0-.909.96c0,1.475,2.355.689,2.355,2.535a1.763,1.763,0,0,1-1.836,1.818,2.315,2.315,0,0,1-1.244-.364,6.259,6.259,0,0,0,.209-.845Zm4.133-7.54c.133.011.262.035.4.035s.251-.024.4-.035v4.2A1.772,1.772,0,0,1,48.2,43.156c1.156,0,1.606.793,1.606,2.247v3.34c-.151-.013-.267-.035-.4-.035s-.269.024-.4.035V45.667c0-1.273-.256-1.915-1.105-1.915-.9,0-1.306.647-1.306,1.846v3.146c-.149-.013-.267-.035-.4-.035s-.265.024-.4.035Z" transform="translate(-25.077 -32.784)" fill="#231f20"/></g></svg>