<svg xmlns="http://www.w3.org/2000/svg" width="21" height="20" viewBox="0 0 21 20"><g transform="translate(0 -0.275)"><g transform="translate(0 0.65)"><path d="M179.7,55.563,170.62,54.14l1.2,5.412Z" transform="translate(-163.162 -44.868)" fill="#d12053"/><path d="M179.71,16.438,172.867,6.93l-2.237,8.087Z" transform="translate(-163.17 -5.743)" fill="#e2136e"/><path d="M134.69,9.164,127.52,0l9.39,1.122Z" transform="translate(-127.443 0)" fill="#d12053"/><path d="M131.052,12.992,127.07,9.24h1.048Z" transform="translate(-127.07 -7.658)" fill="#9e1638"/><path d="M213.587,35.46,211.9,40.031l-2.732-3.778Z" transform="translate(-195.11 -29.387)" fill="#d12053"/><path d="M183.84,67.2l6.612-2.656.277-.844Z" transform="translate(-174.118 -52.791)" fill="#e2136e"/><path d="M152.96,65.326l2.833-9.936,1.437,6.465Z" transform="translate(-148.526 -45.904)" fill="#9e1638"/><path d="M1544.973,392.5l-.708,1.89,2.514-.05Z" transform="translate(-1526.227 -386.395)" fill="#e2136e"/></g><rect width="21" height="20" transform="translate(0 0.275)" fill="none"/></g></svg>