<svg xmlns="http://www.w3.org/2000/svg" width="29" height="37" viewBox="0 0 29 37"><g transform="translate(-0.178)"><g transform="translate(0)"><path d="M27.161,37a1.83,1.83,0,0,1-.934-.26L14.482,30.746,2.719,36.74a1.908,1.908,0,0,1-.889.24A1.861,1.861,0,0,1,0,35.093V7.011A6.177,6.177,0,0,1,2.605,1.619,10.981,10.981,0,0,1,8.88,0H20.064a11.028,11.028,0,0,1,6.289,1.619A6.26,6.26,0,0,1,29,7.011V35.093a1.953,1.953,0,0,1-.219.906,1.876,1.876,0,0,1-1.122.926A1.659,1.659,0,0,1,27.161,37ZM7.649,11.173a1.463,1.463,0,0,0,0,2.924H21.3a1.463,1.463,0,0,0,0-2.924Z" transform="translate(0.179 0)" fill="#157aff"/></g></g></svg>