<svg xmlns="http://www.w3.org/2000/svg" width="34" height="34" viewBox="0 0 34 34">
  <g id="Group_17909" data-name="Group 17909" transform="translate(-9447 18742)">
    <g id="Group_17908" data-name="Group 17908" transform="translate(9449 -18735)">
      <path id="Path_93" data-name="Path 93" d="M33.706,5.754a.619.619,0,0,1-.228-.027l-9.4-3.067a.736.736,0,0,1-.482-.683V-10.356a.713.713,0,0,1,.48-.682l9.4-3.068a.764.764,0,0,1,.241-.044.556.556,0,0,1,.21.042l9.4,3.069a.736.736,0,0,1,.482.683v12.3a.713.713,0,0,1-.48.682l-9.4,3.1A.618.618,0,0,1,33.706,5.754Zm.711-12.533V4.08l3.293-1.064V-1.09a.68.68,0,0,1,.678-.71.7.7,0,0,1,.711.71V2.53l3.293-1.064V-9.392Zm-9.4,8.244,7.863,2.577h.144V-6.778L29.735-7.842V-2.22a.7.7,0,0,1-.711.71.7.7,0,0,1-.71-.71V-8.328L25.021-9.392Zm7.752-12.314a.722.722,0,0,1,.681.462.7.7,0,0,1-.428.908l-1.817.643,2.5.808,7.124-2.329-7.124-2.329-7.124,2.329,2.476.813,3.486-1.271A.8.8,0,0,1,32.772-10.848Z" transform="translate(-13.333 14.15)" fill="#2b2b2b"/>
      <path id="Path_94" data-name="Path 94" d="M-7.49,2.021a.7.7,0,0,1-.71-.71A.7.7,0,0,1-7.49.6h5.715a.745.745,0,0,1,.711.717.7.7,0,0,1-.711.7Z" transform="translate(8.2 4.162)" fill="#2b2b2b"/>
      <path id="Path_95" data-name="Path 95" d="M-7.49,15.921a.7.7,0,0,1-.71-.71.7.7,0,0,1,.71-.71h5.715a.72.72,0,0,1,.71.71.7.7,0,0,1-.71.71Z" transform="translate(8.2 -5.25)" fill="#2b2b2b"/>
      <path id="Path_96" data-name="Path 96" d="M-7.49,29.821a.7.7,0,0,1-.71-.71.7.7,0,0,1,.71-.711h5.715a.72.72,0,0,1,.71.711.7.7,0,0,1-.71.71Z" transform="translate(8.2 -14.662)" fill="#2b2b2b"/>
    </g>
    <rect id="Rectangle_2392" data-name="Rectangle 2392" width="34" height="34" transform="translate(9447 -18742)" fill="none"/>
  </g>
</svg>
