<svg xmlns="http://www.w3.org/2000/svg" width="40.816" height="40.564" viewBox="0 0 40.816 40.564"><g transform="translate(0)"><path d="M39.664,1.181A3.958,3.958,0,0,0,35.724.16L2.873,9.652A3.907,3.907,0,0,0,.05,12.737,4.563,4.563,0,0,0,2.1,17l10.272,6.272a2.671,2.671,0,0,0,3.285-.39L27.414,11.124a1.5,1.5,0,0,1,2.164,0,1.54,1.54,0,0,1,0,2.164L17.8,25.05a2.675,2.675,0,0,0-.394,3.285l6.276,10.31a4.087,4.087,0,0,0,3.9,1.9,3.969,3.969,0,0,0,3.328-2.817l9.739-32.6a3.967,3.967,0,0,0-.98-3.94" fill="#f60"/><path d="M9.727,15.569a1.532,1.532,0,0,1,0-2.165l2.787-2.789a1.532,1.532,0,0,1,2.166,2.166l-2.789,2.787a1.53,1.53,0,0,1-2.165,0Zm-1.6-7.734a1.532,1.532,0,0,1,0-2.165l2.787-2.789a1.532,1.532,0,0,1,2.166,2.166L10.291,7.835a1.53,1.53,0,0,1-2.165,0ZM.448,5.4a1.532,1.532,0,0,1,0-2.165L3.235.447A1.532,1.532,0,1,1,5.4,2.613L2.612,5.4a1.53,1.53,0,0,1-2.165,0Z" transform="translate(0.533 24.383)" fill="#f60" opacity="0.4"/></g></svg>