<svg xmlns="http://www.w3.org/2000/svg" width="40.834" height="36.75" viewBox="0 0 40.834 36.75"><g transform="translate(0)"><path d="M29.639,36.75H11.2a11.5,11.5,0,0,1-8.237-2.885A10.886,10.886,0,0,1,0,25.835V10.9A10.861,10.861,0,0,1,2.959,2.877,11.517,11.517,0,0,1,11.2,0H29.632a11.514,11.514,0,0,1,8.236,2.877A10.863,10.863,0,0,1,40.826,10.9v.075H32.18a7.228,7.228,0,0,0-7.289,7.109,6.985,6.985,0,0,0,2.131,5.036,7.34,7.34,0,0,0,5.159,2.091h8.653v.625a10.887,10.887,0,0,1-2.958,8.03A11.5,11.5,0,0,1,29.639,36.75ZM9.676,7.91A1.549,1.549,0,0,0,8.122,9.43a1.493,1.493,0,0,0,.453,1.078,1.571,1.571,0,0,0,1.1.451H21.214a1.57,1.57,0,0,0,1.1-.451,1.5,1.5,0,0,0,.453-1.08A1.549,1.549,0,0,0,21.2,7.91Z" fill="#515151"/><path d="M.076,4.893A4.12,4.12,0,0,0,4.15,8.166h6.635a1.481,1.481,0,0,0,1.465-1.5V1.5A1.486,1.486,0,0,0,10.785,0H3.994A4.052,4.052,0,0,0,0,4.1a4.147,4.147,0,0,0,.076.789" transform="translate(28.583 14.088)" fill="#515151" opacity="0.4"/><circle cx="2.042" cy="2.042" r="2.042" transform="translate(30.625 16.129)" fill="#515151"/></g></svg>