<svg xmlns="http://www.w3.org/2000/svg" width="40.834" height="38.792" viewBox="0 0 40.834 38.792"><path d="M19.915,38.46A74.027,74.027,0,0,1,6.995,28.338,25.864,25.864,0,0,1,.807,18.529C-1.515,11.3,1.188,3.041,8.737.589a12.826,12.826,0,0,1,11.65,2.065h0A12.844,12.844,0,0,1,32.036.589c7.549,2.452,10.271,10.712,7.948,17.94a25.867,25.867,0,0,1-6.151,9.809A74.7,74.7,0,0,1,20.913,38.46l-.508.332Z" transform="translate(0.045 0)" fill="#f20045" opacity="0.8"/><path d="M20.439,38.791l-.48-.332A74.152,74.152,0,0,1,7.021,28.337,25.861,25.861,0,0,1,.8,18.528C-1.507,11.3,1.2,3.04,8.745.588A12.855,12.855,0,0,1,20.439,2.675Z" transform="translate(0 0.001)" fill="#f20045"/><path d="M4.554,8.165h0A1.467,1.467,0,0,1,3.5,7.6a1.67,1.67,0,0,1-.341-1.207h0a3.362,3.362,0,0,0-2.03-3.247A1.608,1.608,0,0,1,.045,1.21,1.48,1.48,0,0,1,1.809.039a.783.783,0,0,1,.283.106A6.526,6.526,0,0,1,6.118,6.586,1.648,1.648,0,0,1,5.65,7.729,1.445,1.445,0,0,1,4.554,8.165Z" transform="translate(28.583 6.125)" fill="#fff"/></svg>