<svg xmlns="http://www.w3.org/2000/svg" width="36.533" height="36.479" viewBox="0 0 36.533 36.479"><path d="M18.3,0A18.265,18.265,0,0,0,0,18.266a19.289,19.289,0,0,0,2.466,9.115,1.91,1.91,0,0,1,.128,1.644L1.37,33.117a1.14,1.14,0,0,0,1.5,1.425l3.69-1.1a3.113,3.113,0,0,1,2.724.658A18.242,18.242,0,1,0,18.3,0" fill="#00c663"/><path d="M16.843,2.338A2.338,2.338,0,1,1,19.18,4.677,2.33,2.33,0,0,1,16.843,2.338ZM8.422,2.32A2.338,2.338,0,1,1,10.76,4.677,2.36,2.36,0,0,1,8.422,2.32ZM0,2.338a2.338,2.338,0,0,1,4.675,0A2.356,2.356,0,0,1,2.338,4.677,2.355,2.355,0,0,1,0,2.338Z" transform="translate(7.471 15.946)" fill="#fff"/></svg>