<svg xmlns="http://www.w3.org/2000/svg" xmlns:xlink="http://www.w3.org/1999/xlink" width="37" height="37" viewBox="0 0 37 37"><defs><linearGradient id="a" x1="0.31" y1="0.202" x2="0.75" y2="1.1" gradientUnits="objectBoundingBox"><stop offset="0" stop-color="#00b55b"/><stop offset="1" stop-color="#5cff00"/></linearGradient><filter id="b" x="0" y="0" width="37" height="37" filterUnits="userSpaceOnUse"><feOffset input="SourceAlpha"/><feGaussianBlur stdDeviation="1.5" result="c"/><feFlood flood-color="#99f9c9" flood-opacity="0.4"/><feComposite operator="in" in2="c"/><feComposite in="SourceGraphic"/></filter></defs><g transform="translate(4.5 4.5)"><g transform="matrix(1, 0, 0, 1, -4.5, -4.5)" filter="url(#b)"><circle cx="14" cy="14" r="14" transform="translate(4.5 4.5)" fill="url(#a)"/></g><g transform="translate(6.198 5.826)"><path d="M0,0H15.94V15.94H0Z" fill="none"/><path d="M13.955,11.963h1.328v1.328H2V11.963H3.328V7.313a5.313,5.313,0,1,1,10.627,0Zm-1.328,0V7.313a3.985,3.985,0,1,0-7.97,0v4.649ZM6.649,14.619h3.985v1.328H6.649Z" transform="translate(-0.672 -0.672)" fill="#fff"/></g></g></svg>