<svg xmlns="http://www.w3.org/2000/svg" xmlns:xlink="http://www.w3.org/1999/xlink" width="42" height="42" viewBox="0 0 42 42"><defs><linearGradient id="a" x1="0.386" y1="0.106" x2="0.806" y2="1.063" gradientUnits="objectBoundingBox"><stop offset="0" stop-color="#00c663"/><stop offset="1" stop-color="#17de7b"/></linearGradient><filter id="b" x="0" y="0" width="42" height="42" filterUnits="userSpaceOnUse"><feOffset input="SourceAlpha"/><feGaussianBlur stdDeviation="3" result="c"/><feFlood flood-color="#00c663" flood-opacity="0.322"/><feComposite operator="in" in2="c"/><feComposite in="SourceGraphic"/></filter></defs><g transform="translate(-18 -797)"><g transform="matrix(1, 0, 0, 1, 18, 797)" filter="url(#b)"><circle cx="12" cy="12" r="12" transform="translate(9 9)" fill="url(#a)"/></g><path d="M9.741,6.525H5.9L9.216.694A.464.464,0,0,0,8.814,0H3.247a.463.463,0,0,0-.44.317L.023,8.7a.463.463,0,0,0,.44.611H4.4L1.893,15.188a.464.464,0,0,0,.773.491L10.088,7.3a.464.464,0,0,0-.347-.772Zm0,0" transform="translate(34.128 810.481)" fill="#fff"/></g></svg>