<svg xmlns="http://www.w3.org/2000/svg" width="152.756" height="130.071" viewBox="0 0 152.756 130.071"><g transform="matrix(0.996, -0.087, 0.087, 0.996, -466.642, -1036.441)"><path d="M133.46-333.568c-2.161,5.945-8.956,8.812-15.222,9.678s-12.832.455-18.688,2.846c-8.4,3.427-13.825,12.562-13.72,21.629s5.3,17.7,12.758,22.864,16.923,7.007,25.938,6.032a151.989,151.989,0,0,0,44.35-2.21c7.34,2.659,17.279,1.3,22.543-4.469a20.371,20.371,0,0,0,3.315-21.84c-3.322-7.082-10.365-11.491-16.453-16.4s-11.912-11.78-11.059-19.556" transform="translate(299.797 1445.62)" fill="#252525"/><path d="M149.886-288.532l2.566,12.25,30.786-.665-3.285-9.554-1.689-22.135-20.67-14.731Z" transform="translate(277.329 1441.542)" fill="#ffb78f"/><path d="M174.57-303.289a25.962,25.962,0,0,0,13.458,15.08l-1.057-13.829-6.164-4.419c-2.091,1.059-4.1,2.106-6.237,3.168" transform="translate(268.671 1435.61)" fill="#252525"/><path d="M193.139-326.011c-12.629,11.587-25.39-1.01-25.39-1.01L157.96-351.26l-.518-1.3s0-.025,0-.075,0-.1,0-.171c0-.125,0-.3.013-.51.008-.361.032-.84.069-1.413.032-.439.077-.937.143-1.479,0-.018,0-.034.006-.051l.021-.184c.075-.619.172-1.3.3-2.019a29.347,29.347,0,0,1,5.212-12.677c3.325-4.339,8.556-7.8,16.8-8.043a2.179,2.179,0,0,1,.268-.006l.18,0a14.037,14.037,0,0,1,2.609.2c.35.058.688.129,1.021.214a.324.324,0,0,1,.058.018c.173.04.342.086.514.135.334.1.662.2.982.325,0,0,.006,0,.01,0A13.986,13.986,0,0,1,187-377.7c4.134,2.075,7.271,6.156,9.424,11.189q.253.59.488,1.2c.228.573.441,1.16.638,1.758l.06.185c.072.218.143.438.208.662.027.085.051.172.077.258s.064.2.092.3q.234.808.443,1.632c.119.473.234.951.34,1.432,2.76,12.444.838,27.138-5.635,33.079" transform="translate(274.679 1461.122)" fill="#ffb78f"/><path d="M202.476-325.071l-.032-1.461a1.386,1.386,0,0,0,1.021-.473,1.387,1.387,0,0,0,.345-1.071l-.991-9.784,1.454-.147.99,9.784a2.872,2.872,0,0,1-.7,2.185,2.873,2.873,0,0,1-2.083.966" transform="translate(258.895 1446.676)" fill="#252525"/><path d="M191.869-336.916c.016.744-.4,1.356-.933,1.367s-.975-.582-.991-1.326.4-1.356.933-1.368.975.582.991,1.326" transform="translate(263.279 1446.759)" fill="#252525"/><path d="M214.394-337.4c.016.744-.4,1.356-.933,1.368s-.975-.582-.991-1.326.4-1.356.934-1.367.975.582.991,1.326" transform="translate(255.379 1446.929)" fill="#252525"/><path d="M196.38-314.808a3.508,3.508,0,0,1-2.532-1.261,3.509,3.509,0,0,1-.745-2.729l1.444.227a2.026,2.026,0,0,0,.429,1.576,2.028,2.028,0,0,0,1.463.728Z" transform="translate(262.184 1439.939)" fill="#252525"/><path d="M186.7-346.05a4.052,4.052,0,0,0-1.152.474c-.325.219-.551.531-.488.813.1.466.879.642,1.568.683a12.387,12.387,0,0,0,4.478-.58c.507-.165,1.053-.406,1.205-.771.353-.847-1.206-1.07-1.839-1.095a12.645,12.645,0,0,0-3.772.476" transform="translate(264.997 1449.667)" fill="#252525"/><path d="M210.4-346.964a3.309,3.309,0,0,0-1.05.256.76.76,0,0,0-.512.662c.037.436.691.713,1.284.853a10.351,10.351,0,0,0,3.947.148c.458-.073.958-.209,1.13-.516.4-.713-.928-1.149-1.476-1.267a10.564,10.564,0,0,0-3.322-.136" transform="translate(256.652 1449.843)" fill="#252525"/><path d="M200.307-221.446,68.55-233.161l.011-.027c.109-.236,8.806-18.346,15.846-29.311q.353-.55.7-1.074c2.148-3.244,4.1-5.72,5.556-6.682,5.653-3.739,30.992-1.661,30.992-1.661,19.123,18.379,29.757,3.127,29.757,3.127s1.663.288,4.215.8c1.157.233,2.5.512,3.947.833,7.487,1.655,17.912,4.4,21.3,7.442,3.519,3.163,10.508,17.988,15.074,28.228q.375.839.727,1.635c2.169,4.9,3.633,8.4,3.633,8.4" transform="translate(305.857 1423.697)" fill="#02c865"/><path d="M189.522-339.937a4.185,4.185,0,0,0-2.7.984,4.189,4.189,0,0,0-1.5,2.863,4.2,4.2,0,0,0,.967,3.082,4.2,4.2,0,0,0,2.863,1.5,4.194,4.194,0,0,0,3.082-.967,4.188,4.188,0,0,0,1.495-2.863,4.191,4.191,0,0,0-.966-3.082,4.194,4.194,0,0,0-2.863-1.5c-.127-.011-.255-.017-.381-.017m.017,9.9c-.169,0-.341-.007-.513-.023a5.644,5.644,0,0,1-3.853-2.013,5.644,5.644,0,0,1-1.3-4.149,5.645,5.645,0,0,1,2.013-3.854,5.647,5.647,0,0,1,4.149-1.3,5.642,5.642,0,0,1,3.854,2.013,5.644,5.644,0,0,1,1.3,4.149,5.644,5.644,0,0,1-2.014,3.854,5.64,5.64,0,0,1-3.636,1.324" transform="translate(265.416 1447.865)" fill="#fff"/><path d="M212.946-340.865a4.188,4.188,0,0,0-2.7.984,4.189,4.189,0,0,0-1.5,2.863,4.193,4.193,0,0,0,.966,3.081,4.2,4.2,0,0,0,2.864,1.5,4.189,4.189,0,0,0,3.081-.967,4.186,4.186,0,0,0,1.5-2.863,4.193,4.193,0,0,0-.967-3.082,4.194,4.194,0,0,0-2.863-1.5c-.127-.011-.255-.017-.381-.017m.017,9.9c-.17,0-.342-.008-.513-.023A5.641,5.641,0,0,1,208.6-333a5.642,5.642,0,0,1-1.3-4.148A5.644,5.644,0,0,1,209.308-341a5.644,5.644,0,0,1,4.149-1.3,5.643,5.643,0,0,1,3.854,2.013,5.642,5.642,0,0,1,1.3,4.148,5.644,5.644,0,0,1-2.013,3.854,5.637,5.637,0,0,1-3.636,1.324" transform="translate(257.202 1448.191)" fill="#fff"/><path d="M205.433-334.3l.04,1.458-5.31.144-.04-1.458Z" transform="translate(259.708 1445.376)" fill="#fff" fill-rule="evenodd"/><path d="M162.452-346.989l14.741,8.318-.718,1.273-14.741-8.318Z" transform="translate(273.174 1449.827)" fill="#fff" fill-rule="evenodd"/><path d="M196.555-366.51a13.958,13.958,0,0,1-7.748-3.327,13.987,13.987,0,0,1-4.312-7.32,26.169,26.169,0,0,1-8.1,14.367,26.177,26.177,0,0,1-18.589,6.533l.021-.184c.074-.619.172-1.3.3-2.019a29.339,29.339,0,0,1,5.212-12.677c3.325-4.339,8.556-7.8,16.8-8.043a2.182,2.182,0,0,1,.268-.007l.179,0a14.043,14.043,0,0,1,2.609.2c.35.058.687.129,1.02.213a.332.332,0,0,1,.059.019c.173.04.341.086.514.135.334.1.662.2.982.325,0,0,.006,0,.009,0a13.9,13.9,0,0,1,1.352.595c4.134,2.075,7.272,6.156,9.425,11.189" transform="translate(274.553 1461.121)" fill="#252525"/><path d="M160.341-342.783a4.884,4.884,0,0,0-4.5-2.033A6.9,6.9,0,0,0,151.4-342.4a8.948,8.948,0,0,0-.406,10.942,8.948,8.948,0,0,0,10.632,2.619" transform="translate(277.529 1449.072)" fill="#ffb78f"/><path d="M157.366-330.928a8.988,8.988,0,0,1,1.315-5.517l-2.292.107-.068-1.46,3.847-.179.571,1.225a7.485,7.485,0,0,0-1.919,5.687Z" transform="translate(275.073 1446.665)" fill="#252525"/><path d="M130.748-222.812l-62.2-5.53.01-.027c.109-.236,8.807-18.346,15.846-29.311.234-.367.469-.724.7-1.073A18.055,18.055,0,0,1,95.983-255.2c3.216,2.422,5.738,5.908,9.213,7.868,5.476,3.09,12.344,1.871,17.945,4.68,4.854,2.436,8.242,7.983,8.458,13.852a17.341,17.341,0,0,1-.852,5.983" transform="translate(305.857 1418.879)" fill="#00b55b"/><path d="M245.847-226.964a13.965,13.965,0,0,1-10.009,2.092,13.958,13.958,0,0,1-10.535-9.18c-.9-2.741-.911-5.68-1.305-8.536s-1.286-5.834-3.475-7.712c-1.456-1.246-3.327-1.874-4.984-2.837a13.9,13.9,0,0,1-6.485-8.845,13.382,13.382,0,0,1-.308-2.287c7.488,1.654,17.912,4.4,21.3,7.442,3.519,3.163,10.508,17.988,15.074,28.228.25.56.491,1.106.727,1.635" transform="translate(256.683 1420.813)" fill="#00b55b"/><path d="M66.66-202.784c.377,1.052,1.091,2.231,2.208,2.22a2,2,0,0,0,1.615-1.073,49.442,49.442,0,0,0,1.1-5.06,8.769,8.769,0,0,0,1.006,4.67,4.414,4.414,0,0,0,1.265,1.56,2.267,2.267,0,0,0,1.916.4,2.386,2.386,0,0,0,1.271-1.034,5.336,5.336,0,0,0,.663-1.534c.369-1.414.7-2.873,1.008-4.353a8.738,8.738,0,0,0,1.138,4.647,4.451,4.451,0,0,0,1.312,1.523,2.264,2.264,0,0,0,1.928.342,2.386,2.386,0,0,0,1.239-1.069,5.33,5.33,0,0,0,.617-1.553c.333-1.446.623-2.9.894-4.35a8.429,8.429,0,0,0,.278,3.114,2.935,2.935,0,0,0,2.249,2.054,2.929,2.929,0,0,0,2.576-1.312,8.383,8.383,0,0,0,1.137-2.793q.446-1.672.859-3.35L65.7-212.16a23.8,23.8,0,0,0,.957,9.376" transform="translate(306.907 1402.536)" fill="#ccc"/><path d="M93.983-233.553a9.115,9.115,0,0,0-4.321-3.82,25.207,25.207,0,0,0-18.31-1.663,24.265,24.265,0,0,0-8.477,4.461c-4.375,3.581-5.619,6.48-7.485,12.039l9.874.878a23.756,23.756,0,0,0,.958,9.377c.377,1.051,1.091,2.231,2.208,2.22a2,2,0,0,0,1.615-1.076,49.028,49.028,0,0,0,1.1-5.058,8.765,8.765,0,0,0,1.006,4.67,4.44,4.44,0,0,0,1.266,1.559,2.26,2.26,0,0,0,1.916.4A2.382,2.382,0,0,0,76.6-210.6a5.342,5.342,0,0,0,.661-1.533c.369-1.413.7-2.874,1.008-4.353a8.762,8.762,0,0,0,1.14,4.649,4.434,4.434,0,0,0,1.31,1.522,2.261,2.261,0,0,0,1.926.342,2.387,2.387,0,0,0,1.241-1.07A5.317,5.317,0,0,0,84.5-212.6c.335-1.447.623-2.9.895-4.349a8.461,8.461,0,0,0,.276,3.113,2.939,2.939,0,0,0,2.248,2.055,2.92,2.92,0,0,0,2.576-1.313,8.309,8.309,0,0,0,1.137-2.792q1.451-5.406,2.532-10.9c.443-2.254.818-4.7-.185-6.763" transform="translate(310.473 1412.314)" fill="#ffb78f"/><path d="M76.452-204.038v0m-.975,2.17-.014-1.461a1.266,1.266,0,0,0,.975-.686c.249-.649,1.2-5.61,2.828-14.747l1.438.256c-2.149,12.066-2.736,14.76-2.986,15.2a2.709,2.709,0,0,1-2.241,1.441" transform="translate(303.432 1404.851)" fill="#252525"/><path d="M86.2-201.386l-.417-1.4a1.658,1.658,0,0,0,.865-.729,4.57,4.57,0,0,0,.569-1.323c.564-2.154,1.036-4.471,1.493-6.711.486-2.381.989-4.843,1.607-7.154l1.411.377c-.607,2.269-1.106,4.709-1.587,7.069-.462,2.259-.938,4.6-1.511,6.788a6.037,6.037,0,0,1-.754,1.743,3.1,3.1,0,0,1-1.677,1.339" transform="translate(299.814 1404.831)" fill="#252525"/><path d="M97.475-201.851l-.457-1.387a1.659,1.659,0,0,0,.845-.754,4.6,4.6,0,0,0,.53-1.339c.5-2.163.9-4.38,1.294-6.524.417-2.291.847-4.659,1.4-6.993l1.421.338c-.544,2.3-.972,4.645-1.385,6.917-.393,2.161-.8,4.395-1.308,6.592a6.019,6.019,0,0,1-.7,1.764,3.1,3.1,0,0,1-1.638,1.387" transform="translate(295.871 1404.882)" fill="#252525"/><path d="M236.016-197.017a23.836,23.836,0,0,0,.964,9.332c.376,1.052,1.091,2.232,2.208,2.22a2,2,0,0,0,1.615-1.073,49.444,49.444,0,0,0,1.1-5.06,8.749,8.749,0,0,0,1.006,4.67,4.408,4.408,0,0,0,1.265,1.56,2.268,2.268,0,0,0,1.916.4A2.392,2.392,0,0,0,247.358-186a5.32,5.32,0,0,0,.662-1.533c.369-1.415.7-2.874,1.008-4.353a8.747,8.747,0,0,0,1.138,4.647,4.447,4.447,0,0,0,1.312,1.522,2.261,2.261,0,0,0,1.928.342,2.384,2.384,0,0,0,1.239-1.069,5.293,5.293,0,0,0,.617-1.552c.333-1.446.623-2.9.894-4.35a8.429,8.429,0,0,0,.278,3.114,2.935,2.935,0,0,0,2.248,2.054,2.929,2.929,0,0,0,2.576-1.312,8.369,8.369,0,0,0,1.137-2.793q.44-1.649.849-3.307Z" transform="translate(247.169 1397.225)" fill="#ccc"/><path d="M264.3-218.409a9.115,9.115,0,0,0-4.321-3.82,25.206,25.206,0,0,0-18.31-1.663,24.265,24.265,0,0,0-8.477,4.461c-4.375,3.581-5.619,6.48-7.485,12.039l9.874.878a23.77,23.77,0,0,0,.957,9.377c.377,1.051,1.092,2.231,2.209,2.22a2,2,0,0,0,1.615-1.076,48.921,48.921,0,0,0,1.095-5.058,8.764,8.764,0,0,0,1.007,4.67,4.442,4.442,0,0,0,1.266,1.559,2.26,2.26,0,0,0,1.917.4,2.385,2.385,0,0,0,1.271-1.034,5.353,5.353,0,0,0,.661-1.534c.369-1.413.7-2.874,1.008-4.353a8.755,8.755,0,0,0,1.139,4.649,4.439,4.439,0,0,0,1.31,1.522,2.263,2.263,0,0,0,1.927.342,2.387,2.387,0,0,0,1.241-1.07,5.307,5.307,0,0,0,.617-1.552c.335-1.447.622-2.9.895-4.349a8.473,8.473,0,0,0,.276,3.113,2.938,2.938,0,0,0,2.248,2.055,2.92,2.92,0,0,0,2.576-1.313,8.322,8.322,0,0,0,1.138-2.792q1.45-5.406,2.532-10.9c.443-2.254.818-4.7-.185-6.764" transform="translate(250.735 1407.002)" fill="#ffb78f"/><path d="M246.766-188.894h0Zm-.975,2.169-.014-1.461a1.265,1.265,0,0,0,.975-.686c.249-.65,1.2-5.61,2.828-14.747l1.438.256c-2.149,12.067-2.736,14.76-2.987,15.2a2.706,2.706,0,0,1-2.241,1.441" transform="translate(243.696 1399.54)" fill="#252525"/><path d="M256.509-186.243l-.417-1.4a1.655,1.655,0,0,0,.865-.728,4.581,4.581,0,0,0,.569-1.323c.564-2.154,1.037-4.471,1.494-6.711.486-2.381.989-4.843,1.608-7.154l1.411.377c-.607,2.269-1.106,4.709-1.587,7.068-.462,2.259-.938,4.6-1.512,6.789a6.031,6.031,0,0,1-.753,1.743,3.1,3.1,0,0,1-1.678,1.339" transform="translate(240.079 1399.52)" fill="#252525"/><path d="M267.788-186.708l-.456-1.388a1.664,1.664,0,0,0,.845-.754,4.576,4.576,0,0,0,.53-1.337c.5-2.165.9-4.382,1.294-6.527.417-2.29.847-4.658,1.4-6.991l1.422.337c-.545,2.3-.971,4.644-1.385,6.916-.393,2.161-.8,4.4-1.308,6.593a5.987,5.987,0,0,1-.7,1.764,3.1,3.1,0,0,1-1.638,1.387" transform="translate(236.136 1399.571)" fill="#252525"/><g transform="translate(457.643 1170.994) rotate(5)"><path d="M.084,2.793,4.418,7.586a.851.851,0,0,0,.84.257l5.348-1.287V0L.268,2.236a.345.345,0,0,0-.251.227A.34.34,0,0,0,.084,2.793Z" transform="translate(0 3.603)" fill="#fff"/><path d="M0,0V6.557l5-1.2a.253.253,0,0,0,.19-.179.25.25,0,0,0-.071-.25Z" transform="translate(10.61 3.603)" fill="#fff" opacity="0.74"/><ellipse cx="1.279" cy="1.265" rx="1.279" ry="1.265" transform="translate(10.344)" fill="#fff"/></g></g></svg>