<svg xmlns="http://www.w3.org/2000/svg" width="64" height="38" viewBox="0 0 64 38"><g transform="translate(0.261)"><g transform="translate(-0.261)" fill="#fff" stroke="#ececec" stroke-width="1"><rect width="64" height="38" rx="3" stroke="none"/><rect x="0.5" y="0.5" width="63" height="37" rx="2.5" fill="none"/></g><g transform="translate(15.792 6.933)"><g transform="translate(0 0)"><g transform="translate(1.599 20.697)"><path d="M-156.492-18.351v.064h.059a.061.061,0,0,0,.032-.008.028.028,0,0,0,.012-.024.027.027,0,0,0-.012-.023.056.056,0,0,0-.032-.008Zm.059-.044a.109.109,0,0,1,.07.02.068.068,0,0,1,.025.056.064.064,0,0,1-.02.049.1.1,0,0,1-.056.023l.078.09h-.061l-.072-.089h-.023v.089h-.051V-18.4Zm-.015.32a.188.188,0,0,0,.077-.016.2.2,0,0,0,.063-.043.2.2,0,0,0,.043-.064.2.2,0,0,0,.015-.078.2.2,0,0,0-.015-.078.206.206,0,0,0-.043-.064.2.2,0,0,0-.063-.043.2.2,0,0,0-.077-.015.206.206,0,0,0-.078.015.2.2,0,0,0-.064.043.194.194,0,0,0-.042.064.193.193,0,0,0-.015.078.193.193,0,0,0,.015.078.188.188,0,0,0,.042.064.2.2,0,0,0,.064.043.2.2,0,0,0,.078.016m0-.456a.257.257,0,0,1,.1.02.259.259,0,0,1,.083.055.252.252,0,0,1,.056.082.245.245,0,0,1,.02.1.245.245,0,0,1-.02.1.265.265,0,0,1-.056.082.281.281,0,0,1-.083.055.257.257,0,0,1-.1.02.261.261,0,0,1-.1-.02.269.269,0,0,1-.083-.055.265.265,0,0,1-.056-.082.245.245,0,0,1-.02-.1.245.245,0,0,1,.02-.1.252.252,0,0,1,.056-.082.249.249,0,0,1,.083-.055.261.261,0,0,1,.1-.02m-24.066-.916a.774.774,0,0,1,.783-.826.773.773,0,0,1,.777.826.773.773,0,0,1-.777.826.774.774,0,0,1-.783-.826m2.088,0v-1.29h-.561v.313a.978.978,0,0,0-.815-.378,1.293,1.293,0,0,0-1.29,1.355,1.293,1.293,0,0,0,1.29,1.355.978.978,0,0,0,.815-.378v.313h.561Zm18.953,0a.774.774,0,0,1,.783-.826.773.773,0,0,1,.777.826.773.773,0,0,1-.777.826.774.774,0,0,1-.783-.826m2.089,0v-2.326h-.561v1.349a.978.978,0,0,0-.815-.378,1.293,1.293,0,0,0-1.29,1.355,1.293,1.293,0,0,0,1.29,1.355.978.978,0,0,0,.815-.378v.313h.561Zm-14.08-.852a.641.641,0,0,1,.653.626h-1.339a.664.664,0,0,1,.686-.626m.011-.5a1.26,1.26,0,0,0-1.285,1.355,1.272,1.272,0,0,0,1.322,1.355,1.568,1.568,0,0,0,1.057-.361l-.275-.416a1.233,1.233,0,0,1-.75.27.716.716,0,0,1-.771-.632h1.915c.006-.07.011-.14.011-.216a1.237,1.237,0,0,0-1.225-1.355m6.772,1.355a.774.774,0,0,1,.783-.826.773.773,0,0,1,.777.826.773.773,0,0,1-.777.826.774.774,0,0,1-.783-.826m2.088,0v-1.29h-.561v.313a.979.979,0,0,0-.815-.378,1.293,1.293,0,0,0-1.29,1.355,1.293,1.293,0,0,0,1.29,1.355.979.979,0,0,0,.815-.378v.313h.561Zm-5.256,0a1.3,1.3,0,0,0,1.376,1.355,1.351,1.351,0,0,0,.928-.308l-.269-.453a1.134,1.134,0,0,1-.675.232.771.771,0,0,1-.777-.826.771.771,0,0,1,.777-.826,1.134,1.134,0,0,1,.675.232l.269-.453a1.351,1.351,0,0,0-.928-.308,1.3,1.3,0,0,0-1.376,1.355m7.231-1.355a.761.761,0,0,0-.68.378v-.313h-.556v2.579h.562V-19.6c0-.427.183-.664.55-.664a.909.909,0,0,1,.351.065l.173-.529a1.194,1.194,0,0,0-.4-.07m-15.035.27a1.929,1.929,0,0,0-1.052-.27c-.653,0-1.074.313-1.074.826,0,.421.313.68.89.761l.265.038c.308.043.453.124.453.27,0,.2-.205.313-.588.313a1.374,1.374,0,0,1-.858-.27l-.264.437a1.861,1.861,0,0,0,1.117.335c.745,0,1.177-.351,1.177-.842,0-.453-.34-.691-.9-.771l-.264-.038c-.243-.032-.437-.08-.437-.253,0-.189.183-.3.491-.3a1.664,1.664,0,0,1,.8.221Zm7.237-.27a.76.76,0,0,0-.679.378v-.313h-.556v2.579h.561V-19.6c0-.427.183-.664.55-.664a.909.909,0,0,1,.351.065l.173-.529a1.194,1.194,0,0,0-.4-.07m-4.786.065h-.917v-.783h-.567v.783h-.523v.513h.523v1.177c0,.6.232.955.9.955a1.316,1.316,0,0,0,.7-.2l-.162-.481a1.038,1.038,0,0,1-.5.146c-.28,0-.372-.173-.372-.432v-1.166h.917Zm-8.386,2.579v-1.619A.96.96,0,0,0-182.6-20.8a1,1,0,0,0-.907.459.947.947,0,0,0-.852-.459.853.853,0,0,0-.755.383v-.318h-.561v2.579h.566v-1.43a.6.6,0,0,1,.632-.686c.372,0,.561.243.561.68v1.436h.567v-1.43a.608.608,0,0,1,.631-.686c.383,0,.566.243.566.68v1.436Z" transform="translate(185.679 21.774)" fill="#231f20"/></g><g transform="translate(30.313 15.358)"><path d="M-4.388-2.02V-2.4h-.1l-.114.259L-4.713-2.4h-.1v.377h.07V-2.3l.106.245h.072l.106-.246v.285Zm-.623,0v-.313h.126V-2.4h-.321v.064h.126v.313Z" transform="translate(5.207 2.397)" fill="#f79410"/></g><path d="M3351.5,2162.848H3343v-15.277h8.5Z" transform="translate(-3331.541 -2145.493)" fill="#ff5f00"/><g transform="translate(0 0)"><path d="M-64.384-52.093a9.7,9.7,0,0,1,3.71-7.638,9.673,9.673,0,0,0-6-2.077,9.715,9.715,0,0,0-9.714,9.716,9.715,9.715,0,0,0,9.714,9.716,9.673,9.673,0,0,0,6-2.077,9.7,9.7,0,0,1-3.71-7.638" transform="translate(76.392 61.809)" fill="#eb001b"/></g><g transform="translate(15.709 0)"><path d="M-84.282-52.093A9.715,9.715,0,0,1-94-42.378a9.676,9.676,0,0,1-6-2.077,9.7,9.7,0,0,0,3.711-7.638A9.7,9.7,0,0,0-100-59.732a9.676,9.676,0,0,1,6-2.077,9.715,9.715,0,0,1,9.714,9.716" transform="translate(100.001 61.809)" fill="#f79e1b"/></g></g></g></g></svg>