<svg xmlns="http://www.w3.org/2000/svg" width="268.267" height="228.736" viewBox="0 0 268.267 228.736"><g transform="translate(-547.153 -164.55)"><g transform="translate(520 149.88)"><path d="M229.182,523.864a34.074,34.074,0,1,1,35.208-32.876,34.065,34.065,0,0,1-35.208,32.876m58.005-27.809.295-8.584-5.27-1.722a51.138,51.138,0,0,0-1.405-8.62l4.467-3.294-3.034-8.063-5.526.445a50.576,50.576,0,0,0-4.6-7.414l2.862-4.777-5.885-6.278-4.94,2.529a53.9,53.9,0,0,0-7.08-5.118l.8-5.483-7.838-3.557-3.591,4.208a53.063,53.063,0,0,0-8.5-1.992L236.6,432.96,228,432.665l-1.7,5.27a53.072,53.072,0,0,0-8.62,1.405l-3.317-4.445-8.062,3.012.445,5.526a52.6,52.6,0,0,0-7.414,4.62l-4.755-2.861-6.3,5.861,2.529,4.962a50.635,50.635,0,0,0-5.1,7.082l-5.482-.822-3.579,7.836,4.231,3.592a51.222,51.222,0,0,0-1.993,8.5l-5.4,1.357-.294,8.584,5.293,1.724a50.765,50.765,0,0,0,1.406,8.619l-4.466,3.294,3.034,8.064,5.525-.447a50.591,50.591,0,0,0,4.6,7.415l-2.863,4.776,5.885,6.28,4.939-2.53a52.66,52.66,0,0,0,7.081,5.119l-.823,5.481,7.837,3.558,3.614-4.208a52.9,52.9,0,0,0,8.5,1.992l1.335,5.374,8.607.3,1.7-5.272a53,53,0,0,0,8.619-1.405l3.3,4.445,8.062-3.013-.423-5.524a53.894,53.894,0,0,0,7.415-4.622l4.755,2.863,6.3-5.862-2.529-4.961a50.577,50.577,0,0,0,5.1-7.082l5.482.823,3.579-7.838-4.231-3.592a50.7,50.7,0,0,0,1.992-8.5Z" transform="translate(-146.039 -400.729)" fill="#ececec"/><path d="M1649.56,454.691a4.227,4.227,0,1,1,5.973.2,4.227,4.227,0,0,1-5.973-.2m15.427,12.5,2.165-2.022-.865-1.7a17.693,17.693,0,0,0,1.759-2.444l1.893.285,1.226-2.706-1.456-1.238a17.425,17.425,0,0,0,.687-2.93l1.863-.466.1-2.966-1.821-.588a18.6,18.6,0,0,0-.479-2.974l1.533-1.142-1.044-2.778-1.9.15a18.312,18.312,0,0,0-1.587-2.559l.985-1.636-2.027-2.171-1.7.871a18.277,18.277,0,0,0-2.445-1.759l.275-1.893-2.7-1.232-1.239,1.457a18.166,18.166,0,0,0-2.934-.681l-.462-1.857-2.966-.107-.593,1.826a17.47,17.47,0,0,0-2.97.484l-1.136-1.536-2.783,1.038.155,1.907a17.737,17.737,0,0,0-2.559,1.588l-1.647-.986-2.165,2.022.87,1.711a17.576,17.576,0,0,0-1.759,2.444l-1.892-.286-1.227,2.706,1.456,1.239a17.5,17.5,0,0,0-.687,2.929l-1.862.467-.1,2.966,1.822.587a18.086,18.086,0,0,0,.478,2.975l-1.537,1.136,1.044,2.779,1.907-.145a18.266,18.266,0,0,0,1.588,2.559l-.985,1.636,2.026,2.171,1.7-.871a18.2,18.2,0,0,0,2.444,1.758l-.281,1.887,2.7,1.232,1.244-1.45a18.549,18.549,0,0,0,2.936.681l.461,1.858,2.966.106.593-1.826a17.34,17.34,0,0,0,2.97-.484l1.136,1.537,2.784-1.038-.156-1.908a17.539,17.539,0,0,0,2.559-1.587l1.642.979Z" transform="translate(-1376.935 -400.249)" fill="#ececec"/><path d="M813.552,1032.866a16.144,16.144,0,1,1,16.688-15.583,16.151,16.151,0,0,1-16.688,15.583m44.716-21.812-6.755-4.665s0-.011,0-.016a37.055,37.055,0,0,0-2.717-7.036l1.731-6.792-9.8-10.494-6.9,1.263a37.1,37.1,0,0,0-6.829-3.19.082.082,0,0,1-.017-.005l-4.194-7.061-14.348-.492-4.666,6.755-.027.007a37.148,37.148,0,0,0-7.029,2.713l-6.789-1.731-10.494,9.8,1.26,6.883,0,.007a36.355,36.355,0,0,0-3.19,6.855l-7.06,4.192-.492,14.349,6.762,4.669a35.961,35.961,0,0,0,2.709,7.068s0,0,0,0L777.7,1040.9l9.8,10.492,6.855-1.254a37.444,37.444,0,0,0,6.889,3.2l.006,0,4.187,7.051,14.349.492,4.662-6.751a37.432,37.432,0,0,0,7.089-2.717h0l6.758,1.722,10.494-9.8-1.26-6.885a36.368,36.368,0,0,0,3.191-6.856s0,0,0,0l7.063-4.195Z" transform="translate(-649.238 -855.984)" fill="#ececec"/><path d="M1208.263,514.684a17.939,17.939,0,1,0,.621.011c-.208-.007-.416-.011-.621-.011m.025,38.6c-.242,0-.483,0-.726-.013a20.609,20.609,0,1,1,.726.013m10.134-49.546h0Zm-16.189,61.935,9.8.336,3.247-4.7a1.38,1.38,0,0,1,.777-.548,28.133,28.133,0,0,0,5.326-2.042l.009,0a1.374,1.374,0,0,1,.952-.1l4.6,1.171,7.17-6.7-.858-4.686a1.383,1.383,0,0,1,.175-.96,27.431,27.431,0,0,0,2.385-5.117,1.38,1.38,0,0,1,.615-.766l4.914-2.919.336-9.805-4.706-3.25a1.376,1.376,0,0,1-.525-.7c-.012-.035-.022-.072-.032-.11a27.824,27.824,0,0,0-2.034-5.262,1.38,1.38,0,0,1-.106-.965l1.178-4.624-6.7-7.172-4.7.86a1.379,1.379,0,0,1-.955-.172,27.926,27.926,0,0,0-5.125-2.395,1.513,1.513,0,0,1-.288-.134,1.376,1.376,0,0,1-.463-.471l-2.921-4.918-9.805-.336-3.249,4.706a1.376,1.376,0,0,1-.812.557,27.98,27.98,0,0,0-5.261,2.033,1.377,1.377,0,0,1-.965.107l-4.622-1.178-7.171,6.7.858,4.685a1.383,1.383,0,0,1-.123.866c-.019.037-.039.074-.062.111a27.39,27.39,0,0,0-2.387,5.134,1.38,1.38,0,0,1-.6.733l-4.917,2.921-.336,9.8,4.71,3.253a1.377,1.377,0,0,1,.547.775,27.223,27.223,0,0,0,2.031,5.3,1.313,1.313,0,0,1,.112.3,1.376,1.376,0,0,1,0,.675l-1.175,4.608,6.7,7.169,4.663-.852a1.387,1.387,0,0,1,.951.169,28.226,28.226,0,0,0,5.152,2.394,1.379,1.379,0,0,1,.768.61Zm10.511,3.119h-.047l-11.312-.387a1.378,1.378,0,0,1-1.139-.674l-3.046-5.13a30.98,30.98,0,0,1-4.757-2.206l-4.9.9a1.372,1.372,0,0,1-1.256-.416l-7.725-8.272a1.382,1.382,0,0,1-.328-1.282l1.233-4.841a30.01,30.01,0,0,1-1.868-4.88l-4.92-3.4a1.38,1.38,0,0,1-.595-1.182l.388-11.312a1.377,1.377,0,0,1,.674-1.139l5.138-3.051a30.2,30.2,0,0,1,2.2-4.735l-.9-4.921a1.381,1.381,0,0,1,.415-1.256l8.273-7.726a1.378,1.378,0,0,1,1.282-.329l4.857,1.238a30.6,30.6,0,0,1,4.866-1.876l3.4-4.916a1.336,1.336,0,0,1,1.182-.6l11.312.388a1.378,1.378,0,0,1,1.138.674l3.053,5.139a30.731,30.731,0,0,1,4.72,2.2l4.935-.9a1.38,1.38,0,0,1,1.257.415l7.725,8.274a1.379,1.379,0,0,1,.329,1.282l-1.238,4.858a30.619,30.619,0,0,1,1.875,4.864l4.916,3.4a1.377,1.377,0,0,1,.6,1.182l-.387,11.314a1.38,1.38,0,0,1-.675,1.139l-5.14,3.053a30.234,30.234,0,0,1-2.2,4.731l.9,4.923a1.378,1.378,0,0,1-.415,1.256l-8.273,7.724a1.375,1.375,0,0,1-1.282.329l-4.834-1.232a30.944,30.944,0,0,1-4.892,1.875l-3.392,4.912a1.381,1.381,0,0,1-1.135.6" transform="translate(-988.322 -454.475)" fill="#ececec"/><path d="M1565.688,397.009,1561,395.75l-1.258-4.686,1.835-1.834,1.936,4.009,4.009,1.935-1.835,1.835Z" transform="translate(-1315.21 -364.104)" fill="#e1e1e1"/><path d="M1582.887,383.4a2.187,2.187,0,1,0-3.093-3.092l2.331-3.5,3.126,1.58.685,3.285Z" transform="translate(-1332.117 -353.631)" fill="#e1e1e1"/><path d="M1575.324,375.927a2.187,2.187,0,1,0-3.092-.007,2.195,2.195,0,0,0,3.092.007m-6.235-2.808,3.433-3.434,4.686,1.258,1.258,4.686-3.434,3.434-4.686-1.259-1.258-4.686Z" transform="translate(-1323.09 -347.623)" fill="#f0f0f0"/><path d="M370.625,1213.829l2.514-.676.675-2.514-.984-.984-1.039,2.151-2.151,1.039Z" transform="translate(-311.689 -1055.904)" fill="#e1e1e1"/><path d="M366.122,1206.532a1.174,1.174,0,1,1,1.66-1.66L366.531,1203l-1.678.848-.368,1.762Z" transform="translate(-307.342 -1050.289)" fill="#e1e1e1"/><path d="M360.838,1202.517a1.173,1.173,0,1,1,1.66,0,1.178,1.178,0,0,1-1.66,0m3.346-1.506-1.843-1.843-2.514.675-.676,2.515,1.843,1.843,2.515-.676Z" transform="translate(-302.844 -1047.061)" fill="#f0f0f0"/><path d="M315.984,344.108l2.087,2.087a1.4,1.4,0,0,0,1.976-1.976l-2.087-2.087a1.4,1.4,0,0,0-1.976,1.975" transform="translate(-266.101 -324.047)" fill="#f0f0f0"/><path d="M297.547,322.728a2.91,2.91,0,1,1-1.93,3.78,3,3,0,0,1,1.93-3.78" transform="translate(-249.133 -307.864)" fill="#e1e1e1"/><path d="M294.592,334.485l-.3-.841,6.211-2.229.3.841Z" transform="translate(-248.152 -315.353)" fill="#f0f0f0" fill-rule="evenodd"/></g><g transform="translate(556.654 378.493)"><path d="M487.112,1694.548c0,4.085-56.706,7.4-126.657,7.4s-126.657-3.311-126.657-7.4,56.706-7.4,126.657-7.4,126.657,3.311,126.657,7.4" transform="translate(-233.799 -1687.151)" fill="#f5f5f5"/></g><g transform="translate(576.309 169.849)"><path d="M364.943,439.379a6.052,6.052,0,0,0,1.864,3.608,3.85,3.85,0,0,0,5.42-1.207q.7-1.361.03-4.318a5.584,5.584,0,0,0-1.83-3.408,3.52,3.52,0,0,0-2.983-.529,3.391,3.391,0,0,0-2.379,1.767,6.078,6.078,0,0,0-.121,4.085m-5.451,1.213a8.554,8.554,0,0,1,7.026-11.191q4.4-1,7.316.82a9.136,9.136,0,0,1,3.885,6.076,11.137,11.137,0,0,1,.112,5.3,7.605,7.605,0,0,1-2.306,3.761,10.175,10.175,0,0,1-4.648,2.213,11.566,11.566,0,0,1-5.15.173,7.615,7.615,0,0,1-3.85-2.286,10.23,10.23,0,0,1-2.384-4.869" transform="translate(-359.154 -417.646)" fill="#1a2e35"/><path d="M497.963,441.283a3.951,3.951,0,0,0,1.265,2.367,2.321,2.321,0,0,0,3.476-.778,4.079,4.079,0,0,0,.092-2.738,3.862,3.862,0,0,0-1.247-2.315,2.188,2.188,0,0,0-1.879-.426,2.271,2.271,0,0,0-1.58,1.226,3.9,3.9,0,0,0-.127,2.664m-4.9,1.127a6.549,6.549,0,0,1,.877-5.263,8.77,8.77,0,0,1,11.194-2.2,7.131,7.131,0,0,1,1.721,9.324,7.655,7.655,0,0,1-4.976,3.109,7.77,7.77,0,0,1-5.331-.431,6.432,6.432,0,0,1-3.486-4.543" transform="translate(-471.899 -421.618)" fill="#1a2e35"/><path d="M599.912,415.6a3.447,3.447,0,0,0,1.148,2.1,2.1,2.1,0,0,0,1.777.366,1.824,1.824,0,0,0,1.271-1.028,3.9,3.9,0,0,0,.035-2.517,3.637,3.637,0,0,0-1.119-2.141,1.883,1.883,0,0,0-1.632-.394,2.023,2.023,0,0,0-1.4,1.088,3.747,3.747,0,0,0-.084,2.522m-2.358,12.318-4.006-17.622,4.58-1.042.429,1.887a6.247,6.247,0,0,1,1.376-2.006,5.118,5.118,0,0,1,2.24-1.1,4.7,4.7,0,0,1,4.406,1.058,8.327,8.327,0,0,1,2.5,4.526,7.161,7.161,0,0,1-.421,5.209,5.122,5.122,0,0,1-3.478,2.555,5.508,5.508,0,0,1-2.149.084,5.043,5.043,0,0,1-1.924-.763l1.385,6.094Z" transform="translate(-556.8 -399.795)" fill="#1a2e35"/><path d="M701.592,397.857l4.753-1.561a2.458,2.458,0,0,0,1.123,1.048,2.568,2.568,0,0,0,1.527.044,2.5,2.5,0,0,0,1.431-.768.963.963,0,0,0,.244-.875.915.915,0,0,0-.738-.691,10.387,10.387,0,0,0-2.218-.026,22.509,22.509,0,0,1-3.727-.017,3.839,3.839,0,0,1-1.962-.9,3.411,3.411,0,0,1-1.146-1.9,3.453,3.453,0,0,1,.239-2.34,4.481,4.481,0,0,1,1.71-1.823,11.007,11.007,0,0,1,3.347-1.234,12.23,12.23,0,0,1,3.451-.418,4.517,4.517,0,0,1,2.061.669,5.809,5.809,0,0,1,1.659,1.71l-4.536,1.512a1.621,1.621,0,0,0-.805-.765,2.507,2.507,0,0,0-1.482-.068,2.029,2.029,0,0,0-1.141.568.9.9,0,0,0-.216.8.779.779,0,0,0,.642.6,7.919,7.919,0,0,0,2.19-.043,14.735,14.735,0,0,1,3.8-.056,4.1,4.1,0,0,1,2.141.991,3.54,3.54,0,0,1,1.087,1.862,4.05,4.05,0,0,1-.178,2.3,4.637,4.637,0,0,1-1.726,2.141,10.4,10.4,0,0,1-3.772,1.508q-3.5.795-5.209.135a4.6,4.6,0,0,1-2.55-2.4" transform="translate(-647.217 -381.67)" fill="#1a2e35"/><path d="M807.964,370.006l5-.028.025,4.424-5,.029Zm-.262-13.645,5.362-.031.023,4.118-.988,8.277-3.316.018-1.057-8.266Z" transform="translate(-737.379 -356.33)" fill="#1a2e35"/></g><g transform="translate(566.486 178.883)"><path d="M421.576,611.955a5.152,5.152,0,0,0-.883,2.1,7.352,7.352,0,0,0,.475,5.387,4.155,4.155,0,0,0,.294-.917c.678-3.207.481-6.11.114-6.574m4.3,2.058a14.83,14.83,0,0,0-.875,2.306,7.4,7.4,0,0,0-.251,4.277c.022-.055.042-.11.061-.164a21.577,21.577,0,0,0,1.066-6.419m4.685,2.752s-.369,0-1.194,1.533c-.945,1.754-1.186,3.2-.736,4.414a3.578,3.578,0,0,0,.2.438,1.931,1.931,0,0,0,.863-.722,8.673,8.673,0,0,0,1.012-5.394c-.069-.229-.141-.269-.142-.269m3.694,10.759a.33.33,0,0,1-.118-.022c-2.94-1.138-4.7-2.251-5.613-3.588a3.381,3.381,0,0,1-2.111-.291,4.2,4.2,0,0,1-1.817-1.713,1.668,1.668,0,0,1-1.584.245,4.033,4.033,0,0,1-1.928-1.575,1.492,1.492,0,0,1-1.014.281c-1.942-.158-4.573-4.024-4.762-8.144a.327.327,0,0,1,.652-.029c.179,3.91,2.684,7.4,4.162,7.522a.828.828,0,0,0,.609-.183,8.013,8.013,0,0,1-.668-6.148c.562-1.963,1.058-2.73,1.654-2.588,1.126.28.978,4.554.382,7.374a4,4,0,0,1-.553,1.426,3.538,3.538,0,0,0,1.661,1.442,1.031,1.031,0,0,0,1.094-.226,7.588,7.588,0,0,1,.077-5.185c.917-2.893,1.286-2.972,1.507-3.018a.43.43,0,0,1,.421.144c.6.681-.118,5.174-.878,7.4a3.245,3.245,0,0,1-.364.756,3.581,3.581,0,0,0,1.629,1.634,2.855,2.855,0,0,0,1.485.282c-.059-.124-.112-.249-.159-.377-.518-1.4-.265-3.021.773-4.95.689-1.279,1.252-1.876,1.769-1.876h0a.724.724,0,0,1,.644.433c.57,1.052.157,4.52-.969,6.241a2.556,2.556,0,0,1-1.056.914c.875,1.15,2.537,2.165,5.192,3.194a.326.326,0,0,1-.118.631" transform="translate(-396.682 -580.339)" fill="#1a2e35"/><path d="M679.382,881.053a2.816,2.816,0,0,0,.762.907,3.518,3.518,0,0,0,2.7,1.2,2.055,2.055,0,0,0,.209-.031,1.209,1.209,0,0,0-.283-.539,5.632,5.632,0,0,0-3.386-1.54m-2.28,2.776c.219.162.534.376.984.658a5.285,5.285,0,0,0,2.352.864,16.217,16.217,0,0,0-3.335-1.521m.58,4.531a5.883,5.883,0,0,1-2.98-.777.327.327,0,0,1,.331-.564c2.331,1.369,5.343.413,5.963-.583a.566.566,0,0,0,.1-.438,5.312,5.312,0,0,1-3.352-.957c-1.662-1.039-1.791-1.348-1.78-1.6a.4.4,0,0,1,.223-.342c.65-.33,3.6,1.028,4.824,1.835a2.1,2.1,0,0,1,.406.342,2.309,2.309,0,0,0,1.243-.749,1.869,1.869,0,0,0,.384-.733c-.044.007-.088.012-.131.016a4.142,4.142,0,0,1-3.208-1.375c-.767-.709-1.065-1.2-.965-1.585a.594.594,0,0,1,.47-.427c.9-.225,3.134.726,4.046,1.726a1.819,1.819,0,0,1,.419.773,8.276,8.276,0,0,0,2.821-2.79.326.326,0,1,1,.531.38,8.16,8.16,0,0,1-3.3,3.1,2.428,2.428,0,0,1-.568,1.333,2.96,2.96,0,0,1-1.425.922,1.207,1.207,0,0,1-.183.909,4.744,4.744,0,0,1-3.868,1.579" transform="translate(-615.272 -806.934)" fill="#1a2e35"/><path d="M316.057,675.626l16.958-29.766,4.732,25.827-21.69,3.94Zm51.507-9.356-10.179,1.849-9.241-50.438L328.5,621.247l-32,56.832,3.436,18.753,41.048-7.456,2.811,15.338,19.639-3.568-2.81-15.338,10.179-1.849-3.241-17.69Z" transform="translate(-296.503 -585.74)" fill="#02c865"/><path d="M891.758,442.463a38.426,38.426,0,0,0-2.089-9.288,30.119,30.119,0,0,0-4.566-7.962,26.374,26.374,0,0,0-8.3-6.771q-5.252-2.869-13.864-3.993-17.923-2.335-27.946,6.363T821.8,454.133a90.977,90.977,0,0,0-.638,18.516q.65,8.5,3.121,13.674a28.584,28.584,0,0,0,9.569,11.609q6.186,4.34,16.952,5.743,19.2,2.5,28.461-7.374t12.284-33.381a84.5,84.5,0,0,0,.209-20.458" transform="translate(-738.722 -413.953)" fill="#02c865"/><path d="M895.352,535.619c-1.571-.054-3.243-.2-4.969-.421-5.98-.778-10.607-2.292-13.753-4.5a21.33,21.33,0,0,1-7.18-8.757l-.032-.067c-1.256-2.628-2.077-6.372-2.44-11.124a84.229,84.229,0,0,1,.6-17.052c2.332-18.109,7.147-25.664,10.777-28.813,4.232-3.671,9.942-5.33,17.46-5.073,1.54.052,3.171.19,4.848.408a33.17,33.17,0,0,1,11.347,3.173,19.427,19.427,0,0,1,6.082,4.89,23.064,23.064,0,0,1,3.5,6.054,31.462,31.462,0,0,1,1.676,7.55,77.772,77.772,0,0,1-.191,18.762c-1.811,14.07-5.31,23.956-10.4,29.384-3.775,4.027-9.441,5.854-17.32,5.584h0" transform="translate(-777.373 -452.602)" fill="#1a1a1a"/><path d="M937.117,506.773a9.821,9.821,0,1,1,10.149-9.477,9.819,9.819,0,0,1-10.149,9.477m16.72-8.016.085-2.474-1.519-.5A14.7,14.7,0,0,0,952,493.3l1.288-.949-.875-2.324-1.593.128a14.574,14.574,0,0,0-1.325-2.137l.825-1.377-1.7-1.81-1.423.728a15.585,15.585,0,0,0-2.041-1.475l.231-1.58-2.259-1.026-1.035,1.214a15.17,15.17,0,0,0-2.45-.574l-.385-1.55-2.481-.085-.49,1.519a15.26,15.26,0,0,0-2.484.405l-.956-1.281-2.324.868.128,1.593a15.126,15.126,0,0,0-2.138,1.332l-1.37-.825-1.816,1.689.729,1.431a14.463,14.463,0,0,0-1.468,2.041l-1.58-.238-1.032,2.259,1.22,1.035a14.8,14.8,0,0,0-.574,2.451l-1.556.391-.085,2.474,1.526.5a14.577,14.577,0,0,0,.405,2.484l-1.288.95.875,2.324,1.593-.128a14.609,14.609,0,0,0,1.325,2.137l-.825,1.377,1.7,1.81,1.424-.729a15.127,15.127,0,0,0,2.041,1.476l-.237,1.58,2.259,1.025,1.042-1.212a15.3,15.3,0,0,0,2.451.574l.385,1.55,2.481.084.49-1.52a15.192,15.192,0,0,0,2.484-.4l.95,1.281,2.324-.868-.122-1.592a15.549,15.549,0,0,0,2.137-1.332l1.37.825,1.816-1.69-.729-1.429a14.7,14.7,0,0,0,1.469-2.041l1.58.237,1.031-2.259-1.22-1.035a14.545,14.545,0,0,0,.574-2.451l1.55-.391Z" transform="translate(-823.074 -470.055)" fill="#02c865"/><g transform="translate(118.966 60.956)" opacity="0.3"><path d="M1069.02,815.308a2.914,2.914,0,1,1-1.156-3.953,2.921,2.921,0,0,1,1.156,3.953m8.41.647.18-1.668-1-.409a10.441,10.441,0,0,0-.148-1.695l.914-.581-.464-1.613-1.086.009a9.659,9.659,0,0,0-.781-1.51l.619-.889-1.048-1.3-1,.417a9.915,9.915,0,0,0-1.3-1.091l.242-1.063-1.471-.807-.768.776a9.6,9.6,0,0,0-1.618-.514l-.185-1.069-1.668-.187-.409,1a10.426,10.426,0,0,0-1.695.157l-.579-.923-1.614.473.008,1.086a10.519,10.519,0,0,0-1.51.781l-.888-.627-1.305,1.049.417,1a10.7,10.7,0,0,0-1.092,1.3l-1.055-.235-.807,1.471.769.76a10.587,10.587,0,0,0-.514,1.627l-1.069.178-.18,1.668,1,.416a9.588,9.588,0,0,0,.149,1.687l-.922.58.472,1.614h1.085a10.058,10.058,0,0,0,.782,1.5l-.626.888,1.048,1.313,1.008-.424a9.95,9.95,0,0,0,1.3,1.091l-.243,1.062,1.471.807.768-.769a10.3,10.3,0,0,0,1.619.506l.185,1.069,1.668.187.409-1a10.478,10.478,0,0,0,1.694-.156l.58.922,1.606-.473v-1.085a10.618,10.618,0,0,0,1.51-.781l.881.626,1.312-1.048-.424-1a10.742,10.742,0,0,0,1.1-1.3l1.054.234.807-1.47-.769-.76a10.675,10.675,0,0,0,.506-1.619l1.077-.185Z" transform="translate(-1055.321 -802.758)" fill="#02c865"/></g><path d="M1105.562,653.491a4.654,4.654,0,1,1,4.81-4.491,4.654,4.654,0,0,1-4.81,4.491m12.889-6.287-1.948-1.345s0,0,0,0a10.743,10.743,0,0,0-.783-2.029l.5-1.958-2.824-3.024-1.988.364a10.688,10.688,0,0,0-1.968-.919h0l-1.209-2.036-4.135-.141-1.345,1.947-.007,0a10.739,10.739,0,0,0-2.026.782l-1.957-.5-3.024,2.825.363,1.984v0a10.485,10.485,0,0,0-.92,1.975l-2.035,1.208-.142,4.136,1.949,1.345a10.385,10.385,0,0,0,.781,2.038h0l-.5,1.951,2.824,3.025,1.976-.362a10.793,10.793,0,0,0,1.986.921h0l1.206,2.032,4.136.142,1.344-1.945a10.782,10.782,0,0,0,2.043-.783h0l1.948.5,3.025-2.824-.363-1.985a10.5,10.5,0,0,0,.919-1.976h0l2.035-1.21.142-4.136Z" transform="translate(-968.121 -601.281)" fill="#fff"/><path d="M1308.148,441.751a1.748,1.748,0,1,1,2.028,1.412,1.748,1.748,0,0,1-2.028-1.412m3.324,4.237.34-.821h0a4.021,4.021,0,0,0,.683-.447l.758.029.888-1.276-.291-.7a4,4,0,0,0,.183-.8h0l.652-.6-.273-1.53-.821-.34v0a4.056,4.056,0,0,0-.447-.683l.029-.758-1.275-.888-.7.29h0a3.941,3.941,0,0,0-.8-.182l-.6-.652-1.53.274-.341.822a3.854,3.854,0,0,0-.687.447l-.757-.029-.888,1.275.288.7a4.085,4.085,0,0,0-.182.8h0l-.651.6.274,1.529.821.34a4.028,4.028,0,0,0,.448.689h0l-.029.754,1.276.888.7-.29a3.885,3.885,0,0,0,.8.182l.6.652Z" transform="translate(-1146.932 -433.07)" fill="#02c865"/><path d="M1229.015,448.77l-.5-.421a13.039,13.039,0,0,1,3.925-3.285l.3.579a12.494,12.494,0,0,0-3.729,3.127" transform="translate(-1082.396 -440.187)" fill="#02c865"/><path d="M1263.572,434.807l-.258-.6a15.618,15.618,0,0,1,7.668-1.228l-.061.651a14.873,14.873,0,0,0-7.35,1.178" transform="translate(-1111.739 -429.938)" fill="#02c865"/><path d="M1254.188,449.411l-.539-.367a10.97,10.97,0,0,1,6.448-4.173l.127.64a10.277,10.277,0,0,0-6.035,3.9" transform="translate(-1103.589 -440.023)" fill="#02c865"/><path d="M898.985,713.043a8.052,8.052,0,1,0,11.162-2.266,7.995,7.995,0,0,0-11.162,2.266m6.7,13.148a8.7,8.7,0,1,1,7.267-3.891,8.654,8.654,0,0,1-7.267,3.891m-3.213,2.113a.314.314,0,0,1,.092.014,10.926,10.926,0,0,0,2.163.4.326.326,0,0,1,.208.1l1.33,1.371,3.855-.782.693-1.785a.325.325,0,0,1,.153-.171,10.86,10.86,0,0,0,1.839-1.209.281.281,0,0,1,.211-.073l2.268.034,2.173-3.279-.917-2.08a.327.327,0,0,1-.014-.223,11.139,11.139,0,0,0,.4-2.163.328.328,0,0,1,.1-.208l1.371-1.33-.781-3.855-1.782-.69a.325.325,0,0,1-.174-.159,10.589,10.589,0,0,0-1.209-1.832.332.332,0,0,1-.074-.213l.035-2.269-3.279-2.173-2.075.915a.336.336,0,0,1-.223.016,11.076,11.076,0,0,0-2.171-.4.325.325,0,0,1-.207-.1l-1.328-1.37-3.856.782-.691,1.781a.327.327,0,0,1-.154.172,10.8,10.8,0,0,0-1.84,1.211.306.306,0,0,1-.213.075l-2.266-.035-2.173,3.279.916,2.077a.329.329,0,0,1-.007.278,11.368,11.368,0,0,0-.38,2.112.327.327,0,0,1-.1.208L893,718.059l.782,3.855,1.78.69a.325.325,0,0,1,.179.168,10.616,10.616,0,0,0,1.2,1.823.33.33,0,0,1,.075.214l-.035,2.267,3.279,2.175,2.08-.918a.328.328,0,0,1,.131-.028m3.682,2.567a.327.327,0,0,1-.235-.1l-1.37-1.412a11.5,11.5,0,0,1-2.054-.382l-2.135.941a.325.325,0,0,1-.312-.026l-3.577-2.371a.327.327,0,0,1-.146-.278l.035-2.327a11.312,11.312,0,0,1-1.154-1.749l-1.832-.711a.325.325,0,0,1-.2-.239l-.853-4.206a.328.328,0,0,1,.093-.3l1.412-1.369a11.743,11.743,0,0,1,.381-2.058l-.94-2.132a.328.328,0,0,1,.026-.313l2.371-3.576a.3.3,0,0,1,.278-.146l2.326.036a11.479,11.479,0,0,1,1.75-1.153l.711-1.834a.328.328,0,0,1,.24-.2l4.206-.853a.332.332,0,0,1,.3.093l1.368,1.41a11.684,11.684,0,0,1,2.06.382l2.132-.94a.331.331,0,0,1,.312.027l3.576,2.371a.328.328,0,0,1,.146.278l-.036,2.329a11.317,11.317,0,0,1,1.153,1.747l1.834.711a.326.326,0,0,1,.2.239l.852,4.206a.328.328,0,0,1-.093.3l-1.412,1.37a11.666,11.666,0,0,1-.382,2.053l.942,2.136a.326.326,0,0,1-.027.312l-2.371,3.576a.338.338,0,0,1-.277.146l-2.327-.034a11.5,11.5,0,0,1-1.747,1.148l-.713,1.837a.329.329,0,0,1-.24.2l-4.205.852a.319.319,0,0,1-.065.006" transform="translate(-798.905 -658.618)" fill="#fff"/><path d="M1325.709,663.032l25.318-23.078-3.472,26.027Zm51.88,7-10.253-1.384,6.781-50.828-19.781-2.669-47.983,44.176-2.521,18.9,41.344,5.58-2.062,15.457,19.781,2.669,2.062-15.456,10.253,1.383,2.378-17.826Z" transform="translate(-1145.905 -583.609)" fill="#02c865"/><path d="M1640.462,712.614a.347.347,0,0,1-.059-.005.327.327,0,0,1-.263-.38l15.238-83.57a.334.334,0,0,1,.38-.263.327.327,0,0,1,.262.38l-15.238,83.569a.326.326,0,0,1-.321.268" transform="translate(-1429.483 -594.774)" fill="#1a2e35"/><path d="M1722.7,636.061a.535.535,0,1,1-.517-.554.536.536,0,0,1,.517.554" transform="translate(-1498.203 -600.772)" fill="#1a2e35"/><path d="M1708.823,708.148a.535.535,0,1,1-.517-.554.536.536,0,0,1,.517.554" transform="translate(-1486.499 -661.557)" fill="#1a2e35"/><path d="M1694.933,780.235a.535.535,0,1,1-.517-.554.536.536,0,0,1,.517.554" transform="translate(-1474.787 -722.342)" fill="#1a2e35"/><path d="M1667.633,855.279a.535.535,0,1,1-.517-.553.535.535,0,0,1,.517.553" transform="translate(-1451.767 -785.622)" fill="#1a2e35"/><path d="M1667.163,924.407a.535.535,0,1,1-.517-.554.535.535,0,0,1,.517.554" transform="translate(-1451.371 -843.912)" fill="#1a2e35"/><path d="M1653.283,996.494a.535.535,0,1,1-.517-.554.536.536,0,0,1,.517.554" transform="translate(-1439.667 -904.697)" fill="#1a2e35"/><path d="M1639.393,1068.578a.535.535,0,1,1-.517-.554.536.536,0,0,1,.517.554" transform="translate(-1427.954 -965.48)" fill="#1a2e35"/><path d="M1625.513,1140.669a.535.535,0,1,1-.517-.554.535.535,0,0,1,.517.554" transform="translate(-1416.251 -1026.269)" fill="#1a2e35"/><path d="M1668.225,854.843a.327.327,0,0,1-.068-.646l1.622-.348a.327.327,0,1,1,.137.639l-1.623.348a.349.349,0,0,1-.068.007" transform="translate(-1452.894 -784.877)" fill="#1a2e35"/><path d="M1691.2,821.838a54.469,54.469,0,0,0-1.954,6.114,53.585,53.585,0,0,0-.522,7.463" transform="translate(-1470.457 -757.891)" fill="#1a2e35"/><path d="M1686.973,833.987h0a.327.327,0,0,1-.325-.329,52.8,52.8,0,0,1,.529-7.529,53.9,53.9,0,0,1,1.968-6.164.327.327,0,0,1,.61.234,54.306,54.306,0,0,0-1.94,6.066,53.482,53.482,0,0,0-.515,7.4.326.326,0,0,1-.327.325" transform="translate(-1468.702 -756.135)" fill="#1a2e35"/></g><g transform="translate(594.41 275.086)"><path d="M926.883,1065.613c.907-14.634-.762-41.237,26.747-37.715,29.484,3.774,21.049,38.251,21.049,38.251l-47.8-.536Z" transform="translate(-855.978 -1027.58)" fill="#1a2e35"/><path d="M995.418,1072.941a12,12,0,1,1-12-12,12,12,0,0,1,12,12" transform="translate(-893.525 -1055.707)" fill="#fff"/><path d="M991.532,1060.3c-5.686-.971-11.765,3.221-12.364,7.467l22.541,2.073c-.794-4.841-5.666-8.768-10.178-9.539" transform="translate(-900.066 -1055.05)" fill="#1a2e35"/><path d="M1068.552,1104.048c-.161,3.138-1.871,5.6-3.82,5.5s-3.4-2.725-3.236-5.864,1.871-5.6,3.819-5.5,3.4,2.725,3.237,5.864" transform="translate(-969.476 -1087.113)" fill="#1a2e35"/><path d="M979.9,1058.073a11.35,11.35,0,1,0,11.35,11.35,11.363,11.363,0,0,0-11.35-11.35m0,24.007a12.657,12.657,0,1,1,12.656-12.656A12.67,12.67,0,0,1,979.9,1082.08" transform="translate(-890.009 -1052.191)" fill="#02c865"/><g transform="translate(114.962 18.957)" opacity="0.3"><path d="M1208.283,1167.206a.344.344,0,0,1-.077-.009.327.327,0,0,1-.241-.394,43.272,43.272,0,0,0-.059-17.9.327.327,0,0,1,.635-.153,43.956,43.956,0,0,1,.059,18.207.325.325,0,0,1-.317.25" transform="translate(-1207.897 -1148.5)" fill="#fff"/></g><g transform="translate(110.057 8.736)" opacity="0.3"><path d="M1180.083,1089.031a.326.326,0,0,1-.3-.191,23.086,23.086,0,0,0-3.1-5,.327.327,0,0,1,.506-.414,23.733,23.733,0,0,1,3.185,5.144.327.327,0,0,1-.3.463" transform="translate(-1176.615 -1083.305)" fill="#fff"/></g><path d="M518,1571.847c-.082,0-.162,0-.243,0a3.266,3.266,0,1,1,.179-6.53H518c1.887,0,6.427-2.293,15.925-17.265a3.268,3.268,0,0,1,4.905-.712,135.192,135.192,0,0,0,24.263,16.643,3.266,3.266,0,0,1-2.956,5.825,139.336,139.336,0,0,1-22.732-15.12c-7.96,11.967-13.867,17.162-19.4,17.162" transform="translate(-508.318 -1465.174)" fill="#1a2e35"/><path d="M631.222,1352.146a2.026,2.026,0,0,1-.28-.02,1.961,1.961,0,0,1-1.663-2.218c.464-3.251-.111-15.434-4.229-24.906a1.96,1.96,0,0,1,.693-2.4c8.949-6.1,28.009-6.827,28.817-6.855a1.96,1.96,0,0,1,.136,3.917c-.177.007-16.841.646-25.4,5.359,3.648,9.432,4.475,21.189,3.867,25.442a1.96,1.96,0,0,1-1.938,1.682" transform="translate(-601.329 -1270.568)" fill="#1a2e35"/><path d="M604.178,1519.966c-1.3-3.074-7.178-2.725-10.627-.091a17.509,17.509,0,0,0-4.6,7.181,2.313,2.313,0,0,0,2.629,2.768c2.252-.2,5.344-3.468,5.344-3.468-2.057,2.017.6,3.441,4.557.523,2.2-1.618,4.157-3.471,2.7-6.913" transform="translate(-570.993 -1440.927)" fill="#02c865"/><path d="M1407.726,1151.348a4.132,4.132,0,0,0,.939.211c3.255.385,6.129-.07,6.558-.476a5.14,5.14,0,0,0-2.175-.691,7.358,7.358,0,0,0-5.323.956m-.824,3.672c.056.016.113.032.169.046a21.509,21.509,0,0,0,6.489.486,14.708,14.708,0,0,0-2.374-.665,7.409,7.409,0,0,0-4.283.133m-2.178,4.291a1.926,1.926,0,0,0,.8.8,8.683,8.683,0,0,0,5.462.525c.222-.09.255-.165.255-.165s-.036-.367-1.634-1.051c-1.831-.784-3.291-.894-4.463-.339a3.8,3.8,0,0,0-.418.235m-3.544,6.1a.306.306,0,0,1-.09-.013.326.326,0,0,1-.223-.4c.87-3.031,1.821-4.883,3.07-5.912a3.4,3.4,0,0,1,.1-2.129,4.2,4.2,0,0,1,1.543-1.963,1.669,1.669,0,0,1-.385-1.555,4.029,4.029,0,0,1,1.4-2.062,1.493,1.493,0,0,1-.37-.985c-.016-1.948,3.6-4.916,7.683-5.473a.319.319,0,0,1,.368.279.327.327,0,0,1-.28.368c-3.879.529-7.131,3.337-7.118,4.821a.846.846,0,0,0,.237.59,8.006,8.006,0,0,1,6.063-1.217c2,.383,2.82.807,2.726,1.416-.178,1.145-4.448,1.382-7.31,1.041a4.007,4.007,0,0,1-1.47-.422,3.528,3.528,0,0,0-1.286,1.783,1.03,1.03,0,0,0,.323,1.069,7.575,7.575,0,0,1,5.171-.389c2.963.654,3.074,1.015,3.141,1.23a.432.432,0,0,1-.105.433c-.625.662-5.165.348-7.446-.211a3.272,3.272,0,0,1-.786-.295,3.573,3.573,0,0,0-1.481,1.769,2.82,2.82,0,0,0-.147,1.5c.117-.071.238-.134.36-.193,1.352-.642,2.986-.534,5,.327,1.335.572,1.98,1.078,2.027,1.593a.724.724,0,0,1-.373.681c-1,.662-4.488.562-6.3-.405a2.551,2.551,0,0,1-1-.971c-1.068.975-1.929,2.722-2.716,5.458a.325.325,0,0,1-.313.236" transform="translate(-1255.64 -1126.511)" fill="#1a2e35"/><path d="M663.606,1694.557c.43-.138.286-.553-.194-.553h-8.844c-16.841-1.783-28.608.607-21.194,1.17s-.523.445-5.937,2.494,40.275,2.565,44.43,0c3.832-2.365-14.229-1.2-8.262-3.111" transform="translate(-603.104 -1588.975)" fill="#1a2e35"/><path d="M833.384,1302.63l-76.953-2.551-3.194-74.615,90.873,2.032Z" transform="translate(-709.556 -1194.44)" fill="#02c865"/><path d="M891.949,1301.977a.326.326,0,0,1-.325-.3l-6.169-74.941a.327.327,0,0,1,.651-.053l6.169,74.941a.326.326,0,0,1-.3.352h-.027" transform="translate(-821.044 -1195.216)" fill="#1a2e35"/><path d="M1264.45,1313.56l20.684-3.149,6.514-69.381-16.471-2.6Z" transform="translate(-1140.622 -1205.37)" fill="#02c865"/><g transform="translate(123.828 33.056)" opacity="0.2"><path d="M1264.45,1313.56l20.684-3.149,6.514-69.381-16.471-2.6Z" transform="translate(-1264.45 -1238.426)"/></g><path d="M805.314,1326.278l-1.9-44.33a8.014,8.014,0,0,1,8.186-8.355l57.524,1.286a8.014,8.014,0,0,1,7.755,9.145L870.5,1328.7a8.014,8.014,0,0,1-8.2,6.877l-49.249-1.632a8.014,8.014,0,0,1-7.742-7.668" transform="translate(-751.862 -1235.022)" fill="#1a2e35"/><path d="M853.355,1360.37l8.9.283-.073,2.294-5.571-.177-.054,1.708,5.168.165-.07,2.192-5.168-.163-.067,2.118,5.733.182-.078,2.434-9.061-.289.342-10.747Z" transform="translate(-793.689 -1308.196)" fill="#fff"/><path d="M926.037,1367.037l1.4.044a5.029,5.029,0,0,0,.884-.118.881.881,0,0,0,.55-.321,1.088,1.088,0,0,0-.076-1.425,2,2,0,0,0-1.231-.318l-1.459-.047-.069,2.185Zm-3.539,6.286.342-10.747,5.535.176a8.061,8.061,0,0,1,2.344.339,2.505,2.505,0,0,1,1.281,1.02,3.035,3.035,0,0,1-1.069,4.307,4.022,4.022,0,0,1-1.18.389,3.351,3.351,0,0,1,.852.422,3.424,3.424,0,0,1,.513.583,4.228,4.228,0,0,1,.444.683l1.509,3.166-3.752-.12-1.671-3.341a2.494,2.494,0,0,0-.575-.847,1.39,1.39,0,0,0-.805-.275l-.293-.01-.138,4.362Z" transform="translate(-852.281 -1310.056)" fill="#fff"/><path d="M1000.528,1369.41l1.4.044a4.892,4.892,0,0,0,.884-.118.877.877,0,0,0,.55-.32,1.089,1.089,0,0,0-.076-1.426,2,2,0,0,0-1.23-.317l-1.459-.047Zm-3.539,6.287.342-10.747,5.535.176a8.035,8.035,0,0,1,2.345.339,2.512,2.512,0,0,1,1.281,1.02,3.036,3.036,0,0,1-1.07,4.307,4.013,4.013,0,0,1-1.18.388,3.339,3.339,0,0,1,.852.423,3.4,3.4,0,0,1,.513.582,4.289,4.289,0,0,1,.444.683l1.509,3.166-3.752-.12-1.671-3.341a2.513,2.513,0,0,0-.575-.847,1.392,1.392,0,0,0-.806-.276l-.293-.01-.138,4.362-3.335-.106Z" transform="translate(-915.093 -1312.058)" fill="#fff"/><path d="M1071.276,1372.609a3.6,3.6,0,0,0,.53,2.357,2.29,2.29,0,0,0,3.3.12,3.979,3.979,0,0,0,.666-2.482,3.324,3.324,0,0,0-.541-2.237,2.1,2.1,0,0,0-1.638-.753,2.02,2.02,0,0,0-1.636.66,3.616,3.616,0,0,0-.683,2.333m-3.321-.12a5.091,5.091,0,0,1,5.727-5.388,5.623,5.623,0,0,1,4.089,1.573,5.437,5.437,0,0,1,1.323,4.082,6.624,6.624,0,0,1-.732,3.07,4.529,4.529,0,0,1-1.892,1.818,6.047,6.047,0,0,1-3.009.576,6.874,6.874,0,0,1-2.991-.675,4.53,4.53,0,0,1-1.874-1.895,6.091,6.091,0,0,1-.641-3.161" transform="translate(-974.93 -1313.868)" fill="#fff"/><path d="M1153.154,1374.267l1.4.045a5.063,5.063,0,0,0,.885-.118.88.88,0,0,0,.55-.321,1.089,1.089,0,0,0-.076-1.425,1.994,1.994,0,0,0-1.23-.318l-1.459-.047Zm-3.539,6.286.342-10.747,5.535.176a8.033,8.033,0,0,1,2.344.34,2.5,2.5,0,0,1,1.281,1.02,3.035,3.035,0,0,1-1.069,4.307,4.01,4.01,0,0,1-1.18.388,3.349,3.349,0,0,1,.852.423,3.407,3.407,0,0,1,.513.583,4.2,4.2,0,0,1,.444.683l1.509,3.165-3.752-.12-1.671-3.341a2.5,2.5,0,0,0-.575-.847,1.394,1.394,0,0,0-.805-.275l-.293-.01-.139,4.362-3.335-.107Z" transform="translate(-1043.791 -1316.152)" fill="#fff"/><path d="M902.536,1498.613a.858.858,0,0,1-.634-.279l-5.592-6.12-6.034,5.513a.858.858,0,0,1-1.212-.054l-5.592-6.121-6.034,5.513a.858.858,0,0,1-1.211-.054l-5.592-6.12L864.6,1496.4a.856.856,0,0,1-1.211-.054l-5.592-6.12-6.034,5.513a.857.857,0,1,1-1.156-1.265l6.666-6.091a.857.857,0,0,1,1.212.054l5.592,6.12,6.034-5.514a.859.859,0,0,1,1.212.054l5.592,6.121,6.034-5.513a.858.858,0,0,1,1.212.054l5.592,6.12,6.034-5.513a.855.855,0,0,1,1.211.054l6.171,6.753a.858.858,0,0,1-.633,1.436" transform="translate(-791.426 -1415.952)" fill="#fff"/><path d="M482.356,1610.119l-4.088-1.95-3.647-17.747,1.979-2.18Z" transform="translate(-474.621 -1500.343)" fill="#02c865"/><path d="M493,1610.119l5.425-3.169-4.651-14.622-6.53-4.085Z" transform="translate(-485.267 -1500.343)" fill="#02c865"/><g transform="translate(1.979 87.9)" opacity="0.2"><path d="M493,1610.119l5.425-3.169-4.651-14.622-6.53-4.085Z" transform="translate(-487.246 -1588.243)"/></g><path d="M1071.937,1656.865c-.154,0-.305,0-.451-.006a3.266,3.266,0,1,1,.179-6.53c5.032.165,15.682-2.927,21.765-8.832a3.267,3.267,0,0,1,1.337-.785c10.313-3.1,14.152,3.158,14.31,3.426l-5.623,3.324a.847.847,0,0,0,.075.12c-.062-.086-1.523-1.985-6.174-.81-7.635,6.969-19.354,10.093-25.418,10.093" transform="translate(-975.231 -1543.863)" fill="#1a2e35"/><path d="M1020.1,1654.05l-11.9-.749-.939-21.934,15.99.6Z" transform="translate(-923.758 -1536.706)" fill="#02c865"/><path d="M1089.14,1657.265l2.781-2.767,1.724-13.677-1.352-5.642Z" transform="translate(-992.797 -1539.921)" fill="#02c865"/><g transform="translate(96.343 95.258)" opacity="0.2"><path d="M1089.14,1657.265l2.781-2.767,1.724-13.677-1.352-5.642Z" transform="translate(-1089.14 -1635.179)"/></g><path d="M1398.523,1407.417a1.953,1.953,0,0,1-1.184-.4c-6.79-5.161-15.969-14.323-19.491-23.162a1.942,1.942,0,0,1-.112-.4c-1.717-10.212-3.358-31.709-3.427-32.619a1.96,1.96,0,0,1,3.908-.3c.016.219,1.674,21.927,3.349,32.057,3.513,8.594,13.037,17.419,18.144,21.3a1.96,1.96,0,0,1-1.188,3.52" transform="translate(-1233.252 -1298.379)" fill="#1a2e35"/><path d="M1554.752,1699.331a9.055,9.055,0,0,1-5.1-2.041,1.96,1.96,0,0,1,2.3-3.175,5.317,5.317,0,0,0,2.807,1.3,1.96,1.96,0,0,1,0,3.919" transform="translate(-1380.422 -1589.303)" fill="#1a2e35"/><path d="M1557.024,1690.009c2.1-6.229,10.693-5,13.654-4.073a31.411,31.411,0,0,1,7.231,3.137c1.6,1.048,1.629,2.8-.509,3.8-2.636,1.233-9.251.139-9.251.139,3.424,1.5-.007,3.9-6.013,1.542-1.955-.768-5.852-2.262-5.112-4.544" transform="translate(-1387.249 -1582.078)" fill="#02c865"/><path d="M1359.643,1322.624c-.778,5.293-5.161,9.2-8.725,8.671s-3.714-5.251-2.936-10.543,2.188-9.147,5.753-8.622,6.686,5.2,5.908,10.494" transform="translate(-1210.735 -1267.478)" fill="#1a2e35"/><path d="M872.135,1238.272a.535.535,0,1,1-.535-.535.535.535,0,0,1,.535.535" transform="translate(-808.91 -1204.789)" fill="#1a2e35"/><path d="M903.443,1262.862a.535.535,0,1,1-.535-.535.535.535,0,0,1,.535.535" transform="translate(-835.31 -1225.524)" fill="#1a2e35"/><path d="M907.263,1666.632a.535.535,0,1,1-.535-.535.535.535,0,0,1,.535.535" transform="translate(-838.531 -1565.992)" fill="#1a2e35"/><path d="M938.571,1691.229a.535.535,0,1,1-.536-.536.535.535,0,0,1,.536.536" transform="translate(-864.931 -1586.731)" fill="#1a2e35"/></g><g transform="translate(569.051 378.81)"><path d="M324.9,1689.824h0s-.245.124-.34,1.215a2.544,2.544,0,0,0,.61,2.277,1.678,1.678,0,0,0,.391.248,1.4,1.4,0,0,0,.355-.672,4.084,4.084,0,0,0-.781-2.893c-.131-.146-.216-.174-.234-.174m-4.11.567a9.039,9.039,0,0,0,.116,1.345,3.366,3.366,0,0,0,.992,2.1,10.316,10.316,0,0,0-1.108-3.45m-3.639.57a2.887,2.887,0,0,0,.055,1.335,3.316,3.316,0,0,0,1.855,2.422,2.009,2.009,0,0,0-.076-.463,6.311,6.311,0,0,0-1.834-3.295m.564,5.408a6.3,6.3,0,0,1-4.79-2.58.326.326,0,1,1,.537-.371c1.219,1.76,3.906,2.7,5.1,2.143a.92.92,0,0,0,.306-.222,3.963,3.963,0,0,1-2.3-2.927c-.148-.828-.266-1.948.417-2.1.937-.21,2.162,2.056,2.634,3.773a2.333,2.333,0,0,1,.086.876,2.918,2.918,0,0,0,1.167.092,1.264,1.264,0,0,0,.9-.487,3.815,3.815,0,0,1-1.506-2.737c-.253-1.786-.063-2.1.135-2.25a.439.439,0,0,1,.449-.051c.7.3,1.545,2.831,1.707,4.265a2.022,2.022,0,0,1,0,.453,2.5,2.5,0,0,0,.881.171,2.845,2.845,0,0,0,1.574-.411,2.125,2.125,0,0,1-.263-.193,3.128,3.128,0,0,1-.837-2.829c.089-1.024.322-1.583.734-1.759a.743.743,0,0,1,.789.156,4.516,4.516,0,0,1,1.128,3.63,1.916,1.916,0,0,1-.329.752,11.967,11.967,0,0,0,4.34-.49.327.327,0,0,1,.157.635,10.781,10.781,0,0,1-5.022.4,3.709,3.709,0,0,1-2.285.759,3.167,3.167,0,0,1-1.071-.2,1.837,1.837,0,0,1-1.387.83,3.542,3.542,0,0,1-1.462-.125,1.487,1.487,0,0,1-.662.579,2.686,2.686,0,0,1-1.122.216" transform="translate(-312.866 -1689.17)" fill="#1a2e35"/><path d="M943.446,1733.547l1.77-3.07-1.77-3.07h-1.9l1.071,3.07-1.071,3.069Z" transform="translate(-842.987 -1721.412)" fill="#1a2e35"/><path d="M921.863,1736.78a1.6,1.6,0,1,1,0-3.194l-3.01-.6-.8,2.431,1.343,2.051Z" transform="translate(-823.174 -1726.114)" fill="#1a2e35"/><path d="M913.617,1732.082a1.6,1.6,0,1,1,1.594-1.6,1.6,1.6,0,0,1-1.594,1.6m1.77-4.67H911.84l-1.77,3.07,1.77,3.07h3.547l1.77-3.07Z" transform="translate(-816.441 -1721.417)" fill="#02c865"/><path d="M1734.137,1701.576l-1.315-2.28,1.315-2.28h1.408l-.8,2.28.8,2.28h-1.408Z" transform="translate(-1510.204 -1695.786)" fill="#02c865"/><path d="M1749.59,1703.977a1.186,1.186,0,1,0,0-2.373l2.235-.447.593,1.8-1,1.523Z" transform="translate(-1524.343 -1699.278)" fill="#02c865"/><path d="M1742.618,1700.484a1.186,1.186,0,1,0-1.184-1.188,1.19,1.19,0,0,0,1.184,1.188m-1.315-3.469h2.635l1.315,2.28-1.315,2.28H1741.3l-1.314-2.28Z" transform="translate(-1516.247 -1695.785)" fill="#1a2e35"/><path d="M1421.435,1730.38h2.951a1.4,1.4,0,0,0,0-2.795h-2.951a1.4,1.4,0,1,0,0,2.795" transform="translate(-1246.457 -1721.563)" fill="#1a2e35"/><path d="M1397.185,1718.795a2.91,2.91,0,1,1,1.308,4.037,3,3,0,0,1-1.308-4.037" transform="translate(-1226.923 -1712.613)" fill="#02c865"/><path d="M1404.876,1722.6l-.806-.381,2.818-5.968.806.38Z" transform="translate(-1232.993 -1712.004)" fill="#1a2e35" fill-rule="evenodd"/></g></g></svg>