<svg xmlns="http://www.w3.org/2000/svg" xmlns:xlink="http://www.w3.org/1999/xlink" width="24" height="24" viewBox="0 0 24 24"><defs><linearGradient id="a" x1="0.5" x2="0.5" y2="1" gradientUnits="objectBoundingBox"><stop offset="0" stop-color="#ffd500"/><stop offset="1" stop-color="#ff6f00"/></linearGradient></defs><path d="M0,0H24V24H0Z" fill="none"/><path d="M6.5,2h11a1,1,0,0,1,.8.4L21,6V21a1,1,0,0,1-1,1H4a1,1,0,0,1-1-1V6L5.7,2.4A1,1,0,0,1,6.5,2Zm12,4L17,4H7L5.5,6ZM9,10H7v2a5,5,0,0,0,10,0V10H15v2a3,3,0,0,1-6,0Z" fill="url(#a)"/></svg>