<svg xmlns="http://www.w3.org/2000/svg" xmlns:xlink="http://www.w3.org/1999/xlink" width="37" height="37" viewBox="0 0 37 37"><defs><linearGradient id="a" x1="0.5" y1="0.5" x2="0.924" y2="1.223" gradientUnits="objectBoundingBox"><stop offset="0" stop-color="#ffc400"/><stop offset="1" stop-color="#f60"/></linearGradient><filter id="b" x="0" y="0" width="37" height="37" filterUnits="userSpaceOnUse"><feOffset input="SourceAlpha"/><feGaussianBlur stdDeviation="1.5" result="c"/><feFlood flood-color="#f70" flood-opacity="0.188"/><feComposite operator="in" in2="c"/><feComposite in="SourceGraphic"/></filter></defs><g transform="translate(4.5 4.5)"><g transform="matrix(1, 0, 0, 1, -4.5, -4.5)" filter="url(#b)"><circle cx="14" cy="14" r="14" transform="translate(4.5 4.5)" fill="url(#a)"/></g><g transform="translate(6.01 6.06)"><path d="M0,0H16.552V16.553H0Z" fill="none"/><path d="M5.414,2H13a.69.69,0,0,1,.552.276l1.862,2.483V15.1a.69.69,0,0,1-.69.69H3.69A.69.69,0,0,1,3,15.1V4.759L4.862,2.276A.69.69,0,0,1,5.414,2Zm8.621,4.138H4.379v8.276h9.655ZM13.69,4.759l-1.035-1.38h-6.9L4.724,4.759ZM7.138,7.518V8.9a2.069,2.069,0,0,0,4.138,0V7.518h1.379V8.9a3.45,3.45,0,0,1-6.9,0V7.518Z" transform="translate(-0.931 -0.621)" fill="#fff"/></g></g></svg>