<svg xmlns="http://www.w3.org/2000/svg" width="40.393" height="35.497" viewBox="0 0 40.393 35.497"><g transform="translate(0 -31.027)"><path d="M19.013,90.974v7.1H2.367C1.065,98.074,0,94.642,0,93.341a2.374,2.374,0,0,1,2.367-2.367Z" transform="translate(0 -55.218)" fill="#00b55b"/><path d="M41.018,65.521l-2.026-5.35-8.924-4.157-6.66,2.425L5.551,64.911a1.183,1.183,0,0,0,.4,2.3h0l17.451-.05,16.5-.047a1.183,1.183,0,0,0,1.109-1.588Z" transform="translate(-4.395 -23.016)" fill="#ffc431"/><path d="M258.469,66.6a1.186,1.186,0,0,0,.141-1.082l-2.026-5.35-8.924-4.157L241,58.439v8.717l16.5-.047A1.186,1.186,0,0,0,258.469,66.6Z" transform="translate(-221.987 -23.016)" fill="#ffa100"/><g transform="translate(0 38.123)"><path d="M38.026,124.524v23.668a1.172,1.172,0,0,1-1.183,1.183H3.55A3.545,3.545,0,0,1,0,145.825V120.974a2.374,2.374,0,0,0,2.367,2.367H36.842A1.172,1.172,0,0,1,38.026,124.524Z" transform="translate(0 -120.974)" fill="#02c865"/><g transform="translate(5.944 9.202)"><path d="M8.985,6.68A4.532,4.532,0,0,1,8.7,8.53l-.575.947a4.051,4.051,0,0,1-1.388,1.457l-.718.452a2.037,2.037,0,0,1-.654.277H4.484a1.237,1.237,0,0,1-.622,0,3.165,3.165,0,0,1-.527-.291c-.176-.117-.367-.277-.575-.437a2.106,2.106,0,0,1-.622-.991V5.995H1.069L0,4.829H2.17V2.483a.741.741,0,0,0-.192-.568,1.133,1.133,0,0,0-.622-.262,1.082,1.082,0,0,0-.319,0,.381.381,0,0,0-.192.087L.622,1.346A3.314,3.314,0,0,1,.479.909a.786.786,0,0,1,0-.277L.686.443a1.364,1.364,0,0,1,.287-.2A1.607,1.607,0,0,1,1.341.005a1.344,1.344,0,0,1,.431,0h.3A2.023,2.023,0,0,1,3,.763,2.389,2.389,0,0,1,3.383,2.22V4.552a.666.666,0,0,1,0,.175h.638L5.091,5.951h-1.6V9.288a1.133,1.133,0,0,0,.3.772,1.307,1.307,0,0,0,.814.248,2.323,2.323,0,0,0,.543,0,2.4,2.4,0,0,0,.59-.277,2.767,2.767,0,0,0,.575-.539,5.128,5.128,0,0,0,.4-.743l.4-.743V7.379H6.926a1.419,1.419,0,0,1-1.175-.367,1.154,1.154,0,0,1-.341-1.09V5.834a2.1,2.1,0,0,1,.176-.685A1.123,1.123,0,0,1,5.921,4.7a1.192,1.192,0,0,1,.463-.321,1.746,1.746,0,0,1,.559,0h.319a.838.838,0,0,1,.271,0A2.546,2.546,0,0,1,8.682,5.426l.239.568A1.989,1.989,0,0,1,8.985,6.68Z" transform="translate(0 0.012)" fill="#fff"/></g></g><path d="M260.013,152.157v23.668a1.172,1.172,0,0,1-1.183,1.183H241V150.974h17.83A1.172,1.172,0,0,1,260.013,152.157Z" transform="translate(-221.987 -110.484)" fill="#02c865"/><path d="M331.757,31.138a1.168,1.168,0,0,0-.9-.039L325.421,33a6.008,6.008,0,0,0,2.983,4.318,5.9,5.9,0,0,0,5.941-.161l-1.975-5.349A1.183,1.183,0,0,0,331.757,31.138Z" transform="translate(-299.748 0)" fill="#ffc431"/><g transform="translate(23.746 47.59)"><path d="M314.1,252.808h-7.179a5.917,5.917,0,0,1,0-11.834H314.1a3.554,3.554,0,0,1,3.55,3.55v4.734A3.554,3.554,0,0,1,314.1,252.808Z" transform="translate(-301 -240.974)" fill="#00b55b"/></g><g transform="translate(28.48 52.323)"><circle cx="1.183" cy="1.183" r="1.183" fill="#fb3"/></g></g></svg>