<svg xmlns="http://www.w3.org/2000/svg" xmlns:xlink="http://www.w3.org/1999/xlink" width="37" height="37" viewBox="0 0 37 37"><defs><linearGradient id="a" x1="0.292" y1="0.137" x2="1" y2="1.079" gradientUnits="objectBoundingBox"><stop offset="0" stop-color="#0080ff"/><stop offset="1" stop-color="#07ccff"/></linearGradient><filter id="b" x="0" y="0" width="37" height="37" filterUnits="userSpaceOnUse"><feOffset input="SourceAlpha"/><feGaussianBlur stdDeviation="1.5" result="c"/><feFlood flood-color="#b8d2f3" flood-opacity="0.761"/><feComposite operator="in" in2="c"/><feComposite in="SourceGraphic"/></filter></defs><g transform="translate(4.5 4.5)"><g transform="matrix(1, 0, 0, 1, -4.5, -4.5)" filter="url(#b)"><circle cx="14" cy="14" r="14" transform="translate(4.5 4.5)" fill="url(#a)"/></g><g transform="translate(6.768 6.361)"><path d="M0,0H15.183V15.182H0Z" fill="none"/><path d="M9.857,2a2.53,2.53,0,0,1,2.191,3.8h2.87V7.061H13.652v6.326a.633.633,0,0,1-.633.633H2.9a.633.633,0,0,1-.633-.633V7.061H1V5.8H3.87A2.53,2.53,0,0,1,7.959,2.857,2.52,2.52,0,0,1,9.857,2ZM7.326,7.061H3.53v5.693h3.8Zm5.061,0h-3.8v5.693h3.8Zm-6.326-3.8a1.265,1.265,0,0,0-.095,2.527h1.36V4.53A1.265,1.265,0,0,0,6.253,3.28l-.1-.011Zm3.8,0A1.265,1.265,0,0,0,8.6,4.431V5.8H9.857a1.265,1.265,0,0,0,1.262-1.17V4.535a1.265,1.265,0,0,0-1.262-1.27Z" transform="translate(-0.367 -0.735)" fill="#fff"/></g></g></svg>