<svg xmlns="http://www.w3.org/2000/svg" width="44.721" height="43.178" viewBox="0 0 44.721 43.178"><g transform="translate(-24 -32)"><path d="M68.721,55.131A20.047,20.047,0,0,1,48.673,75.178H24l2.313-3.084L24,69.01H48.673A13.88,13.88,0,0,0,62.552,55.132V45.108h-4.28a13.83,13.83,0,0,0-9.6-3.855H30.168v3.084L24,38.168,30.168,32v3.084H48.673A20.047,20.047,0,0,1,68.721,55.132Z" fill="#ffe28f"/><path d="M383.87,168v10.024A13.835,13.835,0,0,0,379.59,168Z" transform="translate(-321.318 -122.892)" fill="#ffd873"/><path d="M149.3,168v10.024A13.88,13.88,0,0,1,135.422,191.9H120V168Z" transform="translate(-86.747 -122.892)" fill="#ffc431"/><g transform="translate(33.252 45.108)"><path d="M120,168h29.3v5.4H120Z" transform="translate(-119.999 -168)" fill="#ffb401"/><path d="M144,240h1.542v1.542H144Z" transform="translate(-141.686 -233.061)" fill="#ffb401"/><path d="M176,240h3.084v1.542H176Z" transform="translate(-170.602 -233.061)" fill="#ffb401"/><path d="M144,272h4.626v1.542H144Z" transform="translate(-141.686 -261.976)" fill="#ffb401"/><path d="M144,376h1.542v1.542H144Z" transform="translate(-141.687 -355.953)" fill="#ffb401"/><path d="M176,376h1.542v1.542H176Z" transform="translate(-170.603 -355.953)" fill="#ffb401"/><path d="M208,376h1.542v1.542H208Z" transform="translate(-199.518 -355.953)" fill="#ffb401"/></g><path d="M240,168v11.566l1.542-1.542,1.542,1.542,1.542-1.542,1.542,1.542V168Z" transform="translate(-195.182 -122.892)" fill="#ffa100"/><path d="M240,168h6.168v5.4H240Z" transform="translate(-195.182 -122.892)" fill="#f78e00"/></g></svg>