<svg xmlns="http://www.w3.org/2000/svg" width="34.643" height="46.19" viewBox="0 0 34.643 46.19"><g transform="translate(-64)"><path d="M98.643,5.716V22.171A25.334,25.334,0,0,1,81.321,46.19,25.334,25.334,0,0,1,64,22.171V5.716c.462.029.953.058,1.443.058C74.219,5.774,81.321,0,81.321,0s7.1,5.774,15.878,5.774c.491,0,.982-.029,1.443-.058Z" fill="#02c865"/><circle cx="11.724" cy="11.724" r="11.724" transform="translate(69.598 8.666)" fill="#00b55b"/><path d="M240,128h2.887v10.1H240Z" transform="translate(-160.122 -116.452)" fill="#02c865"/><path d="M272,208h4.33v2.887H272Z" transform="translate(-189.235 -189.235)" fill="#02c865"/><path d="M240,208h2.887v2.887H240Z" transform="translate(-160.122 -189.235)" fill="#02c865" opacity="0.36"/></g></svg>