<svg xmlns="http://www.w3.org/2000/svg" width="39.614" height="39.175" viewBox="0 0 39.614 39.175"><g transform="translate(-328.5 -826.325)"><path d="M24,80H60.871v36.1H24Z" transform="translate(304.5 749.397)" fill="#ffc431"/><path d="M24,80H60.871V93.827H24Z" transform="translate(304.5 749.397)" fill="#ffb401"/><path d="M56,296H66.754v12.29H56Z" transform="translate(275.572 554.137)" fill="#ffd873"/><g transform="translate(333.877 852.441)"><path d="M80,384h6.145v1.536H80Z" transform="translate(-80 -377.855)" fill="#ffc431"/><path d="M80,352h3.073v1.536H80Z" transform="translate(-80 -348.927)" fill="#ffc431"/><path d="M128,352h1.536v1.536H128Z" transform="translate(-123.391 -348.927)" fill="#ffc431"/><path d="M112,320h3.073v1.536H112Z" transform="translate(-108.927 -320)" fill="#ffc431"/><path d="M80,320h1.536v1.536H80Z" transform="translate(-80 -320)" fill="#ffc431"/></g><g transform="translate(328.5 829.397)"><path d="M208,80h1.536v36.1H208Z" transform="translate(-190.333 -80)" fill="#f78e00"/><path d="M24,152H60.871v1.536H24Z" transform="translate(-24 -145.087)" fill="#f78e00"/><path d="M169.536,161.986H168v-6.145A3.845,3.845,0,0,1,171.841,152h.768v1.536h-.768a2.307,2.307,0,0,0-2.3,2.3Z" transform="translate(-154.173 -145.087)" fill="#f78e00"/><path d="M220.609,161.986h-1.536v-6.145a2.307,2.307,0,0,0-2.3-2.3H216V152h.768a3.845,3.845,0,0,1,3.841,3.841Z" transform="translate(-197.565 -145.087)" fill="#f78e00"/></g><path d="M280,392h3.073v3.073H280Z" transform="translate(73.082 467.355)" fill="#ffb401"/><path d="M344,392h3.073v3.073H344Z" transform="translate(15.227 467.355)" fill="#ffb401"/><path d="M351.431,79.431l1.63,1.63" transform="translate(8.508 749.912)" fill="#548aff"/><path d="M328,136h2.3" transform="translate(29.689 698.774)" fill="#548aff"/><path d="M351.431,177.227l1.63-1.63" transform="translate(8.508 662.979)" fill="#548aff"/><path d="M408,194.3V192" transform="translate(-42.629 648.151)" fill="#548aff"/><path d="M161.986,112a4.608,4.608,0,0,0-3.841,2.065A4.608,4.608,0,0,0,154.3,112a2.307,2.307,0,0,0-2.3,2.3,3.076,3.076,0,0,0,3.073,3.073h6.145a3.076,3.076,0,0,0,3.073-3.073A2.307,2.307,0,0,0,161.986,112Zm-6.913,3.841a1.538,1.538,0,0,1-1.536-1.536.769.769,0,0,1,.768-.768,3.078,3.078,0,0,1,2.975,2.3Zm6.145,0H159.01a3.078,3.078,0,0,1,2.975-2.3.769.769,0,0,1,.768.768A1.538,1.538,0,0,1,161.218,115.841Z" transform="translate(188.791 720.47)" fill="#ffa100"/><g transform="translate(59)"><path d="M341.509,34.132l-6.754,6.079L328,34.132V26.7a2.7,2.7,0,0,1,2.7-2.7h8.105a2.7,2.7,0,0,1,2.7,2.7Z" transform="translate(-32.395 802.325)" fill="#02c26a"/><path d="M372.847,79.549a.673.673,0,0,1-.478-.2l-2.026-2.026.955-.955,1.549,1.549,3.575-3.575.955.955-4.053,4.053A.673.673,0,0,1,372.847,79.549Z" transform="translate(-71.164 756.232)" fill="#67eba0"/></g></g></svg>