<svg xmlns="http://www.w3.org/2000/svg" width="33.679" height="41.697" viewBox="0 0 33.679 41.697"><g transform="translate(-43.832)"><path d="M121.679,41.7H88V0h22.452l11.226,11.226Z" transform="translate(-44.168)" fill="#fdbd40"/><path d="M312,11.226h11.226L312,0Z" transform="translate(-245.716)" fill="#f49e21"/><g transform="translate(47.841 7.217)"><path d="M130.406,337.6h-1.6a.8.8,0,0,1,0-1.6h1.6a.8.8,0,0,1,0,1.6Z" transform="translate(-128 -309.538)" fill="#e9686a"/><path d="M196.047,337.6H176.8a.8.8,0,0,1,0-1.6h19.245a.8.8,0,1,1,0,1.6Z" transform="translate(-171.189 -309.538)" fill="#e9686a"/><path d="M130.406,289.6h-1.6a.8.8,0,1,1,0-1.6h1.6a.8.8,0,1,1,0,1.6Z" transform="translate(-128 -266.349)" fill="#e9686a"/><path d="M196.047,289.6H176.8a.8.8,0,0,1,0-1.6h19.245a.8.8,0,1,1,0,1.6Z" transform="translate(-171.189 -266.349)" fill="#e9686a"/><path d="M130.406,241.6h-1.6a.8.8,0,1,1,0-1.6h1.6a.8.8,0,1,1,0,1.6Z" transform="translate(-128 -223.161)" fill="#e9686a"/><path d="M196.047,241.6H176.8a.8.8,0,0,1,0-1.6h19.245a.8.8,0,1,1,0,1.6Z" transform="translate(-171.189 -223.161)" fill="#e9686a"/><path d="M130.406,193.6h-1.6a.8.8,0,1,1,0-1.6h1.6a.8.8,0,0,1,0,1.6Z" transform="translate(-128 -179.972)" fill="#e9686a"/><path d="M196.047,193.6H176.8a.8.8,0,0,1,0-1.6h19.245a.8.8,0,1,1,0,1.6Z" transform="translate(-171.189 -179.972)" fill="#e9686a"/><path d="M130.406,145.6h-1.6a.8.8,0,1,1,0-1.6h1.6a.8.8,0,0,1,0,1.6Z" transform="translate(-128 -136.783)" fill="#e9686a"/><path d="M196.047,145.6H176.8a.8.8,0,0,1,0-1.6h19.245a.8.8,0,1,1,0,1.6Z" transform="translate(-171.189 -136.783)" fill="#e9686a"/><path d="M136,72h4.811v4.811H136Z" transform="translate(-135.198 -72)" fill="#e9686a"/></g></g></svg>