<svg xmlns="http://www.w3.org/2000/svg" xmlns:xlink="http://www.w3.org/1999/xlink" width="375" height="223" viewBox="0 0 375 223"><defs><clipPath id="a"><path d="M0,0H375a0,0,0,0,1,0,0V203a20,20,0,0,1-20,20H20A20,20,0,0,1,0,203V0A0,0,0,0,1,0,0Z" fill="none" opacity="0.12"/></clipPath></defs><path d="M0,0H375a0,0,0,0,1,0,0V203a20,20,0,0,1-20,20H20A20,20,0,0,1,0,203V0A0,0,0,0,1,0,0Z" fill="#05ad5d"/><g opacity="0.5"><g clip-path="url(#a)"><rect width="45.136" height="515.412" transform="translate(105.535 -117.017) rotate(-24.269)" opacity="0.12" style="mix-blend-mode:multiply;isolation:isolate"/><rect width="45.135" height="642.366" transform="matrix(0.444, -0.896, 0.896, 0.444, -90.362, -69.569)" opacity="0.12" style="mix-blend-mode:multiply;isolation:isolate"/><rect width="642.365" height="45.134" transform="matrix(0.951, -0.308, 0.308, 0.951, -124.38, 80.151)" opacity="0.12" style="mix-blend-mode:multiply;isolation:isolate"/><path d="M282.9-206.753l9.14,71.646.92-.615L-17.517,382.5l-38.718-23.2Z" transform="translate(-4.91 -18.051)" fill-rule="evenodd" opacity="0.12" style="mix-blend-mode:multiply;isolation:isolate"/><path d="M17.193,319.37,330.252-38.135,364.209-8.4,18.405,386.5Z" transform="translate(1.501 -3.33)" fill-rule="evenodd" opacity="0.12" style="mix-blend-mode:multiply;isolation:isolate"/><path d="M-63.484,59.469l442.87,206.689-19.09,40.9L-111.783,86.736Z" transform="translate(-9.76 5.192)" fill-rule="evenodd" opacity="0.12" style="mix-blend-mode:multiply;isolation:isolate"/><path d="M266.8-58.854l141.7,258.267-39.57,21.711L212.411-64.155Z" transform="translate(18.545 -5.601)" fill-rule="evenodd" opacity="0.12" style="mix-blend-mode:multiply;isolation:isolate"/><path d="M22.045,227.765,546.457,68.131,559.6,111.31-19.661,287.641Z" transform="translate(-1.717 5.949)" fill-rule="evenodd" opacity="0.12" style="mix-blend-mode:multiply;isolation:isolate"/><path d="M48.7-24.445l291.692,388.45-36.092,27.1L-17.9-37.971Z" transform="translate(-1.563 -3.315)" fill-rule="evenodd" opacity="0.12" style="mix-blend-mode:multiply;isolation:isolate"/><rect width="682.268" height="612.597" transform="translate(-124.38 -224.805)" fill="none" opacity="0.12"/></g></g></svg>