<svg xmlns="http://www.w3.org/2000/svg" width="63" height="38" viewBox="0 0 63 38"><g transform="translate(-0.066)"><g transform="translate(0.066)" fill="#fff" stroke="#ececec" stroke-width="1"><rect width="63" height="38" rx="3" stroke="none"/><rect x="0.5" y="0.5" width="62" height="37" rx="2.5" fill="none"/></g><g transform="translate(8.85 11.888)"><path d="M437.217,125.074h-3.71l2.32-14.347h3.71Z" transform="translate(-417.372 -110.467)" fill="#00579f"/><path d="M576.307,105.658a9.142,9.142,0,0,0-3.327-.611c-3.664,0-6.243,1.954-6.259,4.747-.03,2.061,1.847,3.205,3.251,3.892,1.435.7,1.923,1.16,1.923,1.786-.015.961-1.16,1.4-2.228,1.4a7.383,7.383,0,0,1-3.481-.763l-.489-.229-.519,3.221a11.29,11.29,0,0,0,4.137.764c3.893,0,6.427-1.923,6.457-4.9.015-1.633-.977-2.885-3.114-3.907-1.3-.656-2.092-1.1-2.092-1.771.015-.611.672-1.236,2.137-1.236a6.3,6.3,0,0,1,2.763.549l.336.152.5-3.1Z" transform="translate(-543.014 -105.048)" fill="#00579f"/><path d="M796.262,119.991c.306-.824,1.481-4.014,1.481-4.014-.015.031.3-.839.488-1.374l.259,1.236s.7,3.434.855,4.152Zm4.579-9.265h-2.869a1.831,1.831,0,0,0-1.939,1.19l-5.51,13.157h3.893l.779-2.152h4.763c.106.5.443,2.152.443,2.152h3.435l-2.993-14.347Z" transform="translate(-758.038 -110.467)" fill="#00579f"/><path d="M174.995,110.727l-3.633,9.783-.4-1.984a10.981,10.981,0,0,0-5.129-6.014l3.328,12.547h3.923l5.831-14.332Z" transform="translate(-161.958 -110.467)" fill="#00579f"/><path d="M87.2,110.727H81.227l-.061.29c4.656,1.191,7.739,4.061,9.006,7.51l-1.3-6.594a1.535,1.535,0,0,0-1.679-1.206Z" transform="translate(-81.166 -110.467)" fill="#faa61a"/></g></g></svg>