<svg xmlns="http://www.w3.org/2000/svg" width="34" height="34" viewBox="0 0 34 34">
  <g id="Group_17910" data-name="Group 17910" transform="translate(-9447 18778)">
    <path id="return" d="M17.607,0a.644.644,0,0,1,.644.644V9.191a6.754,6.754,0,1,1-9.06,9.06H.644A.644.644,0,0,1,0,17.607V.644A.644.644,0,0,1,.644,0ZM12.2,1.288V4.9a.643.643,0,0,1-.977.552L9.126,4.386,6.989,5.472A.643.643,0,0,1,6.057,4.9l0-3.61H1.288V16.963H8.705a6.756,6.756,0,0,1,8.258-8.258V1.288Zm.988,16.791H16.19a2.512,2.512,0,0,0,0-5.025H14.4l.378-.379a.642.642,0,0,0-.911-.906l-1.477,1.48a.642.642,0,0,0,0,.908l1.48,1.477a.642.642,0,0,0,.906-.911l-.383-.382H16.19a1.224,1.224,0,0,1,0,2.448H13.184a.644.644,0,0,0,0,1.288ZM11.37,11.37a5.465,5.465,0,1,0,7.728,0A5.465,5.465,0,0,0,11.37,11.37ZM10.908,1.288H7.344V3.85l1.491-.758a.642.642,0,0,1,.58,0l1.493.759Zm0,0" transform="translate(9453 -18772)" fill="#2b2b2b" fill-rule="evenodd"/>
    <rect id="Rectangle_2391" data-name="Rectangle 2391" width="34" height="34" transform="translate(9447 -18778)" fill="none"/>
  </g>
</svg>
