<svg width="69" height="27" viewBox="0 0 69 27" fill="none" xmlns="http://www.w3.org/2000/svg">
<path d="M8.67857 13.0699C8.52219 13.0961 8.36334 13.1054 8.20487 13.0978L8.13897 13.1075C7.6976 13.2531 7.28109 13.4084 6.90188 13.5722C6.52267 13.736 6.1733 13.8937 5.82641 14.0575C5.47953 14.2213 5.14259 14.3802 4.81312 14.5428C4.64734 14.6237 4.47245 14.7046 4.28844 14.7855C4.58559 14.2152 4.86782 13.6256 5.13016 13.025C5.46958 12.2509 5.79782 11.4477 6.10492 10.6432C6.26157 10.2598 6.29638 10.0002 6.2106 9.82183C6.16081 9.72465 6.08015 9.64579 5.98066 9.59702C5.88117 9.54826 5.76818 9.53221 5.65857 9.55127C5.19377 9.57539 4.73742 9.68231 4.31206 9.86673C3.78176 10.0765 3.26449 10.3163 2.7629 10.585C2.25231 10.8592 1.78275 11.1209 1.35423 11.37C0.930257 11.6127 0.628133 11.7874 0.4205 11.9027C0.283983 11.9922 0.164143 12.1038 0.0661567 12.2327C-0.0880138 12.4753 0.0661567 12.6064 0.105943 12.6306C0.146896 12.6587 0.193126 12.6786 0.241983 12.6893C0.290841 12.6999 0.341365 12.701 0.390661 12.6925C0.437906 12.6852 0.472719 12.6816 0.549804 12.6755C1.12387 12.5382 1.68368 12.3494 2.22206 12.1113C2.73057 11.8832 3.18438 11.6673 3.57229 11.4695C3.9602 11.2717 4.29341 11.1055 4.54829 10.9636C4.603 10.9344 4.65024 10.9114 4.69003 10.8932C4.59974 11.2579 4.48086 11.6152 4.33444 11.9621C4.13551 12.4353 3.9055 12.9243 3.65311 13.4181C3.40072 13.9119 3.12719 14.3887 2.84496 14.8619C2.56272 15.3351 2.2979 15.7804 2.05297 16.1966C2.01309 16.2496 1.99222 16.314 1.99357 16.3798C1.99492 16.4456 2.01841 16.5091 2.06043 16.5605C2.11779 16.6511 2.1886 16.7329 2.27055 16.8032C2.35968 16.8797 2.45979 16.943 2.5677 16.9913C2.67514 17.0408 2.79206 17.0676 2.91085 17.0701H2.95934L3.0041 17.0483C3.53259 16.7898 4.0449 16.5009 4.53834 16.1832C5.02075 15.8714 5.50564 15.5632 5.98804 15.2599C6.47045 14.9566 6.9628 14.6569 7.46012 14.3863C7.97999 14.1114 8.52028 13.8749 9.07643 13.6789L9.30147 13.6001L9.20076 13.395C9.01178 13.0626 8.81658 13.0322 8.67857 13.0699Z" fill="black"/>
<path d="M21.2866 12.7158C21.2157 12.6103 21.0852 12.5799 20.9049 12.6248C20.6712 12.6819 20.338 12.9015 19.8431 13.3334C19.1842 14.0383 18.5774 14.5637 18.0378 14.8949C17.5888 15.1863 17.1016 15.4173 16.5894 15.5817C16.2403 15.6934 15.8736 15.7436 15.5065 15.7297C15.2565 15.7149 15.0075 15.6873 14.7605 15.6472C14.4136 15.5914 14.1028 15.4045 13.8118 15.0672C13.4736 14.6594 13.2026 14.2025 13.0087 13.7132C12.7614 13.1079 12.5757 12.4805 12.4541 11.8398C12.324 11.1724 12.2409 10.497 12.2055 9.81845C12.5685 9.65667 12.9776 9.47508 13.4326 9.27367C13.9237 9.0577 14.4745 8.83688 15.0688 8.61848C15.68 8.39722 16.3025 8.20688 16.9338 8.04823C17.5925 7.88222 18.2622 7.7606 18.938 7.68424L19.0163 7.65876C19.0989 7.61721 19.1682 7.55445 19.2168 7.47726C19.2655 7.40006 19.2916 7.31137 19.2923 7.22075C19.2889 7.06248 19.2384 6.9086 19.1469 6.77789C19.058 6.64348 18.9466 6.52455 18.8174 6.42603C18.7074 6.33349 18.5766 6.26741 18.4357 6.23312L18.3872 6.2222L18.3375 6.23676C17.3379 6.52472 16.5467 6.74877 15.964 6.90893C15.3809 7.06909 14.8736 7.21347 14.4459 7.3433C14.0182 7.47312 13.5918 7.61629 13.2026 7.76674C12.8607 7.90142 12.4231 8.07856 11.8934 8.30302C11.7973 7.65593 11.7239 7.13016 11.6733 6.72572C11.6161 6.27194 11.5751 5.89097 11.549 5.58036C11.5229 5.26975 11.5042 4.9822 11.4868 4.72012C11.4744 4.48838 11.4533 4.22145 11.4272 3.91206C12.0339 3.6694 12.7438 3.42673 13.5408 3.16709C14.4095 2.88803 15.2744 2.6122 16.1356 2.33961C16.9897 2.07026 17.8053 1.79362 18.5575 1.51941C19.1532 1.31443 19.7311 1.06328 20.2858 0.768374C20.3195 0.755419 20.35 0.735635 20.3752 0.710328C20.4005 0.685021 20.42 0.654768 20.4325 0.621564C20.4461 0.58095 20.4497 0.537735 20.4427 0.495523C20.4358 0.453312 20.4186 0.413326 20.3927 0.378902C20.3305 0.296088 20.2534 0.224969 20.1651 0.169C20.0395 0.0887059 19.8979 0.0353908 19.7495 0.0125902C19.6012 -0.0102104 19.4496 -0.00197537 19.3048 0.0367491C18.5252 0.226025 17.7991 0.416515 17.1315 0.602151L15.1857 1.15542L13.2163 1.72082C12.6096 1.89311 11.9357 2.07389 11.2083 2.25589C11.2083 2.211 11.2083 2.16368 11.2021 2.11636C11.1987 1.98022 11.1731 1.84548 11.1263 1.71718L11.0654 1.58008L10.527 1.62861C10.4431 1.63598 10.3599 1.65019 10.2783 1.67108C10.2122 1.6903 10.1478 1.71464 10.0856 1.74387L9.74496 1.90767V2.029C9.74496 2.30564 9.7661 2.69875 9.80837 3.23261C9.85065 3.76646 9.90908 4.32458 9.99363 4.99554L10.2522 7.03997C10.3351 7.7081 10.4238 8.35317 10.5183 8.9752C10.3358 9.10217 10.1618 9.24036 9.99736 9.38894C9.80495 9.55924 9.62544 9.74293 9.46025 9.93856C9.32653 10.0854 9.22536 10.2577 9.16309 10.4445C9.14546 10.4945 9.13965 10.5478 9.14611 10.6003C9.15257 10.6529 9.17113 10.7033 9.20039 10.7478C9.2327 10.7923 9.27484 10.8292 9.32369 10.8556C9.37254 10.8821 9.42685 10.8975 9.48263 10.9007L9.55847 10.9104L9.62188 10.8692C9.83529 10.7229 10.0621 10.5961 10.2995 10.4906C10.4413 10.4376 10.5884 10.3994 10.7384 10.3766C10.8938 11.3836 11.0753 12.3179 11.2767 13.1745C11.4513 13.9798 11.7445 14.7563 12.147 15.4797C12.4767 16.0735 12.9848 16.5545 13.603 16.8581C13.9921 17.0344 14.4172 17.1224 14.8463 17.1153C15.1712 17.113 15.4951 17.0772 15.8123 17.0085C16.3928 16.9238 16.9549 16.7458 17.4759 16.4819C17.9458 16.2365 18.3872 15.9424 18.7925 15.6047C19.2072 15.2563 19.5968 14.8805 19.9588 14.48C20.3255 14.0735 20.7309 13.6379 21.1872 13.1587C21.2605 13.0725 21.401 12.8833 21.2866 12.7158Z" fill="black"/>
<path d="M25.4222 14.9737C25.0878 14.3295 24.7359 13.5711 24.3766 12.7194L24.5009 12.393C24.5308 12.2875 24.5668 12.1843 24.6066 12.0836C24.6464 11.9829 24.6825 11.8907 24.7223 11.7924C24.762 11.6942 24.808 11.5364 24.8864 11.3423C24.9647 11.1482 25.0505 10.9225 25.1263 10.6932C25.1992 10.4715 25.2549 10.2448 25.2929 10.0149C25.337 9.81873 25.3236 9.61441 25.2544 9.42526L25.2258 9.3561L25.1587 9.32456C25.0567 9.27481 24.9249 9.21779 24.7633 9.14984C24.7059 9.12089 24.6426 9.10488 24.5781 9.10299C24.5135 9.1011 24.4493 9.11338 24.3903 9.13892C24.3395 9.16633 24.2958 9.20476 24.2626 9.25125C24.2294 9.29774 24.2076 9.35105 24.1988 9.40706C24.1454 9.85962 24.0492 10.3064 23.9116 10.7417C23.8159 11.0329 23.709 11.3374 23.5921 11.6517C23.4019 11.3569 23.229 11.0911 23.0736 10.8521C22.8598 10.5221 22.6579 10.2204 22.4681 9.94699C22.2783 9.67359 22.0885 9.40706 21.8987 9.14741C21.7085 8.89141 21.5058 8.62569 21.292 8.3527L21.246 8.29203L21.1726 8.27747C21.0993 8.25755 21.0226 8.25233 20.9472 8.26213C20.8717 8.27193 20.7991 8.29655 20.7337 8.3345C20.6752 8.37335 20.6256 8.42359 20.5879 8.48205C20.5503 8.54051 20.5254 8.60594 20.5149 8.67422C20.4877 8.80014 20.4886 8.93027 20.5173 9.05585C20.546 9.18143 20.602 9.29953 20.6815 9.40221C20.8708 9.60481 21.0375 9.82647 21.1788 10.0635C21.3852 10.3826 21.5966 10.7223 21.8179 11.0802L22.4831 12.1625C22.6894 12.4974 22.871 12.7691 23.0388 12.9997C22.9344 13.3734 22.8449 13.6864 22.7703 13.9363C22.6957 14.1863 22.5912 14.4836 22.4793 14.7747C22.3674 15.0659 22.2207 15.4299 22.0504 15.8534C21.88 16.2768 21.6426 16.8422 21.3492 17.552L21.2671 17.7449L21.4698 17.8153C21.609 17.869 21.7565 17.8998 21.9062 17.9063C21.9741 17.9079 22.0415 17.8951 22.1038 17.8687C22.2652 17.7813 22.4042 17.6593 22.5104 17.512L22.544 17.4574C22.641 17.2026 22.7541 16.9259 22.8846 16.6226C23.0028 16.352 23.1184 16.0778 23.2353 15.7988L23.6617 14.7832C23.7152 14.6546 23.7649 14.5309 23.8109 14.4192C23.9862 14.7359 24.1528 15.0259 24.3182 15.2831C24.542 15.6471 24.7546 16.0269 24.9473 16.42L24.997 16.4831C25.1632 16.6278 25.3549 16.7421 25.5627 16.8204C25.6871 16.8665 25.8599 16.9174 25.9991 16.8204C26.0397 16.7923 26.0724 16.7547 26.0941 16.711C26.1159 16.6673 26.126 16.6189 26.1235 16.5704L26.1123 16.5061C25.9168 15.9812 25.6863 15.4693 25.4222 14.9737Z" fill="black"/>
<path d="M33.3708 10.6482C33.2834 10.5414 33.1758 10.452 33.0537 10.3849L32.815 10.2636H32.8063C32.4514 10.1017 32.0491 10.0682 31.6712 10.169C31.2906 10.2729 30.9316 10.4413 30.6106 10.6664C30.2548 10.9125 29.9291 11.1974 29.6396 11.5157C29.3492 11.8296 29.0805 12.162 28.8352 12.5106C28.6401 12.7845 28.4652 13.0716 28.3118 13.3697C28.2322 12.6101 28.1564 11.9695 28.088 11.4551C28.0323 10.9472 27.935 10.4445 27.797 9.95177L27.7473 9.87048C27.6481 9.77281 27.5418 9.68238 27.429 9.59991C27.2885 9.49556 27.0635 9.45795 26.7278 9.47858L26.4854 9.49314L26.5401 9.72367C26.5881 9.92831 26.6325 10.1414 26.6731 10.3631C26.7141 10.5839 26.7464 10.7865 26.7701 10.977L26.8322 11.4623C26.8459 11.5764 26.8546 11.648 26.8571 11.705C26.9218 12.0945 26.974 12.6611 27.015 13.3903C27.056 14.1195 27.0933 14.9263 27.1257 15.789C27.158 16.6517 27.1866 17.541 27.2114 18.4583C27.2363 19.3755 27.2525 20.2067 27.2612 20.965C27.2699 21.7233 27.2773 22.3603 27.2848 22.8638L27.2935 23.3358C27.2935 23.542 27.2935 23.6609 27.2935 23.6901C27.2935 24.3016 27.2972 24.7517 27.3047 25.0405C27.307 25.2473 27.3203 25.4538 27.3445 25.6593C27.3557 25.7478 27.378 25.931 27.5459 25.9699L27.7113 25.982C27.8091 26.0001 27.9079 26.0131 28.0072 26.0208H28.0382C28.133 26.0213 28.2249 25.9894 28.298 25.9307C28.3711 25.872 28.4209 25.7901 28.4386 25.6993C28.4993 25.4539 28.5277 25.2019 28.5231 24.9495C28.5306 24.6106 28.5306 24.1078 28.5231 23.4413C28.5157 22.7748 28.4995 21.9211 28.4746 20.88C28.4498 19.9094 28.4386 18.6742 28.4373 17.2122C28.9071 17.2077 29.3715 17.1145 29.805 16.938C30.4535 16.6844 31.0524 16.3236 31.5755 15.8715C32.1605 15.3704 32.6541 14.7759 33.0351 14.1134C33.4508 13.3923 33.68 12.5831 33.7028 11.756C33.7096 11.5327 33.6759 11.3101 33.6033 11.0983C33.5536 10.9361 33.4749 10.7837 33.3708 10.6482ZM28.737 14.8584C28.9279 14.4472 29.1494 14.0502 29.3997 13.6706C29.6558 13.2787 29.9169 12.9171 30.1755 12.5944C30.3524 12.3617 30.5478 12.1431 30.7598 11.9404C31.0189 11.7307 31.2969 11.5443 31.5904 11.3835C31.8204 11.2621 32.0504 11.2803 32.3127 11.4478C32.3438 11.4684 32.4371 11.5691 32.4371 11.978C32.4221 12.3869 32.3272 12.7893 32.1573 13.1634C31.9344 13.6674 31.6264 14.1313 31.246 14.5356C30.7713 15.0327 30.1866 15.4174 29.5364 15.6604C29.3499 15.747 29.1514 15.8063 28.9471 15.8363C28.8346 15.8514 28.7201 15.8448 28.6102 15.8169C28.5613 15.806 28.5146 15.7872 28.4722 15.7611C28.5051 15.4473 28.5947 15.1417 28.737 14.8584Z" fill="black"/>
<path d="M39.7477 10.5937C39.8111 10.5331 39.861 10.4605 39.8946 10.3804C39.9282 10.3002 39.9446 10.2143 39.9429 10.1278V9.93726L39.7477 9.92756C39.165 9.88973 38.5796 9.92767 38.0071 10.0404C37.5519 10.1344 37.1185 10.3101 36.729 10.5585C36.3824 10.7873 36.084 11.0789 35.85 11.4175C35.7691 11.5388 35.6933 11.6602 35.6212 11.7815C35.6212 11.733 35.6125 11.6856 35.61 11.642L35.5603 11.0159C35.5445 10.8193 35.5196 10.6107 35.4857 10.3898C35.4521 10.1726 35.4024 9.88024 35.3365 9.50775L35.3178 9.40462L35.2196 9.36094C35.0372 9.28006 34.8594 9.20362 34.6862 9.13163C34.6245 9.09783 34.5549 9.08008 34.4842 9.08008C34.4134 9.08008 34.3438 9.09783 34.2821 9.13163C34.2357 9.16766 34.2005 9.21554 34.1803 9.26994C34.1601 9.32434 34.1558 9.38314 34.1678 9.43981L34.4985 12.6466C34.6294 14.0583 34.6742 15.4763 34.6327 16.8932C34.6319 16.9767 34.6599 17.058 34.7122 17.124C34.7646 17.1901 34.8382 17.237 34.9212 17.2572C35.055 17.2978 35.1965 17.3086 35.3352 17.2887C35.4612 17.2733 35.584 17.2393 35.6995 17.188C35.7802 17.1589 35.8475 17.1025 35.8891 17.0289C35.9306 16.9554 35.9437 16.8697 35.9258 16.7876C35.8921 16.5843 35.8813 16.378 35.8935 16.1725L35.9183 15.3074C35.9258 15.0154 35.942 14.7391 35.9668 14.4787C35.9917 14.2166 36.0116 14.014 36.019 13.9109C36.1135 13.6342 36.2391 13.32 36.392 12.979C36.5447 12.6461 36.7425 12.3348 36.9801 12.0533C37.2302 11.7578 37.5234 11.4998 37.8504 11.2877C38.201 11.0635 38.5964 10.9146 39.0105 10.8509C39.3872 10.8011 39.6222 10.715 39.7477 10.5937Z" fill="black"/>
<path d="M58.9738 13.1357L58.898 13.0265H58.7736C58.7136 13.0284 58.6546 13.0429 58.6008 13.069C58.3522 13.1831 58.1358 13.2825 57.9481 13.3711C57.7603 13.4597 57.5627 13.5604 57.3774 13.6672C57.1921 13.7739 56.9957 13.8807 56.7694 13.9996C56.5655 14.1064 56.3218 14.2423 56.0396 14.3867C55.7406 14.202 55.4276 14.0398 55.1034 13.9013C54.6968 13.7278 54.2878 13.5373 53.8874 13.3214C53.5021 13.1199 53.1381 12.8818 52.8008 12.6104C52.5093 12.3827 52.2882 12.0808 52.1617 11.738C52.1057 11.6166 52.0899 11.4812 52.1167 11.3507C52.1434 11.2201 52.2113 11.101 52.3109 11.01C52.5748 10.7655 52.9033 10.5974 53.2596 10.5247C53.7006 10.4247 54.1558 10.3977 54.6061 10.4446C55.0374 10.4765 55.4549 10.6075 55.8245 10.8268C55.9575 10.9069 56.0955 10.9894 56.2348 11.0695C56.2889 11.1104 56.352 11.1384 56.4191 11.1512C56.4863 11.1641 56.5556 11.1614 56.6215 11.1435L56.7458 11.067L56.793 10.8875L56.7458 10.8147C56.665 10.6933 56.5792 10.5514 56.4897 10.4082C56.3775 10.2345 56.2397 10.0779 56.0806 9.94352C55.8734 9.77081 55.6381 9.63303 55.3844 9.53585C55.0408 9.40147 54.6817 9.30818 54.3151 9.258C53.864 9.18895 53.4027 9.21879 52.9649 9.34536C52.5507 9.46621 52.1658 9.66762 51.8335 9.93745C51.5168 10.1905 51.262 10.5092 51.0875 10.8705C50.9173 11.2206 50.8638 11.6139 50.9346 11.9952C50.9731 12.3592 51.1944 12.7329 51.591 13.0872C51.6395 13.1309 51.7054 13.1673 51.7564 13.2085L51.407 13.3699C51.2131 13.4613 51.0228 13.56 50.8363 13.666C50.6586 13.7703 50.4559 13.8795 50.2296 13.9984C50.0245 14.1052 49.782 14.2411 49.4998 14.3854C49.2005 14.2006 48.887 14.0383 48.5623 13.9001C48.1558 13.7266 47.7467 13.5361 47.3464 13.3202C46.9614 13.1187 46.5978 12.8806 46.261 12.6092C45.9688 12.3819 45.7472 12.0798 45.6207 11.7368C45.5646 11.6154 45.5489 11.48 45.5756 11.3494C45.6024 11.2189 45.6703 11.0998 45.7699 11.0088C46.0344 10.7645 46.3632 10.5965 46.7197 10.5235C47.1608 10.4235 47.616 10.3964 48.0662 10.4434C48.4965 10.4751 48.913 10.6052 49.2822 10.8232C49.4152 10.9032 49.552 10.9858 49.6913 11.0658C49.7454 11.1066 49.8085 11.1346 49.8756 11.1474C49.9427 11.1603 50.012 11.1577 50.0779 11.1398L50.2023 11.0634L50.2495 10.8838L50.2023 10.811C50.1202 10.6897 50.0344 10.5477 49.9449 10.4046C49.8336 10.2306 49.6961 10.074 49.5371 9.93988C49.3296 9.76743 49.0944 9.62967 48.8408 9.53221C48.4968 9.39785 48.1373 9.30456 47.7703 9.25436C47.3165 9.18559 46.8526 9.21668 46.4126 9.34536C45.9989 9.46649 45.6145 9.66787 45.2825 9.93745C44.9658 10.1905 44.7109 10.5092 44.5365 10.8705C44.3654 11.2212 44.3127 11.6159 44.386 11.9977C44.4233 12.3616 44.6447 12.7353 45.0413 13.0896C45.0736 13.1175 45.1171 13.1406 45.1507 13.1697L45.1407 13.1794C44.944 13.4296 44.7319 13.6679 44.5054 13.8928C44.3052 14.0882 44.0317 14.3321 43.6873 14.6208C43.4797 14.8065 43.2037 15.0297 42.8655 15.2821C42.5521 15.5167 42.2111 15.7139 41.8497 15.8693C41.5622 16.0009 41.2422 16.0501 40.9272 16.0113C40.7108 15.9797 40.5417 15.839 40.4124 15.5806C41.036 15.1367 41.6154 14.6366 42.1431 14.087C42.7118 13.4693 43.1499 12.7482 43.4324 11.9649C43.6687 11.1471 43.6326 10.5963 43.3218 10.2796C43.0321 9.98962 42.6442 9.8416 42.1058 9.85859C41.8875 9.81002 41.6592 9.82651 41.4506 9.90591L41.0391 10.0345L41.0938 10.2274L41.0291 10.0345L40.9931 10.0491C40.6326 10.2453 40.318 10.5126 40.0693 10.8341C39.7842 11.2058 39.5428 11.6075 39.3494 12.0316C39.0299 12.9113 38.8608 13.6441 38.8446 14.2059C38.8181 14.6552 38.8524 15.106 38.9466 15.5466C38.9715 15.6602 39.009 15.7709 39.0585 15.8766C39.1263 16.025 39.2132 16.1645 39.3171 16.2916C39.4597 16.4645 39.6302 16.6136 39.8219 16.7332C40.0935 16.8995 40.386 17.0308 40.6922 17.1239C40.8873 17.1563 41.0848 17.1733 41.2827 17.1748C41.4616 17.1758 41.64 17.1579 41.8149 17.1215C42.1368 17.0548 42.4435 16.9315 42.72 16.7575C42.9914 16.5857 43.2449 16.3887 43.4772 16.169C43.706 15.953 43.9434 15.7346 44.2045 15.4956C44.4134 15.253 44.59 15.071 44.7367 14.929C44.8834 14.787 45.0114 14.6512 45.1034 14.5444C45.1927 14.4455 45.271 14.3377 45.3372 14.2229C45.4004 14.109 45.4564 13.9915 45.505 13.871C45.5374 13.7254 45.5635 13.6114 45.5796 13.5301C45.5796 13.5106 45.5796 13.5022 45.5796 13.4852C45.8121 13.6611 46.0272 13.8492 46.2871 14.0081C46.7396 14.2896 47.186 14.5505 47.6149 14.7834C47.8422 14.9021 48.0596 15.038 48.2652 15.1899C48.0973 15.3282 47.9108 15.4798 47.7082 15.6424C47.4309 15.8624 47.1742 16.1061 46.9411 16.3704C46.7234 16.616 46.5547 16.8991 46.4437 17.2052C46.3884 17.3683 46.3752 17.5422 46.4051 17.7114C46.435 17.8807 46.5072 18.0402 46.6153 18.1758C46.815 18.4063 47.0874 18.5655 47.3899 18.6284C47.5228 18.6586 47.6587 18.6745 47.7952 18.6757C47.9553 18.6763 48.1142 18.65 48.2652 18.5981C49.2516 18.2508 50.0842 17.5806 50.6213 16.7017C50.7541 16.4759 50.8008 16.2116 50.753 15.9555C50.7084 15.7363 50.6296 15.5252 50.5193 15.3294C50.4289 15.1795 50.3222 15.0396 50.201 14.912L50.9942 14.4267C51.31 14.2314 51.5264 14.0918 51.6433 14.0105C51.8782 13.8479 52.0511 13.7193 52.1617 13.6283C52.199 13.5968 52.2003 13.5871 52.2289 13.5616C52.4303 13.7084 52.6081 13.8686 52.8294 14.0045C53.2807 14.286 53.727 14.5468 54.156 14.7798C54.3835 14.8988 54.6013 15.0347 54.8075 15.1862C54.6396 15.3245 54.4531 15.4762 54.2492 15.6388C53.972 15.8585 53.7157 16.1021 53.4834 16.3668C53.2653 16.6121 53.0966 16.8953 52.986 17.2015C52.931 17.3647 52.9178 17.5385 52.9477 17.7077C52.9776 17.877 53.0497 18.0365 53.1576 18.1722C53.3578 18.4027 53.6306 18.5618 53.9334 18.6247C54.0663 18.655 54.2023 18.6709 54.3387 18.6721C54.4988 18.6725 54.6578 18.6463 54.8087 18.5944C55.7946 18.2463 56.627 17.5763 57.1648 16.698C57.2974 16.4722 57.3436 16.2078 57.2953 15.9518C57.2512 15.7326 57.1723 15.5214 57.0616 15.3258C56.972 15.1753 56.8653 15.0353 56.7433 14.9084L57.5365 14.4231C57.8523 14.2277 58.0687 14.0882 58.1856 14.0069C58.4218 13.8443 58.5934 13.7157 58.7053 13.6247C58.7965 13.556 58.8766 13.4742 58.9427 13.382C58.9701 13.3475 58.9875 13.3064 58.993 13.2631C58.9984 13.2197 58.9918 13.1757 58.9738 13.1357ZM55.9899 16.2903C55.9259 16.4475 55.8342 16.5925 55.7188 16.7186C55.5683 16.8947 55.3977 17.0534 55.2103 17.1918C55.0288 17.3267 54.8277 17.4342 54.6135 17.5109C54.4771 17.5672 54.3245 17.5741 54.1833 17.5303C54.1684 17.5073 54.1585 17.4575 54.207 17.3435C54.2971 17.1442 54.4155 16.9584 54.5588 16.7914C54.7349 16.58 54.9287 16.3831 55.1382 16.203C55.3123 16.0501 55.4739 15.9191 55.6194 15.8099C55.7181 15.8885 55.8103 15.9745 55.8954 16.0671C55.9488 16.1265 56.0147 16.2151 55.9874 16.2867L55.9899 16.2903ZM49.4414 16.2903C49.3774 16.4475 49.2857 16.5925 49.1703 16.7186C49.0199 16.8944 48.8497 17.0531 48.663 17.1918C48.4813 17.3269 48.2797 17.4345 48.065 17.5109C47.9289 17.5669 47.7769 17.5738 47.6361 17.5303C47.6211 17.5073 47.6112 17.4575 47.6584 17.3435C47.749 17.1445 47.8674 16.9587 48.0103 16.7914C48.1872 16.5802 48.3813 16.3834 48.5909 16.203C48.765 16.0501 48.9266 15.9191 49.0708 15.8099C49.1697 15.8888 49.2623 15.9748 49.3481 16.0671C49.4028 16.1265 49.4662 16.2151 49.4389 16.2867L49.4414 16.2903ZM41.4245 13.1782C41.187 13.4263 40.925 13.6511 40.6424 13.8492C40.4982 13.9499 40.3615 14.0397 40.2359 14.1173C40.2722 13.808 40.3405 13.5032 40.4398 13.2073C40.5796 12.7736 40.7676 12.3562 41.0005 11.9625C41.1804 11.6436 41.4214 11.3614 41.7104 11.1313C41.8207 11.0391 41.9595 10.9857 42.1046 10.9797C42.1849 10.9807 42.2639 10.9994 42.3358 11.0343L42.3545 11.0416C42.3657 11.0658 42.393 11.1629 42.3408 11.4201C42.3246 11.7434 42.2286 12.0581 42.0611 12.3374C41.8817 12.6395 41.6673 12.9204 41.422 13.1746L41.4245 13.1782Z" fill="black"/>
<path d="M60.8604 18.46L66.2874 9.28857L69.0003 13.8737L66.2874 18.46H60.8604Z" fill="#00D269"/>
<path d="M60.8604 9.28857L66.2874 18.46L69.0003 13.8737L66.2874 9.28857H60.8604Z" fill="#00B55B"/>
<path d="M62.8828 15.0444L63.5741 13.8735L66.2882 18.4598L62.8828 15.0444Z" fill="#02A550"/>
</svg>
